<?xml version="1.0" encoding="iso-8859-1"?>
<!-- Generator: Adobe Illustrator 19.0.0, SVG Export Plug-In . SVG Version: 6.00 Build 0)  -->
<svg version="1.1" id="Layer_1" xmlns="http://www.w3.org/2000/svg" xmlns:xlink="http://www.w3.org/1999/xlink" x="0px" y="0px"
	 viewBox="0 0 496.158 496.158" style="enable-background:new 0 0 496.158 496.158;" xml:space="preserve">
<path style="fill:#56B48C;" d="M248.082,0.003C111.07,0.003,0,111.061,0,248.085c0,137,111.07,248.07,248.082,248.07
	c137.006,0,248.076-111.07,248.076-248.07C496.158,111.061,385.088,0.003,248.082,0.003z"/>
<path style="fill:#FFFFFF;" d="M324.983,279.892c-4.541-2.051-10.572-3.076-18.091-3.076h-6.299V163.437
	c0-16.992-7.423-25.488-22.266-25.488c-4.591,0-8.521,1.538-11.792,4.614c-3.273,3.076-7.448,8.034-12.524,14.868l-77.637,103.857
	c-2.149,2.833-3.955,5.226-5.42,7.178c-1.465,1.955-2.882,3.98-4.248,6.079c-1.369,2.101-2.394,4.102-3.076,6.006
	c-0.685,1.904-1.025,3.786-1.025,5.64c0,7.228,2.318,12.941,6.958,17.139c4.637,4.2,11.595,6.299,20.874,6.299h73.535v27.246
	c0,7.324,1.685,12.868,5.054,16.626s7.787,5.64,13.257,5.64c5.566,0,10.009-1.831,13.33-5.493c3.319-3.662,4.98-9.251,4.98-16.772
	V309.63h8.936c7.42,0,12.987-1.293,16.699-3.882c3.71-2.586,5.566-6.713,5.566-12.378
	C331.795,286.436,329.524,281.943,324.983,279.892z M263.973,276.816h-62.988l62.988-85.107V276.816z"/>
<g>
</g>
<g>
</g>
<g>
</g>
<g>
</g>
<g>
</g>
<g>
</g>
<g>
</g>
<g>
</g>
<g>
</g>
<g>
</g>
<g>
</g>
<g>
</g>
<g>
</g>
<g>
</g>
<g>
</g>
</svg>
