<svg id="Layer_1_1_" enable-background="new 0 0 64 64" height="512" viewBox="0 0 64 64" width="512" xmlns="http://www.w3.org/2000/svg"><path d="m37 43h-9v1c0 2.761-5 5-5 5s-5-2.239-5-5v-1h-9c-3.314 0-6 2.686-6 6v12h4 32 4v-12c0-3.314-2.686-6-6-6z" fill="#fff"/><path d="m15.799 54.272 10.201-4.372s-1.016-.459-2.319-1.24c-.408.216-.681.34-.681.34l-7 3-3-9h-2.1l3.556 10.669c.185.555.805.833 1.343.603z" fill="#e0e0e0"/><path d="m35.1 43h-2.1l-3 9-7-3s-.273-.124-.681-.34c-1.303.781-2.319 1.24-2.319 1.24l10.201 4.372c.538.23 1.158-.048 1.343-.603z" fill="#e0e0e0"/><path d="m16 12-4 10v5c0 4.321 2.418 8.008 6 9.812 1.438.725 3.059 1.154 4.794 1.186 1.878.034 3.648-.407 5.206-1.204 3.56-1.821 6-5.52 6-9.794v-8.234c-5.64-1.469-18-6.766-18-6.766z" fill="#fce0b9"/><path d="m50 3c-6.075 0-11 4.925-11 11 0 3.597 1.734 6.781 4.404 8.788l-1.404 4.212 5.887-2.208c.684.134 1.39.208 2.113.208 6.075 0 11-4.925 11-11s-4.925-11-11-11z" fill="#46afda"/><path d="m23 49s-5-2.239-5-5v-1h-5l3 9z" fill="#fff"/><path d="m23 54-2.261-1.696-1.739 8.696h8l-1.739-8.696z" fill="#1a326e"/><path d="m14 29h4c1.105 0 2-.895 2-2v-2-1h-8v3c0 1.105.895 2 2 2z" fill="#d6d6d6"/><path d="m23 49s5-2.239 5-5v-1-6.206c-1.558.797-3.328 1.239-5.206 1.204-1.735-.032-3.356-.462-4.794-1.186v6.188 1c0 2.761 5 5 5 5z" fill="#fce0b9"/><path d="m23 49 7 3 3-9h-5v1c0 2.761-5 5-5 5z" fill="#fff"/><path d="m28 29h4c1.105 0 2-.895 2-2v-3h-8v1 2c0 1.105.895 2 2 2z" fill="#d6d6d6"/><path d="m35 19h1v-2.072c0-5.379-3.313-10.203-8.333-12.133-3.004-1.155-6.33-1.155-9.333 0-5.021 1.931-8.334 6.754-8.334 12.133l1 5.072h1l4-10s14 6 19 7z" fill="#2b2210"/><path d="m50 3c-.51 0-1.008.047-1.5.114 5.364.733 9.5 5.321 9.5 10.886 0 5.561-4.131 10.147-9.49 10.884.489.068.983.116 1.49.116 6.075 0 11-4.925 11-11s-4.925-11-11-11z" fill="#4bbae8"/><path d="m10.5 28h1.5v-5h-1-.5c-1.381 0-2.5 1.119-2.5 2.5s1.119 2.5 2.5 2.5z" fill="#edc59b"/><path d="m34 28h1.5c1.381 0 2.5-1.119 2.5-2.5s-1.119-2.5-2.5-2.5h-.5-1z" fill="#edc59b"/><path d="m28 44v-1-6.206c-1.558.797-3.328 1.239-5.206 1.204-1.643-.03-3.177-.427-4.557-1.083.256.324.569.622.952.877l3.03 2.02c1.113.742 1.781 1.991 1.781 3.329v4.859c0 .157.029.307.046.46 1.466-.825 3.954-2.51 3.954-4.46z" fill="#edc59b"/><path d="m27.667 4.795c-3.004-1.155-6.33-1.155-9.333 0-5.021 1.931-8.334 6.754-8.334 12.133l.176.891c.739-4.5 3.804-8.351 8.157-10.025 3.004-1.155 6.33-1.155 9.333 0 4.73 1.819 7.941 6.206 8.298 11.205h.036v-2.072c0-5.378-3.313-10.201-8.333-12.132z" fill="#3d3017"/><path d="m12 22v3l4-10s12.36 5.297 18 6.766v-3c-5.64-1.469-18-6.766-18-6.766z" fill="#edc59b"/><path d="m23 49-4 2 4 3 4-3z" fill="#1a326e"/><path d="m23.6 56.05 2.096-1.572-.435-2.174-2.261 1.696-2.261-1.696-.435 2.174 2.096 1.572c.356.267.844.267 1.2 0z" fill="#142757"/><path d="m37 43h-1v18h3 2v-16.463c-1.062-.953-2.461-1.537-4-1.537z" fill="#e0e0e0"/><path d="m39 35v8.341 17.659h22v-26z" fill="#878787"/><path d="m39 35v8.341 17.659h22c-10.907-2.424-19.3-11.149-21.298-22.142z" fill="#737373"/><path d="m42 39h16v4h-16z" fill="#4bbae8"/><ellipse cx="17" cy="26.5" fill="#2b2210" rx="1" ry="1.5"/><circle cx="17.5" cy="26.5" fill="#fff" r=".5"/><ellipse cx="29" cy="26.5" fill="#2b2210" rx="1" ry="1.5"/><circle cx="29.5" cy="26.5" fill="#fff" r=".5"/><path d="m34 23h-8c-.552 0-1 .448-1 1h-4c0-.552-.448-1-1-1h-8c-.552 0-1 .448-1 1v3c0 1.654 1.346 3 3 3h4c1.654 0 3-1.346 3-3v-1h4v1c0 1.654 1.346 3 3 3h4c1.654 0 3-1.346 3-3v-3c0-.552-.448-1-1-1zm-15 4c0 .551-.449 1-1 1h-4c-.551 0-1-.449-1-1v-2h6zm14 0c0 .551-.449 1-1 1h-4c-.551 0-1-.449-1-1v-2h6z" fill="#142757"/><g fill="#fff"><path d="m45 48h-2c-.552 0-1-.448-1-1 0-.552.448-1 1-1h2c.552 0 1 .448 1 1 0 .552-.448 1-1 1z"/><path d="m51 48h-2c-.552 0-1-.448-1-1 0-.552.448-1 1-1h2c.552 0 1 .448 1 1 0 .552-.448 1-1 1z"/><path d="m57 48h-2c-.552 0-1-.448-1-1 0-.552.448-1 1-1h2c.552 0 1 .448 1 1 0 .552-.448 1-1 1z"/><path d="m45 52h-2c-.552 0-1-.448-1-1 0-.552.448-1 1-1h2c.552 0 1 .448 1 1 0 .552-.448 1-1 1z"/><path d="m51 52h-2c-.552 0-1-.448-1-1 0-.552.448-1 1-1h2c.552 0 1 .448 1 1 0 .552-.448 1-1 1z"/><path d="m57 52h-2c-.552 0-1-.448-1-1 0-.552.448-1 1-1h2c.552 0 1 .448 1 1 0 .552-.448 1-1 1z"/><path d="m45 56h-2c-.552 0-1-.448-1-1 0-.552.448-1 1-1h2c.552 0 1 .448 1 1 0 .552-.448 1-1 1z"/><path d="m51 56h-2c-.552 0-1-.448-1-1 0-.552.448-1 1-1h2c.552 0 1 .448 1 1 0 .552-.448 1-1 1z"/><path d="m57 56h-2c-.552 0-1-.448-1-1 0-.552.448-1 1-1h2c.552 0 1 .448 1 1 0 .552-.448 1-1 1z"/><path d="m42.722 12.5h15.556v2h-15.556z" transform="matrix(.707 -.707 .707 .707 5.245 39.663)"/><circle cx="54" cy="17" r="2"/><circle cx="47" cy="10" r="2"/></g><path d="m23 36c-2.068 0-3.75-1.682-3.75-3.75h1.5c0 1.241 1.009 2.25 2.25 2.25s2.25-1.009 2.25-2.25h1.5c0 2.068-1.682 3.75-3.75 3.75z" fill="#c47c66"/></svg>