<svg id="Layer_1_1_" enable-background="new 0 0 64 64" height="512" viewBox="0 0 64 64" width="512" xmlns="http://www.w3.org/2000/svg"><path d="m37 42-5.211-1.158-8.789 5.158-8.789-5.158-5.211 1.158c-3.314 0-6 2.686-6 6v13h40v-13c0-3.314-2.686-6-6-6z" fill="#3a4c63"/><path d="m27.138 36.376c-.747.41-1.584.624-2.436.624h-3.405c-.851 0-1.689-.214-2.436-.624l-.861-.472v2.096 2l5 6 5-6v-2-2.096z" fill="#fce0b9"/><path d="m21.298 37h3.405c.851 0 1.689-.214 2.436-.624l.861-.472 3.841-2.105c1.368-1.14 2.159-2.829 2.159-4.609v-8.19l-5-8h-12l-5 8v8.19c0 1.781.791 3.469 2.159 4.609l3.841 2.105.862.472c.747.41 1.584.624 2.436.624z" fill="#fce0b9"/><path d="m10.5 21c-1.381 0-2.5 1.119-2.5 2.5s1.119 2.5 2.5 2.5h1.5v-5z" fill="#fad3ac"/><path d="m35.5 26c1.381 0 2.5-1.119 2.5-2.5s-1.119-2.5-2.5-2.5h-1.5v5z" fill="#fad3ac"/><path d="m34 21v-8h-5z" fill="#5e4c2d"/><path d="m18 38-4 3s1 6 3 9l6-4-5-6z" fill="#3a4c63"/><path d="m32 41-.211-.158-3.789-2.842v2l-5 6 6 4c2-3 3-9 3-9z" fill="#3a4c63"/><path d="m34 13v-5c0-2.761-2.239-5-5-5h-19v5c0 2.761 2.239 5 5 5h2 12z" fill="#4c3d24"/><path d="m49 46 5-5h-6l-5 5z" fill="#fff"/><path d="m55 46 5-5h-6l-5 5z"/><path d="m43 46 5-5h-12.985-.015v.556l.068.015-.068-.015v4.444z"/><path d="m55 46h6v-5h-1z" fill="#fff"/><path d="m52.074 29.424-5.634 2.065 6.23 2.974 5.819-2.064z"/><path d="m40.806 33.553-7.511 2.752 1.72 4.695 12.206-4.473z"/><path d="m59.428 32.055-1.721-4.695-5.633 2.064 6.415 2.975z" fill="#fff"/><path d="m17 13h-2c-1.131 0-2.162-.39-3-1.023v9.023l5.333-8z" fill="#5e4c2d"/><path d="m29 3h-19v2h19c2.761 0 5 2.239 5 5v-2c0-2.761-2.239-5-5-5z" fill="#5e4c2d"/><path d="m28 35.904-.862.472c-.747.41-1.584.624-2.436.624h-3.405c-.851 0-1.689-.214-2.436-.624l-.861-.472v2.096.904l.862.472c.747.41 1.584.624 2.436.624h3.405c.851 0 1.689-.214 2.436-.624l.861-.472v-.904z" fill="#fad3ac"/><path d="m31.789 40.842.211.158s-1 6-3 9l-6-4-6 4c-2-3-3-9-3-9l.211-.158-2.109.469c.548 2.602 1.74 7.457 3.582 10.759.287.514.947.677 1.436.351l5.88-3.921 5.88 3.92c.49.326 1.15.163 1.436-.351 1.842-3.302 3.034-8.157 3.582-10.759z" fill="#283545"/><path d="m46.44 31.489-5.634 2.064 6.415 2.974 5.634-2.064z" fill="#fff"/><path d="m35 46h26v15h-26z" fill="#fff"/><path d="m46 57 5-3-5-3z" fill="#46afda"/><path d="m61 61h-26v-15c1.831 6.713 7.378 11.761 14.233 12.954z" fill="#e3e3e3"/><path d="m35 46h26v1h-26z" fill="#c2c2c2"/><path d="m23 34c1.657 0 3-1.343 3-3h-6c0 1.657 1.343 3 3 3z" fill="#ffbb90"/><path d="m25.816 32c.112-.314.184-.647.184-1h-6c0 .353.072.686.184 1z" fill="#fff"/><ellipse cx="18" cy="24.5" fill="#5e4c2d" rx="1" ry="1.5"/><ellipse cx="28" cy="24.5" fill="#5e4c2d" rx="1" ry="1.5"/><circle cx="18.5" cy="24.5" fill="#fff" r=".5"/><circle cx="28.5" cy="24.5" fill="#fff" r=".5"/><path d="m17 13h-2c-1.131 0-2.162-.39-3-1.023v1c.838.633 1.869 1.023 3 1.023h1.667l.667-1z" fill="#59482b"/><path d="m9 56h2v5h-2z" fill="#283545"/><path d="m22 48h2v13h-2z" fill="#283545"/><g fill="#fff"><path d="m26 52c.552 0 1 .448 1 1 0 .552-.448 1-1 1-.552 0-1-.448-1-1 0-.552.448-1 1-1z"/><path d="m26 56c.552 0 1 .448 1 1 0 .552-.448 1-1 1-.552 0-1-.448-1-1 0-.552.448-1 1-1z"/></g></svg>