<svg id="Layer_1_1_" enable-background="new 0 0 64 64" height="512" viewBox="0 0 64 64" width="512" xmlns="http://www.w3.org/2000/svg"><path d="m43.5 23c1.381 0 2.5 1.119 2.5 2.5s-1.119 2.5-2.5 2.5h-1.5v-5z" fill="#fad3ac"/><path d="m20.5 23h1.5v5h-1.5c-1.381 0-2.5-1.119-2.5-2.5s1.119-2.5 2.5-2.5z" fill="#fad3ac"/><path d="m32 38c-1.802 0-3.499-.442-5-1.21v4.21l5 6 5-6v-4.21c-1.501.768-3.198 1.21-5 1.21z" fill="#fce0b9"/><path d="m44 38v4.496 16.504c0 1.105.895 2 2 2h15v-21h-15c-1.105 0-2-.895-2-2z" fill="#78af4f"/><g fill="#619c35"><path d="m8 7h-2c0 2.209 1.791 4 4 4h2c0-2.209-1.791-4-4-4z"/><path d="m7 17h-2c0 2.209 1.791 4 4 4h2c0-2.209-1.791-4-4-4z"/><path d="m17 12h-2c-2.209 0-4 1.791-4 4h2c2.209 0 4-1.791 4-4z"/></g><path d="m53.361 56.066 3.511-9.363c.388-1.034-.136-2.187-1.17-2.575s-2.187.136-2.575 1.17l-3.511 9.363 1.17 2.575zm2.809-7.491-3.745-1.404z" fill="#cf5300"/><path d="m44 38c0 1.105.895 2 2 2h15v-4h-15c-1.105 0-2 .895-2 2z" fill="#ebe0d1"/><path d="m32.628 5.015c6.993.329 12.372 6.352 12.372 13.352v4.633c0 1.105-.895 2-2 2v-2-4c-5.104 0-9.917-2.374-13.024-6.424l-1.976-2.576-1.735 5.205c-.755 2.266-2.876 3.795-5.265 3.795v4 2c-1.105 0-2-.895-2-2v-5c0-7.388 6.163-13.337 13.628-12.985z" fill="#331b0f"/><path d="m21 19v4 4c0 6.075 4.925 11 11 11s11-4.925 11-11v-4-4c-5.104 0-9.917-2.374-13.024-6.424l-1.976-2.576-1.735 5.205c-.755 2.266-2.876 3.795-5.265 3.795z" fill="#fce0b9"/><path d="m29.976 12.576-1.976-2.576-1.735 5.205c-.755 2.266-2.876 3.795-5.265 3.795 0-6.075 4.925-11 11-11s11 4.925 11 11c-5.104 0-9.917-2.374-13.024-6.424z" fill="#4d2817"/><path d="m32 38c1.802 0 3.499-.442 5-1.21v2c-1.501.768-3.198 1.21-5 1.21s-3.499-.442-5-1.21v-2c1.501.768 3.198 1.21 5 1.21z" fill="#fad3ac"/><path d="m44 59v-16.504-.463c-.436-.021-.788-.033-1-.033h-2s-1 6-3 9l-6-4-6 4c-2-3-3-9-3-9h-3c-2.761 0-5 2.239-5 5v8l-2-13h-9l3 19h39c-1.105 0-2-.895-2-2z" fill="#fff"/><path d="m9 26h6v13h-6z" fill="#71caf0"/><path d="m9 42v-3-4h-2 2 1c1.105 0 2-.895 2-2s-.895-2-2-2h-1-5c-.552 0-1 .448-1 1l1.309 10z" fill="#fce0b9"/><path d="m12 33c0 1.105.895 2 2 2h1 2c.552 0 1-.448 1-1v-2c0-.552-.448-1-1-1h-2-1c-1.105 0-2 .895-2 2z" fill="#fce0b9"/><path d="m41 42s-1 6-3 9l-.073-.049c-.01.015-.019.034-.029.049l-5.949-3.966s-.003.002-.003.002-5.966 3.931-5.976 3.916l-.072.048-.115-.355c-1.758-2.933-2.684-8.07-2.774-8.591-.005-.033-.009-.054-.009-.054h-1.595c.579 2.947 1.54 8.136 3.177 11.069.287.514.947.677 1.436.35l5.88-3.92 5.88 3.92c.49.326 1.15.163 1.436-.351 1.637-2.933 2.92-8.122 3.57-11.069h-1.784z" fill="#ededed"/><path d="m41 42-4-3v2l-5 6 6 4c2-3 3-9 3-9z" fill="#fff"/><path d="m27 39-4 3s1 6 3 9l6-4-5-6z" fill="#fff"/><path d="m49 59c-1.105 0-2-.895-2-2v-16.504-.496h-1c-1.105 0-2-.895-2-2v4.496 16.504c0 1.105.895 2 2 2h15v-2z" fill="#619c35"/><path d="m9 39v2.487 1.513c0 1.657 1.343 3 3 3s3-1.343 3-3v-4z" fill="#78af4f"/><path d="m12 44c-1.657 0-3-1.343-3-3v.487 1.513c0 1.657 1.343 3 3 3s3-1.343 3-3v-2c0 1.657-1.343 3-3 3z" fill="#619c35"/><path d="m44.412 14.432c1.578-1.284 2.588-3.239 2.588-5.432 0-3.866-3.134-7-7-7-2.458 0-4.616 1.269-5.865 3.186 4.932.834 8.85 4.528 10.277 9.246z" fill="#4d2817"/><path d="m10 11h2v15h-2z" fill="#78af4f"/><ellipse cx="27" cy="26.5" fill="#2b2210" rx="1" ry="1.5"/><ellipse cx="37" cy="26.5" fill="#2b2210" rx="1" ry="1.5"/><path d="m32 36c-2.068 0-3.75-1.682-3.75-3.75h1.5c0 1.241 1.009 2.25 2.25 2.25s2.25-1.009 2.25-2.25h1.5c0 2.068-1.682 3.75-3.75 3.75z" fill="#ff9575"/><circle cx="27.5" cy="26.5" fill="#fff" r=".5"/><circle cx="37.5" cy="26.5" fill="#fff" r=".5"/><path d="m17 20h-2c-2.209 0-4 1.791-4 4h2c2.209 0 4-1.791 4-4z" fill="#619c35"/></svg>