<svg id="Layer_1_1_" enable-background="new 0 0 64 64" height="512" viewBox="0 0 64 64" width="512" xmlns="http://www.w3.org/2000/svg"><path d="m11.5 28h1.5v-5h-1-.5c-1.381 0-2.5 1.119-2.5 2.5s1.119 2.5 2.5 2.5z" fill="#edc59b"/><path d="m33 28h1.5c1.381 0 2.5-1.119 2.5-2.5s-1.119-2.5-2.5-2.5h-.5-1z" fill="#edc59b"/><path d="m59.939 56.658-4-11-1.879.684 1.968 5.412-1.028 3.085-1-3.001v-4.838h-2v4.838l-1 3.001-1.028-3.085 1.968-5.412-1.879-.684-4 11c-.068.188-.079.391-.03.584l1 4c.087.35.355.625.703.721.087.025.177.037.266.037.262 0 .517-.103.707-.293l2.138-2.138 1.323 1.985c.186.279.498.446.832.446s.646-.167.832-.445l1.323-1.985 2.138 2.138c.19.189.445.292.707.292.089 0 .179-.012.267-.036.348-.096.616-.372.703-.721l1-4c.049-.194.038-.397-.031-.585z" fill="#ededed"/><path d="m37 44-3.52-.782-5.48-1.218v2 1c0 2.761-2.239 5-5 5s-5-2.239-5-5v-1-2l-5.48 1.218-3.52.782c-3.314 0-6 2.686-6 6v12h40v-12c0-3.314-2.686-6-6-6z" fill="#46afda"/><path d="m35 19h1v-2.072c0-5.379-3.313-10.203-8.333-12.133-3.004-1.155-6.33-1.155-9.333 0-5.021 1.931-8.334 6.754-8.334 12.133l1 6.072h1l4-11s14 6 19 7z" fill="#4c3d24"/><path d="m16 12-4 10v5c0 4.321 2.418 8.008 6 9.812 1.438.725 3.059 1.154 4.794 1.186 1.878.034 3.648-.407 5.206-1.204 3.56-1.821 6-5.52 6-9.794v-8.234c-5.64-1.469-18-6.766-18-6.766z" fill="#fad3ac"/><path d="m18 36.812v8.188c0 2.761 2.239 5 5 5s5-2.239 5-5v-8.206c-1.558.797-3.328 1.239-5.206 1.204-1.735-.032-3.356-.462-4.794-1.186z" fill="#fad3ac"/><path d="m26.988 47.988c.627-.836 1.012-1.863 1.012-2.988v-8.206c-1.558.797-3.328 1.239-5.206 1.204-1.735-.032-3.356-.462-4.794-1.186v2.188z" fill="#edc59b"/><path d="m37 44-3.52-.782-5.48-1.218v2l5.48 1.218 3.52.782c3.314 0 6 2.686 6 6v-2c0-3.314-2.686-6-6-6z" fill="#74bcda"/><path d="m18 46v1c0 2.761 2.239 5 5 5s5-2.239 5-5v-1-1c0 2.761-2.239 5-5 5s-5-2.239-5-5z" fill="#398fb3"/><path d="m9 46 3.52-.782 5.48-1.218v-2l-5.48 1.218-3.52.782c-3.314 0-6 2.686-6 6v2c0-3.314 2.686-6 6-6z" fill="#74bcda"/><path d="m40.095 51.064 4.237-11.227c.195-.517-.066-1.094-.583-1.289l-1.871-.706c-.517-.195-1.094.066-1.289.583l-4.237 11.227c-.195.517.066 1.094.583 1.289l1.871.706c.518.195 1.095-.066 1.289-.583z" fill="#606060"/><path d="m27.667 4.795c-3.004-1.155-6.33-1.155-9.333 0-5.021 1.931-8.334 6.754-8.334 12.133l.176.891c.739-4.5 3.804-8.351 8.157-10.025 3.004-1.155 6.33-1.155 9.333 0 4.73 1.819 7.941 6.206 8.298 11.205h.036v-2.072c0-5.378-3.313-10.201-8.333-12.132z" fill="#665230"/><path d="m50.26 50.96 1.679-4.618-.532-.194-1.435 3.947z" fill="#c7c7c7"/><path d="m56.028 50.095-1.435-3.947-.532.194 1.679 4.618z" fill="#c7c7c7"/><path d="m59.798 56.27-.829 3.314c-.087.35-.355.625-.703.721-.088.024-.178.036-.267.036-.262 0-.517-.103-.707-.293l-2.138-2.138-1.323 1.985c-.186.278-.498.445-.832.445s-.646-.167-.832-.445l-1.323-1.985-2.138 2.138c-.19.19-.445.293-.707.293-.089 0-.179-.012-.267-.036-.348-.096-.616-.372-.703-.721l-.829-3.314-.141.388c-.068.188-.079.391-.03.584l1 4c.087.35.355.625.703.721.089.025.179.037.268.037.262 0 .517-.103.707-.293l2.138-2.138 1.323 1.985c.186.279.498.446.832.446s.646-.167.832-.445l1.323-1.985 2.138 2.138c.19.189.445.292.707.292.089 0 .179-.012.267-.036.348-.096.616-.372.703-.721l1-4c.049-.193.038-.397-.03-.584z" fill="#c7c7c7"/><path d="m49 45h8v2h-8z" fill="#606060"/><path d="m57 43.333c0-2.209-1.791-4-4-4s-4 1.791-4 4v1.667h8z" fill="#ededed"/><path d="m11 55h2v7h-2z" fill="#398fb3"/><path d="m33 55h2v7h-2z" fill="#398fb3"/><g fill="#ededed"><path d="m55.877 3.578c-4.65-1.755-10.512 2.366-12.657 8.05s.239 10.779 4.89 12.534 9.806-.495 11.951-6.179.467-12.65-4.184-14.405zm2.435 10.539-2.806-1.059-.706 1.871 2.807 1.059-.707 1.871-2.806-1.059-.706 1.871 2.806 1.059-.705 1.871-2.807-1.059-.706 1.871-1.871-.706.706-1.871-1.871-.706-.706 1.871-1.871-.706.706-1.871-2.807-1.059.705-1.871 2.807 1.059.706-1.871-2.808-1.059.707-1.871 2.807 1.059.706-1.871-2.806-1.06.707-1.871 2.806 1.059.706-1.871 1.871.706-.706 1.871 1.872.706.706-1.871 1.871.706-.706 1.871 2.807 1.059z"/><path d="m49.934 15.677h2v2h-2z" transform="matrix(.353 -.936 .936 .353 17.351 58.445)"/><path d="m51.347 11.934h2v2h-2z" transform="matrix(.353 -.936 .936 .353 21.764 57.344)"/></g><path d="m60.996 18.336c1.117-2.959 1.294-6.346.485-9.293-.872-3.178-2.736-5.451-5.251-6.4-4.985-1.879-11.501 2.152-13.946 8.632-1.105 2.93-1.138 5.939-.092 8.475.898 2.176 2.529 3.904 4.647 4.949l-4.96 13.144 1.871.706 4.961-13.147c.842.227 1.695.344 2.543.344 1.449 0 2.882-.33 4.213-.986 2.46-1.213 4.424-3.494 5.529-6.424zm-12.533 4.89c-2.041-.771-3.611-2.276-4.422-4.239-.864-2.094-.825-4.517.114-7.006 1.72-4.555 5.86-7.803 9.466-7.803.658 0 1.299.108 1.902.336 1.9.717 3.331 2.513 4.029 5.058.699 2.548.543 5.485-.428 8.058-.939 2.489-2.51 4.333-4.542 5.335-1.902.939-4.077 1.031-6.119.261z" fill="#606060"/><path d="m61 25c-2.444 0-4.484 1.763-4.916 4.084-2.321.432-4.084 2.472-4.084 4.916v1h2v-1c0-1.654 1.346-3 3-3 .553 0 1-.448 1-1 0-1.654 1.346-3 3-3h1v-2z" fill="#46afda"/><path d="m48 35h2v2h-2z" fill="#46afda"/><ellipse cx="18" cy="25.5" fill="#2b2210" rx="1" ry="1.5"/><ellipse cx="28" cy="25.5" fill="#2b2210" rx="1" ry="1.5"/><path d="m23 35c-2.068 0-3.75-1.682-3.75-3.75h1.5c0 1.241 1.009 2.25 2.25 2.25s2.25-1.009 2.25-2.25h1.5c0 2.068-1.682 3.75-3.75 3.75z" fill="#c47c66"/><circle cx="18.5" cy="25.5" fill="#fff" r=".5"/><circle cx="28.5" cy="25.5" fill="#fff" r=".5"/></svg>