<svg id="Layer_1_1_" enable-background="new 0 0 64 64" height="512" viewBox="0 0 64 64" width="512" xmlns="http://www.w3.org/2000/svg"><path d="m19 47h-9v6l9.493 1.399z" fill="#fce0b9"/><path d="m19 47 1 15h5v-18.882c-3.232 1.159-6 2.504-6 3.882z" fill="#d0382a"/><path d="m31.037 41.026 8.963 7.84 8.946-7.955 2.054.899v20.19h-26v-19z" fill="#fff"/><path d="m36 54-11-.579-8-.421v9h26v-7z" fill="#fce0b9"/><path d="m14 50v-3-2c0-1.105-.895-2-2-2h-.893-6.107c-1.105 0-2 .895-2 2v5c0 1.105.895 2 2 2h7c1.105 0 2-.895 2-2z" fill="#826731"/><path d="m48.851 40.995c-2.219-.618-3.851-.995-3.851-.995v2c-2.761 2.761-7.239 2.761-10 0v-2s-1.688.39-3.963 1.027l8.963 7.839z" fill="#d0382a"/><path d="m17 52h-5-7c-1.105 0-2 .895-2 2v6c0 1.105.895 2 2 2h12v-9z" fill="#826731"/><path d="m46 17h-17v12.19c0 1.781.791 3.469 2.159 4.609l4.703 2.577c.747.41 1.584.624 2.436.624h3.405c.851 0 1.689-.214 2.436-.624l4.703-2.577c1.367-1.14 2.158-2.829 2.158-4.609v-8.19z" fill="#fce0b9"/><path d="m46 17h-17v3h17l5 4v-3z" fill="#fad3ac"/><path d="m44.138 36.376c-.747.41-1.584.624-2.436.624h-3.405c-.851 0-1.689-.214-2.436-.624l-.861-.472v6.096c2.761 2.761 7.239 2.761 10 0v-6.096z" fill="#fce0b9"/><path d="m45 35.904-.862.472c-.747.41-1.584.624-2.436.624h-3.405c-.851 0-1.689-.214-2.436-.624l-.861-.472v6.096c.158.158.323.304.491.444l9.509-6.158z" fill="#fad3ac"/><circle cx="21" cy="34" fill="#fff6e3" r="6"/><path d="m12 43h-.893-2.107c1.105 0 2 .895 2 2v2 3c0 1.105-.895 2-2 2h3c1.105 0 2-.895 2-2v-3-2c0-1.105-.895-2-2-2z" fill="#614d25"/><path d="m5 57c0-1.105.895-2 2-2h7 3v-2-1h-5-7c-1.105 0-2 .895-2 2v6c0 1.105.895 2 2 2z" fill="#614d25"/><path d="m11.107 43c.028-.42.06-.84.098-1.259l1.589-17.483c.137-1.504.206-3.015.206-4.526v-13.732c0-1.657-1.343-3-3-3h-2c-1.657 0-3 1.343-3 3v13.732c0 1.511.069 3.022.205 4.527l1.589 17.483c.039.418.072.838.099 1.258" fill="#d4ba85"/><path d="m10.86 3.14c.082.274.14.559.14.86v13.732c0 1.511-.069 3.022-.205 4.527l-1.59 17.482c-.038.419-2.478 1.259-2.478 1.259l.067.741c.039.419.072.839.099 1.259h4.214c.027-.42.06-.84.098-1.259l1.589-17.483c.137-1.504.206-3.015.206-4.526v-13.732c0-1.356-.905-2.488-2.14-2.86z" fill="#c4ac7b"/><path d="m51 41.81c4.541 1.381 10 3.254 10 5.19l-1 15h-17v-8l8-7z" fill="#b83125"/><path d="m17 60h26v2h-26z" fill="#fad3ac"/><path d="m46 12v5l5 4h1.5c.345 0 .674.07.973.196.377-1.267.527-2.806.527-4.196 0-7.732-6.268-14-14-14-3.81 0-7.257 1.53-9.782 4h10.782c2.761 0 5 2.239 5 5z" fill="#3d3d3d"/><path d="m46 17v-5c0-2.761-2.239-5-5-5h-14c-2.761 0-5 2.239-5 5s2.239 5 5 5h.438z" fill="#3d3d3d"/><path d="m27 15c-2.419 0-4.436-1.718-4.899-4-.066.323-.101.657-.101 1 0 2.761 2.239 5 5 5h.438 18.562v-2h-18.562z" fill="#333"/><path d="m46 17 4 3.2v-5.605c0-5.115-4.147-9.262-9.262-9.262h-8.463c-.041.027-.078.059-.118.087-.691.471-1.343.997-1.939 1.58h10.782c2.761 0 5 2.239 5 5z" fill="#242424"/><path d="m23 13c0-2.761 2.239-5 5-5h14c1.125 0 2.152.385 2.988 1.012-.913-1.215-2.352-2.012-3.988-2.012h-14c-2.761 0-5 2.239-5 5 0 1.636.797 3.075 2.012 3.988-.627-.836-1.012-1.863-1.012-2.988z" fill="#606060"/><path d="m51 21v5h1.5c1.381 0 2.5-1.119 2.5-2.5 0-1.036-.63-1.924-1.527-2.304-.299-.126-.628-.196-.973-.196z" fill="#fce0b9"/><path d="m21 39c-3.145 0-5.72-2.421-5.975-5.5-.013.165-.025.331-.025.5 0 3.314 2.686 6 6 6s6-2.686 6-6c0-.169-.012-.335-.025-.5-.255 3.079-2.83 5.5-5.975 5.5z" fill="#e8e0cf"/><path d="m51 47-8 7v6.19h.964c7.908 0 14.472-7.112 15.036-15-.083-.156-.169-.318-.252-.474-2.008-1.083-5.039-2.082-7.748-2.906z" fill="#d0382a"/><path d="m17 24c-.552 0-1-.448-1-1v-5c0-.552.448-1 1-1 .552 0 1 .448 1 1v5c0 .552-.448 1-1 1z" fill="#c4ac7b"/><path d="m17 15c-.552 0-1-.448-1-1 0-.552.448-1 1-1 .552 0 1 .448 1 1 0 .552-.448 1-1 1z" fill="#c4ac7b"/><g fill="#d0382a"><path d="m16.012 31.522c-.165-.119-.322-.244-.468-.375l1.328-1.495c.097.086.202.169.311.249z"/><path d="m21.565 32.984-.113-1.997c.312-.018.615-.053.909-.105l.348 1.97c-.374.065-.758.11-1.144.132zm-1.148-.001c-.386-.023-.771-.068-1.143-.134l.351-1.969c.294.052.598.088.909.106zm3.421-.406-.6-1.908c.29-.091.568-.2.827-.325l.867 1.802c-.344.167-.712.312-1.094.431zm-5.692-.005c-.383-.121-.752-.267-1.097-.435l.874-1.799c.257.125.534.234.824.326z"/><path d="m25.988 31.522-1.171-1.621c.109-.079.214-.162.311-.249l1.328 1.495c-.146.131-.303.256-.468.375z"/><path d="m25.128 38.348c-.097-.086-.202-.169-.311-.249l1.171-1.621c.165.119.322.244.468.375z"/><path d="m24.077 37.661c-.257-.125-.534-.234-.824-.326l.602-1.907c.383.121.752.267 1.097.435zm-6.143-.005-.867-1.802c.345-.167.713-.312 1.095-.431l.6 1.908c-.291.091-.569.2-.828.325zm4.441-.536c-.294-.052-.598-.088-.909-.106l.116-1.997c.386.023.771.068 1.143.134zm-2.736-.002-.348-1.97c.373-.066.757-.11 1.144-.132l.113 1.997c-.311.018-.615.053-.909.105z"/><path d="m16.872 38.348-1.328-1.495c.146-.13.303-.255.468-.375l1.171 1.621c-.109.079-.214.162-.311.249z"/></g><ellipse cx="32" cy="24.5" fill="#2b2210" rx="1" ry="1.5"/><ellipse cx="42" cy="24.5" fill="#2b2210" rx="1" ry="1.5"/><path d="m37 34c-2.068 0-3.75-1.682-3.75-3.75h1.5c0 1.241 1.009 2.25 2.25 2.25s2.25-1.009 2.25-2.25h1.5c0 2.068-1.682 3.75-3.75 3.75z" fill="#c47c66"/><circle cx="32.5" cy="24.5" fill="#fff" r=".5"/><circle cx="42.5" cy="24.5" fill="#fff" r=".5"/></svg>