<svg id="Layer_1_1_" enable-background="new 0 0 64 64" height="512" viewBox="0 0 64 64" width="512" xmlns="http://www.w3.org/2000/svg"><path d="m6 49v13h8v-19h-2c-3.314 0-6 2.686-6 6z" fill="#fce0b9"/><path d="m46 49v13h-8v-19h2c3.314 0 6 2.686 6 6z" fill="#fce0b9"/><path d="m33 43c0 3.092-1.657 5.947-4.341 7.481l-2.659 1.519-2.659-1.519c-2.684-1.534-4.341-4.389-4.341-7.481h-5v19h24v-19z" fill="#fff"/><path d="m16 3c-4.418 0-8 3.582-8 8v7.704c0 6.753-1.721 13.393-5 19.296l3.518-2.559c2.921-2.124 5.529-4.63 7.759-7.441l7.723-22.291c-1.465-1.661-3.61-2.709-6-2.709z" fill="#4d2817"/><path d="m22 5.709c-.53-.6-1.151-1.117-1.837-1.537-5.252.918-9.163 5.694-9.163 11.193v4.635 6c0 1.639.368 3.19 1.012 4.587.788-.834 1.553-1.689 2.266-2.587z" fill="#331b0f"/><path d="m26 5c-7.18 0-13 5.82-13 13v5h2v-1c0-.003 0-.007 0-.01 3.76-1.575 6.625-4.861 7.612-8.891 1.754 5.731 7.083 9.901 13.388 9.901h1 2v-5c0-7.18-5.82-13-13-13z" fill="#331b0f"/><path d="m26 11c-6.072 0-10.994 4.92-11 10.99 3.76-1.575 6.625-4.861 7.612-8.891 1.754 5.731 7.083 9.901 13.388 9.901h1c0-2.992-.946-5.758-2.545-8.034-2.018-2.422-5.056-3.966-8.455-3.966z" fill="#4d2817"/><path d="m31 36.794c-1.558.797-3.328 1.239-5.206 1.204-1.735-.032-3.356-.492-4.794-1.259v6.261h-2c0 3.092 1.657 5.947 4.341 7.481l2.659 1.519 2.659-1.519c2.684-1.534 4.341-4.389 4.341-7.481h-2z" fill="#fce0b9"/><path d="m14.5 23c-1.381 0-2.5 1.119-2.5 2.5s1.119 2.5 2.5 2.5h1.5v-5z" fill="#fad3ac"/><path d="m37.5 23h-1.5v5h1.5c1.381 0 2.5-1.119 2.5-2.5s-1.119-2.5-2.5-2.5z" fill="#fad3ac"/><path d="m26 5c-7.18 0-13 5.82-13 13v2c0-7.18 5.82-13 13-13s13 5.82 13 13v-2c0-7.18-5.82-13-13-13z" fill="#4d2817"/><path d="m33 43c0 3.092-1.657 5.947-4.341 7.481l-2.659 1.519-2.659-1.519c-2.684-1.534-4.341-4.389-4.341-7.481h-2.76c.205 4.094 2.455 7.826 6.038 9.873l3.722 2.127 3.722-2.127c3.583-2.047 5.833-5.779 6.038-9.873z" fill="#1a326e"/><path d="m26 58c-2.209 0-4 1.791-4 4h8c0-2.209-1.791-4-4-4z" fill="#1a326e"/><path d="m31 36.794c-1.558.797-3.328 1.239-5.206 1.204-1.735-.032-3.356-.492-4.794-1.259v4.261h4.5c1.381 0 2.5 1.119 2.5 2.5s1.119 2.5 2.5 2.5h1.944c.353-.947.556-1.957.556-3h-2z" fill="#fad3ac"/><path d="m22.613 13.099c-.988 4.03-3.852 7.317-7.612 8.891v.01 4.635c0 6.057 4.738 11.252 10.794 11.363 6.168.113 11.205-4.854 11.205-10.998v-4h-1c-6.305 0-11.634-4.17-13.387-9.901z" fill="#fce0b9"/><circle cx="50" cy="39" fill="#cf5300" r="12"/><path d="m50 48c-6.118 0-11.157-4.582-11.896-10.5-.062.492-.104.991-.104 1.5 0 6.627 5.373 12 12 12s12-5.373 12-12c0-.509-.042-1.008-.104-1.5-.739 5.918-5.778 10.5-11.896 10.5z" fill="#a64300"/><path d="m50 29c6.29 0 11.44 4.842 11.95 11 .027-.331.05-.662.05-1 0-6.627-5.373-12-12-12s-12 5.373-12 12c0 .338.023.669.05 1 .51-6.158 5.66-11 11.95-11z" fill="#f26100"/><path d="m57.635 24.936c-.358-.195-.723-.376-1.094-.542-.492-.221-.743-.769-.553-1.274.205-.544.827-.794 1.358-.557.426.191.846.398 1.256.622.51.278.689.924.381 1.417-.286.458-.874.591-1.348.334z" fill="#cf5300"/><path d="m44.012 23.121-.001-.003c-.199-.528.072-1.132.611-1.3 2.768-.862 5.749-1.044 8.604-.529.555.1.899.666.767 1.214l-.001.003c-.126.524-.642.836-1.172.742-2.507-.444-5.123-.285-7.553.464-.515.159-1.065-.087-1.255-.591z" fill="#cf5300"/><path d="m62 38h-5.898c.341-2.382 1.609-4.59 3.552-6.072l-1.213-1.59c-2.437 1.859-4.012 4.657-4.365 7.662h-3.076v-11h-2v11h-3.039c-.193-3.022-1.578-5.846-3.894-7.831l-.157-.134-1.301 1.519.156.134c1.872 1.604 3.005 3.875 3.195 6.312h-5.96v2h5.898c-.341 2.382-1.609 4.59-3.552 6.072l1.213 1.59c2.437-1.859 4.012-4.657 4.365-7.662h3.076v11h2v-11h3.039c.193 3.022 1.578 5.846 3.894 7.831l.157.134 1.301-1.519-.156-.134c-1.872-1.604-3.005-3.875-3.195-6.312h5.96z" fill="#5e2600"/><ellipse cx="32.5" cy="30.5" fill="#fcccc0" rx="1.5" ry=".5"/><ellipse cx="19.5" cy="30.5" fill="#fcccc0" rx="1.5" ry=".5"/><ellipse cx="21" cy="27.5" fill="#4d2817" rx="1" ry="1.5"/><ellipse cx="31" cy="27.5" fill="#4d2817" rx="1" ry="1.5"/><circle cx="21.5" cy="27.5" fill="#fff" r=".5"/><circle cx="31.5" cy="27.5" fill="#fff" r=".5"/><path d="m26 35c1.657 0 3-1.343 3-3h-6c0 1.657 1.343 3 3 3z" fill="#ff9575"/><path d="m28.816 33c.112-.314.184-.647.184-1h-6c0 .353.072.686.184 1z" fill="#fff"/></svg>