<svg id="Layer_1_1_" enable-background="new 0 0 64 64" height="512" viewBox="0 0 64 64" width="512" xmlns="http://www.w3.org/2000/svg"><path d="m46.998 44v-1.474c-1.061-.949-2.462-1.526-3.998-1.526h-2s-1 6-3 9l-6-4-6 4c-2-3-3-9-3-9h-3c-2.761 0-5 2.239-5 5v8l-2-13h-9l3 20h25 10.998c-1.427 0-2.395-1.452-1.846-2.769z" fill="#f2fbff"/><path d="m9 26h6v13h-6z" fill="#71caf0"/><path d="m44.5 25c1.381 0 2.5-1.119 2.5-2.5s-1.119-2.5-2.5-2.5h-1.5v5z" fill="#fad3ac"/><path d="m19.5 20c-1.381 0-2.5 1.119-2.5 2.5s1.119 2.5 2.5 2.5h1.5v-5z" fill="#fad3ac"/><path d="m41.095 12.785c-1.066-2.666-4.349-3.628-6.685-1.959-1.458 1.042-3.401 1.102-4.921.152l-.437-.273c-2.517-1.573-5.838-.273-6.619 2.59l-1.433 6.705v7h.05c.506 5.606 5.212 10 10.95 10s10.444-4.394 10.95-10h.05v-7z" fill="#fce0b9"/><path d="m60.844 58.231-2.298-5.597-3.544-8.634v-12h.5c.828 0 1.5-.672 1.5-1.5s-.672-1.5-1.5-1.5h-9.004c-.828 0-1.5.672-1.5 1.5s.672 1.5 1.5 1.5h.5v10.526 1.474l-5.846 14.231c-.549 1.317.419 2.769 1.846 2.769h1.002 14.998c1.427 0 2.395-1.452 1.846-2.769z" fill="#71caf0"/><path d="m29.052 10.705.437.273c1.52.95 3.462.89 4.921-.152 2.336-1.669 5.619-.707 6.685 1.959l1.905 7.215-.417-9.976c-.803-5.085-6.178-8.054-10.91-6.026l-4.673 2.002c-3.866 0-7 3.134-7 7l1 7 1.433-6.705c.781-2.863 4.102-4.163 6.619-2.59z" fill="#665642"/><circle cx="55" cy="20" fill="#fca947" r="2"/><circle cx="52" cy="9" fill="#fca947" r="2"/><path d="m51.434 52.623c-.577-.385-1.206-.669-1.86-.849-1.1-.303-2.273-.311-3.397-.004l-2.671.728-2.355 5.733c-.548 1.317.42 2.769 1.847 2.769h1.002 14.998c1.427 0 2.395-1.452 1.846-2.769l-2.298-5.597c-2.156 1.427-4.959 1.424-7.112-.011z" fill="#fca947"/><path d="m42.998 61h1.002 10.961l-.556-.219c-4.326-1.7-8.013-4.621-10.673-8.345l-.225.061-2.355 5.733c-.549 1.318.419 2.77 1.846 2.77z" fill="#e68f29"/><path d="m32 37c-1.801 0-3.5-.434-5-1.202v4.202l5 6 5-6v-4.202c-1.5.768-3.199 1.202-5 1.202z" fill="#fce0b9"/><path d="m27 7.646 4.673-2.003c4.732-2.028 10.107.941 10.91 6.026l.336 8.02.081.311-.417-9.976c-.803-5.085-6.178-8.054-10.91-6.026l-4.673 2.002c-3.866 0-7 3.134-7 7l.086.603c.505-3.37 3.404-5.957 6.914-5.957z" fill="#735f47"/><path d="m28.842 36.52 6.22 5.805 1.938-2.325v-4.202c-1.5.768-3.199 1.202-5 1.202-1.101 0-2.155-.179-3.158-.48z" fill="#fad3ac"/><path d="m46.998 34.333v5.333h1.335c1.473.001 2.667-1.193 2.667-2.666s-1.194-2.667-2.667-2.667z" fill="#60accc"/><path d="m50 37c0-1.105-.895-2-2-2h-1.002-1.998c-.552 0-1 .448-1 1v2c0 .552.448 1 1 1h1.998 1.002c1.105 0 2-.895 2-2z" fill="#fce0b9"/><path d="m55.002 35h-2.379c-1.381 0-2.5 1.119-2.5 2.5v5c0 1.381 1.119 2.5 2.5 2.5h2.505.285l-.411-1z" fill="#60accc"/><path d="m50.998 38v4c0 1.105.895 2 2 2h2.004 1.998c.552 0 1-.448 1-1v-6c0-.552-.448-1-1-1h-1.998-2.004c-1.105 0-2 .895-2 2z" fill="#fce0b9"/><path d="m41 41-4-3v2l-5 6 6 4c2-3 3-9 3-9z" fill="#f2fbff"/><path d="m27 38-4 3s1 6 3 9l6-4-5-6z" fill="#f2fbff"/><path d="m32 34c1.657 0 3-1.343 3-3h-6c0 1.657 1.343 3 3 3z" fill="#fab69b"/><path d="m9 39v2.487 1.513c0 1.657 1.343 3 3 3s3-1.343 3-3v-4z" fill="#78af4f"/><path d="m12 44c-1.657 0-3-1.343-3-3v.487 1.513c0 1.657 1.343 3 3 3s3-1.343 3-3v-2c0 1.657-1.343 3-3 3z" fill="#619c35"/><path d="m13.667 30.333c-.821 0-1.546.379-2.035.962-.339-.182-.721-.295-1.132-.295h-1.2-.3v8h.3v-3.2h1.2c.625 0 1.19-.245 1.617-.637.437.314.97.504 1.549.504h1.334v-5.333h-1.333z" fill="#60accc"/><path d="m9 41v-2-4h-2 2 1c1.105 0 2-.895 2-2s-.895-2-2-2h-1-5c-.552 0-1 .448-1 1l1.309 9z" fill="#fce0b9"/><path d="m12 33c0 1.105.895 2 2 2h1 2c.552 0 1-.448 1-1v-2c0-.552-.448-1-1-1h-2-1c-1.105 0-2 .895-2 2z" fill="#fce0b9"/><path d="m47 32h8.002v1h-8.002z" fill="#60accc"/><path d="m41 41s-1 6-3 9l-.073-.049c-.01.015-.019.034-.029.049l-5.949-3.966s-.003.002-.003.002-5.966 3.931-5.976 3.916l-.072.048-.115-.355c-1.758-2.933-2.684-8.07-2.774-8.591-.005-.033-.009-.054-.009-.054h-1.595c.579 2.947 1.54 8.136 3.177 11.069.287.514.947.677 1.436.35l4.982-3.32v11.901h2v-11.765l4.778 3.185c.49.326 1.15.163 1.436-.351 1.637-2.933 2.92-8.122 3.57-11.069z" fill="#dae2e6"/><path d="m21 56h2v5h-2z" fill="#dae2e6"/><ellipse cx="27" cy="23.5" fill="#2b2210" rx="1" ry="1.5"/><ellipse cx="37" cy="23.5" fill="#2b2210" rx="1" ry="1.5"/><circle cx="27.5" cy="23.5" fill="#fff" r=".5"/><circle cx="37.5" cy="23.5" fill="#fff" r=".5"/><path d="m32 23c0 2.209 1.791 4 4 4h5c1.105 0 2-.895 2-2v-5h-11z" fill="#cee6f0" opacity=".65"/><path d="m23 27h5c2.209 0 4-1.791 4-4v-3h-11v5c0 1.105.895 2 2 2z" fill="#cee6f0" opacity=".65"/><path d="m41 26h-5c-2.209 0-4-1.791-4-4v1c0 2.209 1.791 4 4 4h5c1.105 0 2-.895 2-2v-1c0 1.105-.895 2-2 2z" fill="#cee6f0" opacity=".65"/><path d="m28 26h-5c-1.105 0-2-.895-2-2v1c0 1.105.895 2 2 2h5c2.209 0 4-1.791 4-4v-1c0 2.209-1.791 4-4 4z" fill="#cee6f0" opacity=".65"/><g fill="#fff"><circle cx="52.5" cy="8.5" r=".5"/><circle cx="55.5" cy="19.5" r=".5"/><circle cx="56.5" cy="55.5" r=".5"/><circle cx="54" cy="56" r="1"/></g></svg>