<svg id="Layer_1_1_" enable-background="new 0 0 64 64" height="512" viewBox="0 0 64 64" width="512" xmlns="http://www.w3.org/2000/svg"><path d="m46 43-9-2v-5.21c-1.501.768-3.198 1.21-5 1.21s-3.499-.442-5-1.21v5.21l-9 2c-3.314 0-6 2.686-6 6v13h3 34 3v-13c0-3.314-2.686-6-6-6z" fill="#fce0b9"/><path d="m46 43-9-2v1.21l9 2c3.314 0 6 2.686 6 6v-1.21c0-3.314-2.686-6-6-6z" fill="#edc59b"/><path d="m51.475 31h-5.975c-2.209 0-4 1.791-4 4v1c0 2.209 1.791 4 4 4 1.381 0 2.5 1.119 2.5 2.5v7.5h9v-13.475c0-3.052-2.473-5.525-5.525-5.525z" fill="#d0382a"/><path d="m17 22.5c0 1.381 1.119 2.5 2.5 2.5h1.5v-5h-1.5c-1.381 0-2.5 1.119-2.5 2.5z" fill="#edc59b"/><path d="m3 52h9v-3-3h-9z" fill="#fff"/><path d="m4 52h8v10h-8z" fill="#fce0b9"/><path d="m41.095 12.785c-1.066-2.666-4.349-3.628-6.685-1.959-1.458 1.042-3.401 1.102-4.921.152l-.437-.273c-2.517-1.573-5.838-.273-6.619 2.59l-1.433 6.705v5 1c0 6.075 4.925 11 11 11s11-4.925 11-11v-1-5z" fill="#fce0b9"/><path d="m44.5 25c1.381 0 2.5-1.119 2.5-2.5s-1.119-2.5-2.5-2.5h-1.5v5z" fill="#edc59b"/><path d="m49 56h7v6h-7z" fill="#fce0b9"/><path d="m49 50h8v6h-8z" fill="#fff"/><path d="m29.052 10.705.437.273c1.52.95 3.462.89 4.921-.152 2.336-1.669 5.619-.707 6.685 1.959l1.905 7.215-.417-9.976c-.803-5.085-6.178-8.054-10.91-6.026l-4.673 2.002c-3.866 0-7 3.134-7 7l1 7 1.433-6.705c.781-2.863 4.102-4.163 6.619-2.59z" fill="#2b2210"/><path d="m15 27h-6.475c-3.052 0-5.525 2.473-5.525 5.525v13.475h9v-7.5c0-1.381 1.119-2.5 2.5-2.5h.5c2.209 0 4-1.791 4-4v-1c0-2.209-1.791-4-4-4z" fill="#d0382a"/><path d="m51 49v-7.5c0-1.381-1.119-2.5-2.5-2.5-2.209 0-4-1.791-4-4v-1c0-1.202.541-2.267 1.38-3h-.38c-2.209 0-4 1.791-4 4v1c0 2.209 1.791 4 4 4 1.381 0 2.5 1.119 2.5 2.5v7.5h9v-1z" fill="#b33024"/><path d="m52.5 42h-2c-.828 0-1.5-.672-1.5-1.5 0-.828.672-1.5 1.5-1.5h2c.828 0 1.5.672 1.5 1.5 0 .828-.672 1.5-1.5 1.5z" fill="#b33024"/><path d="m15 27h-3c2.209 0 4 1.791 4 4v1c0 2.209-1.791 3-4 3h-4.5c-2.509 0-2.509 4 0 4h1.5v7h3v-7.5c0-1.381 1.119-2.5 2.5-2.5h.5c2.209 0 4-1.791 4-4v-1c0-2.209-1.791-4-4-4z" fill="#b33024"/><path d="m27 8 4.673-2.003c4.732-2.028 10.107.941 10.91 6.026l.318 7.6.099.377-.417-9.976c-.803-5.085-6.178-8.054-10.91-6.026l-4.673 2.002c-3.866 0-7 3.134-7 7l.112.786c.576-3.286 3.437-5.786 6.888-5.786z" fill="#45361a"/><path d="m3 52h9v-3-3c-1.274 2.549-3.56 4.446-6.3 5.229z" fill="#e3e3e3"/><path d="m49 50v6h8l-1.757-.586c-2.717-.905-4.962-2.853-6.243-5.414z" fill="#e3e3e3"/><g fill="#edc59b"><path d="m48 50h1v12h-1z"/><path d="m13 50.21c0-3.314 2.686-6 6-6l9-2v-.214c0-2.276 1.964-3.972 4.234-3.813.253.018.508.027.766.027 1.414 0 2.759-.28 4-.768v-1.652c-1.501.768-3.198 1.21-5 1.21s-3.499-.442-5-1.21v5.21l-9 2c-3.314 0-6 2.686-6 6v13h1z"/><path d="m28.586 48.293-.707-.707c-.188-.188-.442-.293-.707-.293h-6.172c-.552 0-1-.448-1-1 0-.552.448-1 1-1h7c.265 0 .52.105.707.293l1.293 1.293c.39.39.39 1.024 0 1.414-.39.39-1.024.39-1.414 0z"/><path d="m34 48.293c-.39-.39-.39-1.024 0-1.414l1.293-1.293c.188-.188.442-.293.707-.293h7c.552 0 1 .448 1 1 0 .552-.448 1-1 1h-6.172c-.265 0-.52.105-.707.293l-.707.707c-.39.39-1.024.39-1.414 0z"/><path d="m19 54h2v8h-2z"/><path d="m43 54h2v8h-2z"/><path d="m31 56h2v6h-2z"/></g><ellipse cx="27" cy="23.5" fill="#2b2210" rx="1" ry="1.5"/><ellipse cx="37" cy="23.5" fill="#2b2210" rx="1" ry="1.5"/><path d="m32 33c-2.068 0-3.75-1.682-3.75-3.75h1.5c0 1.241 1.009 2.25 2.25 2.25s2.25-1.009 2.25-2.25h1.5c0 2.068-1.682 3.75-3.75 3.75z" fill="#c47c66"/><circle cx="27.5" cy="23.5" fill="#fff" r=".5"/><circle cx="37.5" cy="23.5" fill="#fff" r=".5"/></svg>