<svg id="Layer_1_1_" enable-background="new 0 0 64 64" height="512" viewBox="0 0 64 64" width="512" xmlns="http://www.w3.org/2000/svg"><path d="m21.298 37h3.405c.851 0 1.689-.214 2.436-.624l.861-.472 3.841-2.105c1.368-1.14 2.159-2.829 2.159-4.609v-8.19l-5-8h-12l-5 8v8.19c0 1.781.791 3.469 2.159 4.609l3.841 2.105.862.472c.747.41 1.584.624 2.436.624z" fill="#fad3ac"/><path d="m10.5 21c-1.381 0-2.5 1.119-2.5 2.5s1.119 2.5 2.5 2.5h1.5v-5z" fill="#edc59b"/><path d="m35.5 26c1.381 0 2.5-1.119 2.5-2.5s-1.119-2.5-2.5-2.5h-1.5v5z" fill="#edc59b"/><path d="m34 21v-8h-5z" fill="#c98f3e"/><path d="m28 42v-2-4.096l-.862.472c-.747.41-1.584.624-2.436.624h-3.405c-.851 0-1.689-.214-2.436-.624l-.861-.472v4.096 2c2.761 2.761 7.239 2.761 10 0z" fill="#fad3ac"/><path d="m28 40v2c-2.761 2.761-7.239 2.761-10 0v-2l-9 2v20h28v-20z" fill="#71caf0"/><path d="m9 48v-3-3c-3.314 0-6 2.686-6 6v14h6z" fill="#46afda"/><path d="m34 13v-5c0-2.761-2.239-5-5-5h-19v5c0 2.761 2.239 5 5 5h2 12z" fill="#91672c"/><g fill="#fff"><circle cx="16" cy="58" r="3"/><path d="m46 31-3.289-.791s-3.026 2.171-3.668 2.632c.113 1.489.522 2.895 1.169 4.158l.496.528 4.942.761 1.851-2.771z"/><path d="m59 25.684c-1.28-1.815-3.097-3.225-5.219-4.003l-3.781 2.837v3.482l4 3 3.38-.791 1.601-4.546"/><path d="m59.221 38 .215-.369-.003-.005c-.073.123-.134.254-.212.374z"/><path d="m57.38 30.209-3.38.791-1.518 4.518 1.96 2.771 4.942-.761.05.099c.824-1.379 1.37-2.943 1.521-4.627z"/><path d="m53.918 42.269c.166-1.26.524-3.979.524-3.979l-1.96-2.771h-4.982l-1.851 2.771s.366 2.778.529 4.015c1.192.441 2.476.695 3.822.695 1.411 0 2.76-.266 4-.75"/></g><path d="m61 32c0-2.353-.74-4.53-2-6.316l-.018-.021-1.601 4.546s2.831 2.032 3.58 2.569l-.006.222c.03-.329.045-.663.045-1z"/><path d="m41.08 25.58c-1.303 1.808-2.08 4.021-2.08 6.42 0 .284.021.563.042.842.643-.461 3.668-2.632 3.668-2.632z"/><path d="m46 31 4-3v-3.482s-3.392-2.544-3.782-2.836c-2.081.763-3.864 2.132-5.138 3.899l1.631 4.629z" fill="#fff"/><path d="m53.782 21.681c-1.181-.433-2.451-.681-3.782-.681s-2.601.248-3.782.681c.39.293 3.782 2.837 3.782 2.837z"/><path d="m47.5 35.518h4.982l1.518-4.518-4-3-4 3z"/><path d="m17 13h-2c-1.131 0-2.162-.39-3-1.023v9.023l5.091-8z" fill="#c98f3e"/><path d="m37 48v-3-3c3.314 0 6 2.686 6 6v14h-6z" fill="#46afda"/><path d="m28 40v2c-2.761 2.761-7.239 2.761-10 0v-2l-9 2v3h4.303c2.43 0 4.784.64 7.036 1.553 1.702.69 3.619.69 5.322 0 2.252-.913 4.606-1.553 7.036-1.553h4.303v-3z" fill="#9ad6f0"/><path d="m3 48v3c0-3.314 2.686-6 6-6v-3c-3.314 0-6 2.686-6 6z" fill="#71caf0"/><path d="m37 42v3c3.314 0 6 2.686 6 6v-3c0-3.314-2.686-6-6-6z" fill="#71caf0"/><path d="m59.436 37.632-.053-.104-4.942.761s-.358 2.719-.524 3.979c2.321-.885 4.26-2.531 5.519-4.636z"/><path d="m46.178 42.304c-.163-1.237-.529-4.015-.529-4.015l-4.942-.761-.095.185c1.279 2.095 3.233 3.725 5.566 4.591z"/><path d="m29 3h-19v2h19c2.761 0 5 2.239 5 5v-2c0-2.761-2.239-5-5-5z" fill="#a67632"/><path d="m27.462 42.486c.185-.151.365-.313.538-.486v-2-4.096l-.862.472c-.747.41-1.584.624-2.436.624h-3.405c-.851 0-1.689-.214-2.436-.624l-.861-.472v2.331c3.481.54 6.75 2.01 9.462 4.251z" fill="#edc59b"/><path d="m9 47h7v2h-7z" fill="#fff"/><path d="m9 50h7v2h-7z" fill="#fff"/><path d="m30 47h7v2h-7z" fill="#fff"/><path d="m30 50h7v2h-7z" fill="#fff"/><path d="m56.819 18.175c-.396-.156-.799-.297-1.207-.421-.501-.153-.808-.651-.685-1.16l.014-.059c.133-.548.701-.862 1.241-.698.468.142.929.304 1.384.483.524.207.774.807.536 1.319l-.025.055c-.22.474-.771.673-1.258.481z"/><path d="m43.061 18.07-.027-.052c-.255-.484-.066-1.098.432-1.326 1.662-.76 3.429-1.26 5.264-1.489 1.087-.136 2.183-.172 3.268-.111.546.031.945.534.883 1.077l-.007.059c-.059.521-.52.886-1.044.858-.947-.051-1.903-.016-2.853.102-1.615.201-3.169.638-4.632 1.302-.478.216-1.04.044-1.284-.42z"/><ellipse cx="18" cy="24.5" fill="#91672c" rx="1" ry="1.5"/><ellipse cx="28" cy="24.5" fill="#91672c" rx="1" ry="1.5"/><path d="m23 34c-2.068 0-3.75-1.682-3.75-3.75h1.5c0 1.241 1.009 2.25 2.25 2.25s2.25-1.009 2.25-2.25h1.5c0 2.068-1.682 3.75-3.75 3.75z" fill="#c47c66"/><circle cx="18.5" cy="24.5" fill="#fff" r=".5"/><circle cx="28.5" cy="24.5" fill="#fff" r=".5"/></svg>