<svg id="Layer_1_1_" enable-background="new 0 0 64 64" height="512" viewBox="0 0 64 64" width="512" xmlns="http://www.w3.org/2000/svg"><path d="m11.5 23c-1.381 0-2.5 1.119-2.5 2.5s1.119 2.5 2.5 2.5h1.5v-5z" fill="#fad3ac"/><path d="m34.5 23h-1.5v5h1.5c1.381 0 2.5-1.119 2.5-2.5s-1.119-2.5-2.5-2.5z" fill="#fad3ac"/><path d="m22.372 5.015c-6.993.329-12.372 6.352-12.372 13.352v4.633c0 1.105.895 2 2 2v-2-4c5.104 0 9.917-2.374 13.024-6.424l1.976-2.576 1.735 5.205c.755 2.266 2.876 3.795 5.265 3.795v4 2c1.105 0 2-.895 2-2v-5c0-7.388-6.163-13.337-13.628-12.985z" fill="#331b0f"/><path d="m28.735 15.205-1.735-5.205-1.976 2.576c-3.107 4.05-7.92 6.424-13.024 6.424v4 4c0 6.075 4.925 11 11 11s11-4.925 11-11v-4-4c-2.389 0-4.51-1.529-5.265-3.795z" fill="#fce0b9"/><path d="m28 40v2c-2.761 2.761-7.239 2.761-10 0v-2s-15 1.929-15 8v14h40v-14c0-6.071-15-8-15-8z" fill="#a31900"/><path d="m25.024 12.576 1.976-2.576 1.735 5.205c.755 2.266 2.876 3.795 5.265 3.795 0-6.075-4.925-11-11-11s-11 4.925-11 11c5.104 0 9.917-2.374 13.024-6.424z" fill="#4d2817"/><g fill="#fff"><circle cx="16" cy="55" r="3"/><path d="m46 32-3.289-.791s-3.026 2.171-3.668 2.632c.113 1.489.723 3.251 1.37 4.515l.295.171 4.942.761 1.851-2.771z"/><path d="m59 26.684c-1.28-1.815-3.097-3.225-5.219-4.003l-3.781 2.837v3.482l4 3 3.38-.791 1.601-4.546"/><path d="m59.221 39 .215-.369-.003-.005c-.073.123-.134.254-.212.374z"/><path d="m57.38 31.209-3.38.791-1.518 4.518 1.96 2.771 4.942-.761.05.099c.824-1.379 1.372-3.054 1.524-4.737z"/><path d="m53.918 43.269c.166-1.26.524-3.979.524-3.979l-1.96-2.771h-4.982l-1.851 2.771s.366 2.778.529 4.015c1.192.441 2.476.695 3.822.695 1.411 0 2.76-.266 4-.75"/></g><path d="m61 33c0-2.353-.74-4.53-2-6.316l-.018-.021-1.601 4.546s2.829 2.143 3.577 2.68c.03-.329.042-.552.042-.889z"/><path d="m41.08 26.58c-1.303 1.808-2.08 4.021-2.08 6.42 0 .284.021.563.042.842.643-.461 3.668-2.632 3.668-2.632z"/><path d="m46 32 4-3v-3.482s-3.392-2.544-3.782-2.836c-2.081.763-3.864 2.132-5.138 3.899l1.631 4.629z" fill="#fff"/><path d="m53.782 22.681c-1.181-.433-2.451-.681-3.782-.681s-2.601.248-3.782.681c.39.293 3.782 2.837 3.782 2.837z"/><path d="m47.5 36.518h4.982l1.518-4.518-4-3-4 3z"/><path d="m59.436 38.632-.053-.104-4.942.761s-.358 2.719-.524 3.979c2.321-.885 4.26-2.531 5.519-4.636z"/><path d="m46.178 43.304c-.163-1.237-.529-4.015-.529-4.015l-4.942-.761-.295-.171.201.356c1.278 2.095 3.232 3.725 5.565 4.591z"/><path d="m22.372 5.015c.312-.015.619-.003.927.004-1.412-1.252-3.264-2.019-5.299-2.019-4.418 0-8 3.582-8 8 0 1.133.248 2.204.674 3.18 1.642-5.064 6.157-8.904 11.698-9.165z" fill="#4d2817"/><path d="m18 43h1.268c-.45-.28-.877-.609-1.268-1v-2s-15 1.929-15 8v3c0-6.071 15-8 15-8z" fill="#821400"/><path d="m28 40v2c-.391.391-.818.72-1.268 1h1.268s15 1.929 15 8v-3c0-6.071-15-8-15-8z" fill="#821400"/><path d="m23 38c-1.802 0-3.499-.442-5-1.21v3.21 2c2.761 2.761 7.239 2.761 10 0v-2-3.21c-1.501.768-3.198 1.21-5 1.21z" fill="#fce0b9"/><path d="m23 38c-1.802 0-3.499-.442-5-1.21v2c1.501.768 3.198 1.21 5 1.21s3.499-.442 5-1.21v-2c-1.501.768-3.198 1.21-5 1.21z" fill="#fad3ac"/><ellipse cx="29.5" cy="29.5" fill="#fcccc0" rx="1.5" ry=".5"/><ellipse cx="16.5" cy="29.5" fill="#fcccc0" rx="1.5" ry=".5"/><ellipse cx="18" cy="26.5" fill="#5e4c2d" rx="1" ry="1.5"/><ellipse cx="28" cy="26.5" fill="#5e4c2d" rx="1" ry="1.5"/><circle cx="18.5" cy="26.5" fill="#fff" r=".5"/><circle cx="28.5" cy="26.5" fill="#fff" r=".5"/><path d="m23 34c1.657 0 3-1.343 3-3h-6c0 1.657 1.343 3 3 3z" fill="#ff9575"/><path d="m25.816 32c.112-.314.184-.647.184-1h-6c0 .353.072.686.184 1z" fill="#fff"/><path d="m8 53h2v9h-2z" fill="#821400"/><path d="m35 53h2v9h-2z" fill="#821400"/><path d="m9 46h7v2h-7z" fill="#fff"/><path d="m9 49h7v2h-7z" fill="#fff"/><path d="m30 46h7v2h-7z" fill="#fff"/><path d="m30 49h7v2h-7z" fill="#fff"/><path d="m56.653 19.159c-.393-.155-.793-.295-1.197-.418-.503-.154-.812-.655-.689-1.167l.011-.047c.133-.551.705-.868 1.248-.703.463.141.921.301 1.372.479.528.208.779.812.54 1.327l-.021.045c-.221.477-.775.677-1.264.484z"/><path d="m42.897 19.051-.022-.042c-.256-.487-.066-1.105.434-1.333 1.662-.759 3.427-1.258 5.259-1.486 1.084-.134 2.176-.171 3.26-.111.55.03.952.536.89 1.083l-.005.047c-.059.524-.523.891-1.05.863-.947-.05-1.902-.016-2.848.102-1.612.201-3.164.637-4.627 1.299-.48.217-1.045.045-1.291-.422z"/></svg>