<svg id="Layer_1_1_" enable-background="new 0 0 64 64" height="512" viewBox="0 0 64 64" width="512" xmlns="http://www.w3.org/2000/svg"><path d="m31 41h-18c-5.523 0-10 4.477-10 10v10h38v-10c0-5.523-4.477-10-10-10z" fill="#71caf0"/><path d="m31 41h-1.804-16.196c-5.523 0-10 4.477-10 10v3c0-5.523 4.477-10 10-10h15.301c-.195.997-.301 2.026-.301 3.081v.509c0 1.449.926 2.375 2.375 2.375h4.411v.126c0 2.125 1.684 3.846 3.789 3.929.053.002.102.016.156.016h1.196c.359 0 .716-.012 1.073-.034v-.002-3c0-5.523-4.477-10-10-10z" fill="#60accc"/><path d="m17 35.796v4.188c0 2.761 2.239 5 5 5s5-2.239 5-5v-4.206c-1.558.797-3.328 1.239-5.206 1.204-1.735-.031-3.356-.461-4.794-1.186z" fill="#fce0b9"/><path d="m11 17.985h-1.5c-1.381 0-2.5 1.119-2.5 2.5 0 1.381 1.119 2.5 2.5 2.5h1.5v-1z" fill="#fad3ac"/><path d="m49.719 34h-1.252-3.591c-6.559 0-11.876 5.317-11.876 11.875v.375c0 1.068.682 1.75 1.75 1.75h3.25v.093c0 1.566 1.241 2.834 2.792 2.895.039.002.076.012.115.012h.881c2.04 0 4.051-.482 5.87-1.407.44-.224.893-.411 1.351-.581 2.291-.853 4.784-1.05 7.194-.534l2.221.476c1.326.283 2.576-.728 2.576-2.084v-1.589c0-6.23-5.051-11.281-11.281-11.281z" fill="#fca697"/><path d="m37 20.485c0-1.381-1.119-2.5-2.5-2.5h-1.5v4 1h1.5c1.381 0 2.5-1.12 2.5-2.5z" fill="#fad3ac"/><path d="m33 13.985v-5.181c0-2.255-1.509-4.231-3.684-4.824-4.79-1.306-9.842-1.306-14.631 0-2.176.593-3.685 2.569-3.685 4.824v5.181s6-2 11-2 11 2 11 2z" fill="#71caf0"/><path d="m22 21.985c-2 0-8 2-8 2v9.548c.862.912 1.863 1.691 3 2.264 1.438.725 3.059 1.154 4.794 1.186 1.878.034 3.648-.407 5.206-1.204 1.129-.578 2.139-1.348 3-2.262v-9.532s-6-2-8-2z" fill="#489abd"/><path d="m22 11.985c-5 0-11 2-11 2v12c0 2.95 1.145 5.587 3 7.548v-9.548s6-2 8-2 8 2 8 2v9.532c1.855-1.969 3-4.614 3-7.532v-12s-6-2-11-2z" fill="#fce0b9"/><path d="m29.316 3.98c-4.79-1.306-9.842-1.306-14.631 0-2.176.593-3.685 2.569-3.685 4.824v3c0-2.255 1.509-4.231 3.684-4.824 4.79-1.306 9.842-1.306 14.631 0 2.176.593 3.685 2.569 3.685 4.824v-3c0-2.255-1.509-4.231-3.684-4.824z" fill="#66b6d9"/><path d="m17 35.796v1.34l9.244 5.463c.471-.763.756-1.653.756-2.614v-4.206c-1.558.797-3.328 1.239-5.206 1.204-1.735-.032-3.356-.462-4.794-1.187z" fill="#fad3ac"/><path d="m58.988 48.991c-.185.01-.373.003-.564-.038l-2.221-.476c-2.41-.516-4.903-.319-7.194.534.093.123 3.054 3.989 6.991 3.989 4 0 3-4 3-4z" fill="#d18a7d"/><path d="m51 51-1.989-1.989c-.001 0-.001 0-.002.001-.458.171-.912.358-1.351.581-1.752.891-3.684 1.36-5.648 1.394l-.01.013s0 3 2 4 4 1 4 2 0 5 0 5h4v-4.123c0-1.248-.123-2.493-.368-3.717z" fill="#d18a7d"/><path d="m58.988 48.991c-.185.01-.373.003-.564-.038l-2.221-.476c-2.41-.516-4.903-.319-7.194.534.025.033.267.345.674.776 2.102-.655 4.344-.776 6.52-.309l2.221.476c.234.05.463.047.685.022-.007-.561-.109-.976-.109-.976z" fill="#ba7b6f"/><path d="m49.009 49.011c-.458.171-.912.358-1.351.581-1.752.891-3.684 1.36-5.648 1.394l-.01.014s.001.413.102.982c1.932-.047 3.831-.511 5.556-1.389.44-.224.893-.411 1.351-.581.248-.092.5-.174.752-.25l-.75-.75c-.001-.001-.002-.001-.002-.001z" fill="#ba7b6f"/><path d="m49.719 34h-1.252-3.591c-6.559 0-11.876 5.317-11.876 11.875v.375c0 .083.011.16.02.238.206-6.378 5.427-11.488 11.855-11.488h3.591 1.252c6.231 0 11.282 5.051 11.282 11.281v-1c0-6.23-5.051-11.281-11.281-11.281z" fill="#ffbaad"/><ellipse cx="43.667" cy="36" fill="#fff" rx="1.667" ry="1"/><ellipse cx="47" cy="35.5" fill="#fff" rx="1" ry=".5"/><path d="m33 16.39-4.306 7.177c.781.243 1.306.418 1.306.418v1.292l3-5z" fill="#4594b5"/><path d="m14.104 23.95c.188-.062.639-.208 1.245-.397h.001l-4.35-7.974v4.176l3 5.5v-1.27s.037-.012.093-.031c.004-.001.006-.002.011-.004z" fill="#4594b5"/><g fill="#d18a7d"><path d="m51 44h-3c-1.654 0-3-1.346-3-3s1.346-3 3-3h.286c.394 0 .714-.32.714-.714v-.572c0-.017-.008-.174-.278-.475l1.489-1.336c.523.584.789 1.194.789 1.811v.572c0 1.496-1.218 2.714-2.714 2.714h-.286c-.551 0-1 .448-1 1s.449 1 1 1h3z"/><path d="m36 45.983h-2c0-2.188 1.78-3.969 3.969-3.969 1.085 0 1.969-.883 1.969-1.969v-2.531h2v2.531c0 2.188-1.78 3.969-3.969 3.969-1.086.001-1.969.883-1.969 1.969z"/><path d="m52.505 39.782-.006-2 .344-.001c.654 0 1.258-.443 1.41-1.03l1.937.498c-.377 1.468-1.784 2.532-3.343 2.532z"/><path d="m60 47.469c-2.188 0-3.969-1.78-3.969-3.969h2c0 1.086.883 1.969 1.969 1.969z"/><path d="m44 49h-2v-1.031c0-2.189 1.78-3.969 3.969-3.969h1.031v2h-1.031c-1.086 0-1.969.883-1.969 1.969z"/></g><path d="m33 53h2v8h-2z" fill="#60accc"/><path d="m9 53h2v8h-2z" fill="#60accc"/><ellipse cx="17" cy="21.5" fill="#2b2210" rx="1" ry="1.5"/><ellipse cx="27" cy="21.5" fill="#2b2210" rx="1" ry="1.5"/><circle cx="17.5" cy="21.5" fill="#fff" r=".5"/><circle cx="27.5" cy="21.5" fill="#fff" r=".5"/></svg>