<svg id="Layer_1_1_" enable-background="new 0 0 64 64" height="512" viewBox="0 0 64 64" width="512" xmlns="http://www.w3.org/2000/svg"><path d="m32.095 12.785c-1.066-2.666-4.349-3.628-6.685-1.959-1.458 1.042-3.401 1.102-4.921.152l-.437-.273c-2.517-1.573-5.838-.273-6.619 2.59l-1.433 6.705v5s.02 1.699.053 2.043l2.861 2.341c.728.596 1.51 1.088 2.321 1.499 1.536.779 3.194 1.206 4.869 1.324.596-.067 1.197-.067 1.793 0 1.675-.118 3.333-.546 4.869-1.324.811-.411 1.593-.904 2.321-1.499l2.861-2.341c.032-.344.052-2.043.052-2.043v-5z" fill="#fce0b9"/><path d="m20.052 10.705.437.273c1.52.95 3.462.89 4.921-.152 2.336-1.669 5.619-.707 6.685 1.959l1.905 7.215-.417-9.976c-.803-5.085-6.178-8.054-10.91-6.026l-4.673 2.002c-3.866 0-7 3.134-7 7l1 7 1.433-6.705c.781-2.863 4.102-4.163 6.619-2.59z" fill="#665642"/><path d="m37 43-3.52-.782-5.48-1.218v2c-2.761 2.761-7.239 2.761-10 0v-2l-5.48 1.218-3.52.782c-3.314 0-6 2.686-6 6v13h40v-13c0-3.314-2.686-6-6-6z" fill="#46afda"/><path d="m37 43-3.52-.782-5.48-1.218v2l5.48 1.218 3.52.782c3.314 0 6 2.686 6 6v-2c0-3.314-2.686-6-6-6z" fill="#74bcda"/><path d="m9 45 3.52-.782 5.48-1.218v-2l-5.48 1.218-3.52.782c-3.314 0-6 2.686-6 6v2c0-3.314 2.686-6 6-6z" fill="#74bcda"/><path d="m58.022 36.825-2.47-3.011c-1.567-1.91-3.615-3.413-5.978-4.135-1.221-.373-2.501-.601-3.819-.662-8.196-.377-15.113 5.416-16.502 13.129-.302 1.675.021 3.402.781 4.925l.106.213c2.112 4.229 7.297 5.882 11.467 3.658l4.913-2.62c.955-.509 2.061.355 1.797 1.405-.783 3.121-2.11 6.2-4.452 8.407-1.098 1.037-.359 2.866 1.135 2.866 9.087 0 16.405-7.576 15.983-16.756-.001-.018-.002-.037-.003-.055-.135-2.705-1.241-5.27-2.958-7.364z" fill="#fff"/><path d="m31.087 29.384c-.728.596-1.51 1.088-2.321 1.499-3.62 1.835-7.911 1.835-11.531 0-.811-.411-1.593-.904-2.321-1.499l-2.861-2.341c.526 5.586 5.224 9.957 10.947 9.957s10.421-4.371 10.947-9.957z" fill="#f5ce9e"/><path d="m10.5 20c-1.381 0-2.5 1.119-2.5 2.5s1.119 2.5 2.5 2.5h1.5v-5z" fill="#fad3ac"/><path d="m35.5 25c1.381 0 2.5-1.119 2.5-2.5s-1.119-2.5-2.5-2.5h-1.5v5z" fill="#fad3ac"/><circle cx="37" cy="44" fill="#653494" r="4"/><circle cx="45" cy="37" fill="#ffd503" r="3"/><path d="m23 37c-1.801 0-3.5-.434-5-1.202v7.202c2.761 2.761 7.239 2.761 10 0v-7.202c-1.5.768-3.199 1.202-5 1.202z" fill="#fce0b9"/><path d="m23 37c-1.801 0-3.5-.434-5-1.202v5.298 1.75l10-4.5v-2.548c-1.5.768-3.199 1.202-5 1.202z" fill="#fad3ac"/><path d="m18 7.646 4.673-2.003c4.732-2.028 10.107.941 10.91 6.026l.336 8.02.081.311-.417-9.976c-.803-5.085-6.178-8.054-10.91-6.026l-4.673 2.002c-3.866 0-7 3.134-7 7l.086.603c.505-3.37 3.404-5.957 6.914-5.957z" fill="#78654e"/><path d="m23 34c-4.284 0-7.994-2.45-9.809-6.025l-1.138-.931c.526 5.585 5.224 9.956 10.947 9.956s10.421-4.371 10.947-9.957l-1.138.931c-1.815 3.576-5.525 6.026-9.809 6.026z" fill="#544736"/><path d="m44.614 32.017c1.318.061 2.598.289 3.819.662 2.362.722 4.411 2.225 5.978 4.135l2.47 3.011c1.717 2.094 2.824 4.659 2.958 7.363.001.018.002.037.003.055.079 1.708-.112 3.359-.531 4.917 1.186-2.365 1.804-5.063 1.673-7.917-.001-.018-.002-.037-.003-.055-.135-2.704-1.241-5.27-2.958-7.363l-2.47-3.011c-1.567-1.91-3.615-3.413-5.978-4.135-1.221-.373-2.5-.601-3.819-.662-7.73-.356-14.317 4.779-16.207 11.834 2.731-5.455 8.482-9.136 15.065-8.834z" fill="#ebebeb"/><path d="m43.868 58.134c-.635.598-.644 1.452-.264 2.074 1.549-1.805 2.572-4.031 3.26-6.338-.75 1.589-1.718 3.059-2.996 4.264z" fill="#ebebeb"/><path d="m51.414 34.114c-.222 1.235.055 2.513.779 3.538.989 1.4 1.722 2.606 2.069 4.108.32 1.389.18 2.844-.25 4.203l-.012.034 6.132-8.487c1.82-2.637.666-6.436-2.414-7.318-.162-.047-.329-.085-.499-.116-1.22-.219-2.405.044-3.397.625-1.218.714-2.139 1.916-2.408 3.413z" fill="#ffd503"/><path d="m57.717 30.193c-.162-.047-.329-.085-.499-.116-1.22-.219-2.405.044-3.397.625-1.218.713-2.139 1.915-2.408 3.413-.222 1.235.055 2.513.779 3.538.109.154.201.299.304.448.91-.734 1.504-1.844 1.504-3.104 0-1.105.895-2 2-2s2 .895 2 2 .895 2 2 2h.441c1.357-2.592.162-5.978-2.724-6.804z" fill="#e0bb03"/><path d="m53.327 26.42-.327 4.58h8l-.327-4.58z" fill="#606060"/><path d="m59 3h-4l-1.673 23.42h7.346z" fill="#c29948"/><path d="m59 3h-4l-1.673 23.42c2.412-3.559 3.921-7.653 4.396-11.926z" fill="#a6833e"/><path d="m9 53h2v9h-2z" fill="#3c95ba"/><path d="m35 53h2v9h-2z" fill="#3c95ba"/><circle cx="52" cy="51" fill="#ffd503" r="1"/><ellipse cx="18" cy="23.5" fill="#2b2210" rx="1" ry="1.5"/><ellipse cx="28" cy="23.5" fill="#2b2210" rx="1" ry="1.5"/><path d="m23 33c-2.068 0-3.75-1.682-3.75-3.75h1.5c0 1.241 1.009 2.25 2.25 2.25s2.25-1.009 2.25-2.25h1.5c0 2.068-1.682 3.75-3.75 3.75z" fill="#c47c66"/><circle cx="18.5" cy="23.5" fill="#fff" r=".5"/><circle cx="28.5" cy="23.5" fill="#fff" r=".5"/><path d="m50 22h2v3h-2z" fill="#653494"/><path d="m47 20h3v2h-3z" fill="#653494"/><path d="m50 17h2v3h-2z" fill="#653494"/><path d="m52 20h3v2h-3z" fill="#653494"/><g fill="#ffd503"><path d="m40 12h2v3h-2z"/><path d="m37 10h3v2h-3z"/><path d="m40 7h2v3h-2z"/><path d="m42 10h3v2h-3z"/><path d="m50 10h2v2h-2z"/></g><path d="m39 21h2v2h-2z" fill="#653494"/><path d="m45 28h2v2h-2z" fill="#ffd503"/></svg>