<svg id="Layer_1_1_" enable-background="new 0 0 64 64" height="512" viewBox="0 0 64 64" width="512" xmlns="http://www.w3.org/2000/svg"><path d="m38 42-8-2v2c-2.761 2.761-7.239 2.761-10 0v-2l-9 2c-3.314 0-7 1.686-7 5l1 15h39l1-15c0-3.314-3.686-5-7-5z" fill="#1a326e"/><circle cx="18" cy="53" fill="#fff" r="3"/><path d="m40 4c-1.063 0-3.64.555-5.353 1.389-2.378-1.406-7.376-2.389-10.647-2.389-4.418 0-8 1.791-8 4-2.761 0-5 2.239-5 5s.239 9 3 9l9.207-5.859c1.635 1.166 3.631 1.859 5.793 1.859h4c1.045 0 2.053-.162 3-.459 4.057-1.274 7-5.063 7-9.541 0-1.657-1.343-3-3-3z" fill="#4c3d24"/><path d="m29 17c-2.162 0-4.158-.693-5.793-1.859l-9.207 5.859v8.19c0 1.781.791 3.469 2.159 4.609l3.841 2.105.862.472c.747.41 1.584.624 2.436.624h3.405c.851 0 1.689-.214 2.436-.624l.861-.472 3.841-2.105c1.368-1.14 2.159-2.829 2.159-4.609v-12.649c-.947.297-1.955.459-3 .459z" fill="#fad3ac"/><path d="m12.5 21c-1.381 0-2.5 1.119-2.5 2.5s1.119 2.5 2.5 2.5h1.5v-5z" fill="#edc59b"/><path d="m37.5 26c1.381 0 2.5-1.119 2.5-2.5s-1.119-2.5-2.5-2.5h-1.5v5z" fill="#edc59b"/><path d="m30 42v-2-4.096l-.862.472c-.747.41-1.584.624-2.436.624h-3.405c-.851 0-1.689-.214-2.436-.624l-.861-.472v4.096 2c2.761 2.761 7.239 2.761 10 0z" fill="#fad3ac"/><path d="m29.462 42.486c.185-.151.365-.313.538-.486v-2-4.096l-.862.472c-.747.41-1.584.624-2.436.624h-3.405c-.851 0-1.689-.214-2.436-.624l-.861-.472v2.331c3.481.54 6.75 2.01 9.462 4.251z" fill="#edc59b"/><path d="m33 17h-4c-2.162 0-4.158-.693-5.793-1.859l-9.207 5.859v2l9.207-5.859c1.635 1.166 3.631 1.859 5.793 1.859h4c1.045 0 2.053-.162 3-.459v-2c-.947.297-1.955.459-3 .459z" fill="#e6be97"/><path d="m44.786 45.702c-.416-1.241-1.415-2.173-2.675-2.791l-4.111 19.089h3l3-13z" fill="#142654"/><path d="m41.969 4.753c-.309 4.145-3.142 7.586-6.969 8.788-.947.297-1.955.459-3 .459h-4c-1.773 0-3.435-.466-4.878-1.278-.598-.336-1.329-.317-1.908.051l-7.36 4.683c-.822.523-1.949.345-2.483-.47-.004-.006-.008-.013-.012-.019.373 2.152 1.126 4.033 2.641 4.033l9.207-5.859c1.635 1.166 3.631 1.859 5.793 1.859h4c1.045 0 2.053-.162 3-.459 4.057-1.274 7-5.063 7-9.541 0-.899-.404-1.697-1.031-2.247z" fill="#3b2f1c"/><path d="m12 14c0-2.761 2.239-5 5-5 0-2.209 3.582-4 8-4 3.271 0 8.269.983 10.647 2.389 1.713-.834 4.29-1.389 5.353-1.389.76 0 1.447.292 1.976.758-.125-1.541-1.402-2.758-2.976-2.758-1.063 0-3.64.555-5.353 1.389-2.378-1.406-7.376-2.389-10.647-2.389-4.418 0-8 1.791-8 4-2.761 0-5 2.239-5 5 0 2.235.157 6.746 1.681 8.385-.598-2.042-.681-4.791-.681-6.385z" fill="#5e4c2d"/><path d="m57.195 15.019c-.791.078-1.672.195-2.606.363l6.373 5.904c.098-.942.147-1.829.165-2.622.05-2.215-1.727-3.862-3.932-3.645z" fill="#580f09"/><path d="m45.793 38.753c-.203-.051-.403-.121-.589-.231l-3.194-1.917c-.097-.058-.205-.078-.31-.113l-3.546-3.287c-.09.906-.136 1.758-.153 2.524-.049 2.215 1.728 3.862 3.933 3.645 1.627-.16 3.632-.482 5.707-1.097-.627.186-1.242.34-1.848.476z" fill="#580f09"/><path d="m51.582 16.087c-3.026.885-6.214 2.399-8.618 4.993-2.379 2.566-3.643 5.818-4.302 8.875l8.979 8.323c2.998-.889 6.145-2.397 8.524-4.964 2.403-2.593 3.669-5.885 4.322-8.969z" fill="#580f09"/><path d="m41.7 36.493-.124-.115c-1.707.011-3.09-1.096-3.464-2.693-.061.726-.097 1.416-.111 2.044-.037 1.695.998 3.049 2.472 3.498l-.13-.109c-.606-.505-.805-1.402-.365-2.056.395-.585 1.1-.774 1.722-.569z" fill="#380a06"/><path d="m59.844 23.749c-.746 2.326-1.894 4.638-3.68 6.565-3.071 3.314-7.422 4.868-11.08 5.594l2.55 2.364c.078-.023.153-.037.232-.061l.025-.022c1.454-.446 2.937-1.037 4.344-1.826.017-.01.034-.019.05-.029.304-.172.604-.356.9-.547.07-.046.141-.091.211-.138.245-.163.486-.336.724-.514.091-.068.184-.135.274-.205.225-.175.443-.361.659-.55.086-.075.175-.146.259-.224.293-.268.578-.547.852-.842.31-.335.598-.684.868-1.041.264-.343.506-.698.737-1.058l.005.002c1.391-2.159 2.216-4.575 2.705-6.878z" fill="#380a06"/><g fill="#fff"><path d="m42.01 36.606 3.194 1.917c.187.11.387.18.589.231.605-.136 1.221-.29 1.848-.476l-8.979-8.323c-.242 1.125-.406 2.224-.508 3.251l3.546 3.287c.104.034.212.054.31.113z"/><path d="m54.629 22.3-1.223-1.582-.741.573c-.49.379-.949.793-1.419 1.194l-1.636-1.516-1.359 1.467 1.491 1.382c-.388.367-.763.746-1.136 1.128l-1.442-1.336-1.359 1.467 1.442 1.336c-.353.401-.703.803-1.039 1.219l-1.491-1.382-1.359 1.467 1.636 1.516c-.364.499-.741.987-1.082 1.505l-.516.783 1.67 1.101.516-.783c.28-.425.593-.824.889-1.236l1.288 1.194 1.359-1.467-1.443-1.337c.335-.416.687-.818 1.039-1.219l1.491 1.382 1.359-1.467-1.491-1.382c.373-.381.746-.763 1.136-1.128l1.443 1.337 1.359-1.467-1.288-1.194c.388-.327.762-.669 1.165-.98z"/><path d="m51.579 16.089 8.908 8.256c.224-1.055.377-2.086.477-3.056l-6.374-5.907c-.96.172-1.976.404-3.011.707z"/></g><path d="m58.553 31.479-.782-.265c-.232.36-.474.714-.737 1.058-.271.358-.558.706-.868 1.041-2.314 2.497-5.351 3.979-8.273 4.875l-.072.066c-.718.654-1.779.763-2.615.268l-3.194-1.917c-.677-.406-1.57-.227-2.032.457-.441.654-.241 1.551.365 2.056l3.272 2.727c.876.732 1.383 1.816 1.383 2.958l-1 4.197-3 13h7.667l3.333-16 7.305-11.842c.175-.292.288-.612.335-.94.112-.761-.358-1.492-1.087-1.739z" fill="#fad3ac"/><path d="m10 52h2v10h-2z" fill="#142654"/><path d="m37 52h2v10h-2z" fill="#142654"/><ellipse cx="20" cy="24.5" fill="#2b2210" rx="1" ry="1.5"/><ellipse cx="30" cy="24.5" fill="#2b2210" rx="1" ry="1.5"/><path d="m25 34c-2.068 0-3.75-1.682-3.75-3.75h1.5c0 1.241 1.009 2.25 2.25 2.25s2.25-1.009 2.25-2.25h1.5c0 2.068-1.682 3.75-3.75 3.75z" fill="#c47c66"/><circle cx="20.5" cy="24.5" fill="#fff" r=".5"/><circle cx="30.5" cy="24.5" fill="#fff" r=".5"/></svg>