<svg id="Layer_1_1_" enable-background="new 0 0 64 64" height="512" viewBox="0 0 64 64" width="512" xmlns="http://www.w3.org/2000/svg"><path d="m23 49 5-6v-2-4.206c-1.558.797-3.328 1.239-5.206 1.204-1.735-.032-3.356-.462-4.794-1.186v4.188 2z" fill="#fad3ac"/><g fill="#edc59b"><path d="m28 43v-2-4.206c-1.558.797-3.328 1.239-5.206 1.204-1.735-.032-3.356-.462-4.794-1.186v4.188h2c1.657 0 3 1.343 3 3v5z"/><path d="m11.5 28h1.5v-5h-1-.5c-1.381 0-2.5 1.119-2.5 2.5s1.119 2.5 2.5 2.5z"/><path d="m33 28h1.5c1.381 0 2.5-1.119 2.5-2.5s-1.119-2.5-2.5-2.5h-.5-1z"/></g><path d="m35 56 2-13c3.314 0 6 2.686 6 6v12h-8z" fill="#fff"/><path d="m28 36.794v-.004.004c3.56-1.821 6-5.52 6-9.794v-4-2h-10c-4.418 0-8-3.582-8-8v4c0 2.209-1.791 4-4 4v2 4c0 4.321 2.418 8.008 6 9.812v-.022.022c1.438.725 3.059 1.154 4.794 1.186 1.878.034 3.648-.407 5.206-1.204z" fill="#fad3ac"/><path d="m23 49-4.865 3.243 4.865 8.757 4.865-8.757z" fill="#e8e8e8"/><path d="m11 56-2-13c-3.314 0-6 2.686-6 6v12h8z" fill="#fff"/><path d="m16 17v-4c0 4.418 3.582 8 8 8h10v-2l-.417-8.976c-.803-5.085-6.178-8.054-10.91-6.026l-4.673 2.002c-3.866 0-7 3.134-7 7l1 7v1c2.209 0 4-1.791 4-4z" fill="#2b2210"/><path d="m54 47c-3.866 0-7 3.134-7 7s3.134 7 7 7 7-3.134 7-7-3.134-7-7-7z"/><circle cx="55" cy="53" fill="#fff" r="3"/><path d="m41.786 60.198 1.214-3.672v-.16.16l1.554-4.698-4.454-1.492 4.454 1.492 15.446-46.705-2.832-.991-15.286 41.379-4.816 13.035zm16.562-50.355-2.832-.991z" fill="#c29948"/><ellipse cx="27" cy="8" fill="#332813" rx="2" ry="1"/><ellipse cx="30" cy="9.5" fill="#332813" rx="1" ry=".5"/><path d="m33.583 10.024c-.803-5.085-6.178-8.054-10.91-6.026l-4.673 2.002c-3.866 0-7 3.134-7 7l.197 1.377c.733-3.082 3.497-5.377 6.803-5.377l4.673-2.003c4.732-2.028 10.107.941 10.91 6.026l.37 7.977h.047v-2z" fill="#332813"/><path d="m23 61 10-18h4l-2 13v5z"/><path d="m23 61-10-18h-4l2 13v5z"/><ellipse cx="49.121" cy="52.397" fill="#1f1f1f" rx="2" ry="1" transform="matrix(.293 -.956 .956 .293 -15.355 84.039)"/><ellipse cx="51.433" cy="49.968" fill="#1f1f1f" rx="1" ry=".5" transform="matrix(.293 -.956 .956 .293 -11.396 84.531)"/><path d="m27 57h7v2h-7z" fill="#e8e8e8"/><path d="m18 41-5 2s2 7 4 10l1.135-.757 4.865-3.243-5-6z" fill="#fff"/><path d="m28 41v2l-5 6 4.865 3.243 1.135.757c2-3 4-10 4-10z" fill="#fff"/><path d="m55.933 7.847h2v3h-2z" fill="#45361a" transform="matrix(.33 -.944 .944 .33 29.303 59.996)"/><path d="m41.326 48.734h2v4.698h-2z" fill="#45361a" transform="matrix(.318 -.948 .948 .318 -19.555 74.992)"/><ellipse cx="18" cy="26.5" fill="#2b2210" rx="1" ry="1.5"/><ellipse cx="28" cy="26.5" fill="#2b2210" rx="1" ry="1.5"/><path d="m23 36c-2.068 0-3.75-1.682-3.75-3.75h1.5c0 1.241 1.009 2.25 2.25 2.25s2.25-1.009 2.25-2.25h1.5c0 2.068-1.682 3.75-3.75 3.75z" fill="#c47c66"/><circle cx="18.5" cy="26.5" fill="#fff" r=".5"/><circle cx="28.5" cy="26.5" fill="#fff" r=".5"/></svg>