<svg id="Layer_1_1_" enable-background="new 0 0 64 64" height="512" viewBox="0 0 64 64" width="512" xmlns="http://www.w3.org/2000/svg"><circle cx="56" cy="52" fill="#c9f364" r="5"/><path d="m14 43v19h24v-19h-5v1c0 3.866-3.134 7-7 7-3.866 0-7-3.134-7-7v-1z" fill="#71caf0"/><path d="m14 54h24v8h-24z" fill="#46afda"/><path d="m46 49v13h-8v-19h2c3.314 0 6 2.686 6 6z" fill="#fce0b9"/><path d="m6 49v13h8v-19h-2c-3.314 0-6 2.686-6 6z" fill="#fce0b9"/><path d="m16 3c-4.418 0-8 3.582-8 8v7.704c0 6.753-1.721 13.393-5 19.296l3.518-2.559c2.921-2.124 5.529-4.63 7.759-7.441l7.723-22.291c-1.465-1.661-3.61-2.709-6-2.709z" fill="#904c2a"/><path d="m22 5.709c-.53-.6-1.151-1.117-1.837-1.537-5.252.918-9.163 5.694-9.163 11.193v4.635 6c0 1.639.368 3.19 1.012 4.587.788-.834 1.553-1.689 2.266-2.587z" fill="#733d21"/><path d="m25.794 5.002c-6.056.111-10.794 5.306-10.794 11.363v4.635h8.096c2.294 0 4.294-1.562 4.851-3.787.816-1.674 3.214-1.639 3.981.059l.315.699c.445 1.781 2.045 3.03 3.881 3.03h.876v-5c0-6.145-5.037-11.112-11.206-10.999z" fill="#904c2a"/><path d="m25.794 5.002c-6.056.111-10.794 5.306-10.794 11.363v2c0-6.057 4.738-11.252 10.794-11.363 6.169-.113 11.206 4.854 11.206 10.998v-2c0-6.144-5.037-11.111-11.206-10.998z" fill="#ab5a32"/><path d="m31 36.79c-1.501.768-3.198 1.21-5 1.21s-3.499-.442-5-1.21v6.21h-2v1c0 3.866 3.134 7 7 7s7-3.134 7-7v-1h-2z" fill="#fce0b9"/><path d="m39 13c0-.552-.448-1-1-1h-24c-.552 0-1 .448-1 1v4h26z" fill="#71caf0"/><path d="m14.5 23c-1.381 0-2.5 1.119-2.5 2.5s1.119 2.5 2.5 2.5h1.5v-5z" fill="#fad3ac"/><path d="m56 55c-2.419 0-4.436-1.718-4.899-4-.066.323-.101.657-.101 1 0 2.761 2.239 5 5 5s5-2.239 5-5c0-.343-.035-.677-.101-1-.463 2.282-2.48 4-4.899 4z" fill="#add156"/><path d="m26 38c-1.802 0-3.499-.442-5-1.21v3c1.501.768 3.198 1.21 5 1.21s3.499-.442 5-1.21v-3c-1.501.768-3.198 1.21-5 1.21z" fill="#fad3ac"/><path d="m37.5 28c1.381 0 2.5-1.119 2.5-2.5s-1.119-2.5-2.5-2.5h-1.5v5z" fill="#fad3ac"/><path d="m19 23c-1.539 0-2.938-.584-4-1.537v5.537c0 6.075 4.925 11 11 11s11-4.925 11-11v-5.537c-1.062.953-2.461 1.537-4 1.537z" fill="#fce0b9"/><path d="m37 21.463c-1.062.953-2.461 1.537-4 1.537h-14c-1.539 0-2.938-.584-4-1.537v2.933.067c1.062.953 2.461 1.537 4 1.537h14c1.539 0 2.938-.584 4-1.537v-.02z" fill="#fad3ac"/><ellipse cx="32.5" cy="30.5" fill="#fcccc0" rx="1.5" ry=".5"/><ellipse cx="19.5" cy="30.5" fill="#fcccc0" rx="1.5" ry=".5"/><ellipse cx="21" cy="27.5" fill="#5e4c2d" rx="1" ry="1.5"/><ellipse cx="31" cy="27.5" fill="#5e4c2d" rx="1" ry="1.5"/><circle cx="21.5" cy="27.5" fill="#fff" r=".5"/><circle cx="31.5" cy="27.5" fill="#fff" r=".5"/><path d="m26 35c1.657 0 3-1.343 3-3h-6c0 1.657 1.343 3 3 3z" fill="#ff9575"/><path d="m28.816 33c.112-.314.184-.647.184-1h-6c0 .353.072.686.184 1z" fill="#fff"/><path d="m33 23c1.539 0 2.938-.584 4-1.537v-.02.02c1.225-1.099 2-2.688 2-4.463h-26c0 1.775.775 3.365 2 4.463v-.067.067c1.062.953 2.461 1.537 4 1.537z" fill="#fff"/><path d="m32 12h3v5h-3z" fill="#fff"/><path d="m54.887 61.937c-1.517-.171-2.981-.688-4.267-1.508-.503-.321-.613-1.013-.238-1.477.316-.391.876-.488 1.299-.216 1.042.672 2.21 1.085 3.445 1.217.5.053.874.482.874.985 0 .597-.521 1.066-1.113.999z" fill="#add156"/><g fill="#606060"><path d="m45.547 28.403 1.842.779.792-1.836-1.841-.78z"/><path d="m49.231 29.962 1.841.78.792-1.837-1.841-.78z"/><path d="m47.95 22.832-.818 1.898 1.841.779.813-1.885z"/><path d="m50.815 26.289 1.842.78.802-1.861-1.836-.792z"/><path d="m53.931 14.014c-6.487-2.796-13.211.333-16.352 7.611-1.425 3.303-1.552 6.911-.822 10.089l-.037.01 1.356 5.229c.916 3.531.625 7.32-.82 10.67l-4.357 10.1c-.219.507.015 1.096.522 1.314l2.755 1.188c.507.219 1.096-.015 1.314-.522l4.357-10.101-.006-.003.007.003.278-.644c1.289-2.99 3.435-5.532 6.166-7.305l4.632-3.006-.029-.044c2.999-1.79 5.422-4.462 6.722-7.474 3.14-7.278.802-14.316-5.686-17.115zm-14.838 34.401c1.329-3.082 1.772-6.494 1.326-9.807.692.662 1.441 1.199 2.238 1.543.938.405 2.015.604 3.17.604.096 0 .199-.018.296-.021-2.554 1.927-4.558 4.472-5.834 7.429l-.279.648m17.122-22.019-1.836-.792-.797 1.849 1.835.777-.779 1.842-1.848-.783-.792 1.837 1.835.777-.78 1.841-1.848-.782-.787 1.824-1.837-.792.782-1.812-1.841-.78-.776 1.799-1.837-.792.771-1.787-1.841-.78-.765 1.775-1.837-.792.76-1.763-3.611-1.529.779-1.842 3.624 1.534.792-1.837-3.611-1.529.779-1.842 3.624 1.534.824-1.91-3.673-1.584.792-1.837 3.673 1.584.792-1.836 1.837.792-.792 1.836 1.836.792.792-1.836 1.837.792-.792 1.837 1.836.792.792-1.836 1.837.792-.792 1.836 1.836.792z"/></g></svg>