<svg id="Layer_1_1_" enable-background="new 0 0 64 64" height="512" viewBox="0 0 64 64" width="512" xmlns="http://www.w3.org/2000/svg"><path d="m47 38c-2.209 0-4-1.791-4-4v-14.548c0-8.615-6.621-16.028-15.227-16.434-9.188-.432-16.773 6.889-16.773 15.982v17c0 1.105-.895 2-2 2-3.275 0-5.981 2.63-6 5.905-.018 3.194.881 5.822 4 6.07v2.025c0 2.209 1.791 4 4 4h4.748c3.285 0 6.15-2.532 6.249-5.815.102-3.398-2.622-6.185-5.997-6.185h6v-12h10v12h4 5c3.314 0 6 2.686 6 6v5c2.209 0 4-1.791 4-4v-9c0-2.209-1.791-4-4-4z" fill="#4c3d24"/><path d="m37.123 21c-1.835 0-3.435-1.249-3.881-3.03l-2.242-7.97-2.053 7.213c-.557 2.225-2.557 3.787-4.851 3.787h-8.096v6c0 6.075 4.925 11 11 11s11-4.925 11-11v-6z" fill="#fce0b9"/><path d="m21.991 49.891c.003.098.009.195.006.294-.077 2.568-1.849 4.67-4.188 5.467-.556.222-1.161.348-1.809.348h-.252-1.748-3c-2.209 0-4-1.791-4-4v9h28v-12l-8 3z" fill="#e18080"/><path d="m41 44h-5-4v-7.21c-1.501.768-3.198 1.21-5 1.21s-3.499-.442-5-1.21v7.21h-6c3.277 0 5.932 2.628 5.991 5.891l5.009 2.109 17.677-6.734c-1.016-.791-2.29-1.266-3.677-1.266z" fill="#fce0b9"/><path d="m9 40c1.105 0 2-.895 2-2v-2c0 1.105-.895 2-2 2-3.275 0-5.981 2.63-6 5.905-.003.44.017.865.053 1.279.378-2.931 2.917-5.184 5.947-5.184z" fill="#6b5633"/><path d="m27.773 5.018c8.606.405 15.227 7.819 15.227 16.434v-2c0-8.615-6.621-16.028-15.227-16.434-9.188-.432-16.773 6.889-16.773 15.982v2c0-9.093 7.585-16.414 16.773-15.982z" fill="#6b5633"/><path d="m37.123 21c-1.835 0-3.435-1.249-3.881-3.03l-2.242-7.97-2.053 7.213c-.557 2.225-2.557 3.787-4.851 3.787h-8.096v3h8.096c2.294 0 4.294-1.562 4.851-3.787l2.053-7.213 2.243 7.97c.445 1.781 2.045 3.03 3.881 3.03h.876v-3z" fill="#fad3ac"/><path d="m9.871 55.819c-.132-.039-.268-.07-.395-.122-.156-.064-.299-.151-.445-.234-.07-.04-.146-.072-.214-.116-.177-.116-.339-.251-.495-.393-.025-.023-.053-.041-.078-.064-.715-.682-1.167-1.624-1.224-2.676-.006-.006-.012-.014-.02-.02v5.242c.732.57 1.641.924 2.641.924h3.24 4.048c3.548 0 6.641-2.734 6.748-6.28.016-.531-.038-1.045-.144-1.54l-1.541-.649c.003.098.009.195.006.294-.009.287-.046.566-.095.841-.011.06-.022.121-.034.18-.057.268-.129.53-.223.783-.01.026-.022.05-.032.076-.093.241-.203.474-.327.699-.019.035-.037.072-.058.107-.139.242-.294.473-.465.693-.013.017-.028.033-.041.05-.365.458-.796.863-1.278 1.204-.005.003-.009.006-.014.01-.635.446-1.354.779-2.126.973-.267.075-.543.125-.829.153-.077.009-.153.016-.231.022-.082.004-.16.024-.245.024h-.252-1.748-3c-.271 0-.535-.028-.791-.08-.117-.023-.225-.068-.338-.101z" fill="#cf7676"/><path d="m32 40.689v-3.9c-1.501.769-3.198 1.211-5 1.211s-3.499-.442-5-1.21v7.21h-6c3.277 0 5.932 2.628 5.991 5.891l4.009 1.688v-4.466c0-3.391 2.629-6.191 6-6.424z" fill="#fad3ac"/><path d="m49 46 5-5h-6l-5 5z" fill="#fff"/><path d="m55 46 5-5h-6l-5 5z"/><path d="m43 46 5-5h-12.985-.015v.556l.068.015-.068-.015v4.444z"/><path d="m55 46h6v-5h-1z" fill="#fff"/><path d="m52.074 29.424-5.634 2.065 6.23 2.974 5.819-2.064z"/><path d="m40.806 33.553-7.511 2.752 1.72 4.695 12.206-4.473z"/><g fill="#fff"><path d="m59.428 32.055-1.721-4.695-5.633 2.064 6.415 2.975z"/><path d="m46.44 31.489-5.634 2.064 6.415 2.974 5.634-2.064z"/><path d="m35 46h26v15h-26z"/></g><path d="m46 57 5-3-5-3z" fill="#46afda"/><path d="m61 61h-26v-15c1.831 6.713 7.378 11.761 14.233 12.954z" fill="#e3e3e3"/><path d="m35 46h26v1h-26z" fill="#c2c2c2"/><ellipse cx="22" cy="27.5" fill="#5e4c2d" rx="1" ry="1.5"/><ellipse cx="32" cy="27.5" fill="#5e4c2d" rx="1" ry="1.5"/><circle cx="22.5" cy="27.5" fill="#fff" r=".5"/><circle cx="32.5" cy="27.5" fill="#fff" r=".5"/><path d="m27 35c1.657 0 3-1.343 3-3h-6c0 1.657 1.343 3 3 3z" fill="#ff9575"/><path d="m29.816 33c.112-.314.184-.647.184-1h-6c0 .353.072.686.184 1z" fill="#fff"/></svg>