<svg id="Layer_1_1_" enable-background="new 0 0 64 64" height="512" viewBox="0 0 64 64" width="512" xmlns="http://www.w3.org/2000/svg"><path d="m37 45h-2c0 3.64-2.169 6.93-5.515 8.364l-1.485.636-5-6v14h16v-16.651c-.626-.222-1.298-.349-2-.349z" fill="#f5ee6c"/><path d="m18 54-1.485-.636c-3.346-1.434-5.515-4.724-5.515-8.364h-2c-3.314 0-6 2.686-6 6v11h20v-14z" fill="#f5ee6c"/><path d="m16.515 53.364 1.485.636 5-6h-4c-1.657 0-3-1.343-3-3h-5c0 3.64 2.169 6.93 5.515 8.364z" fill="#fca947"/><path d="m27 48h-4l5 6 1.485-.636c3.346-1.434 5.515-4.724 5.515-8.364h-5c0 1.657-1.343 3-3 3z" fill="#fca947"/><path d="m33.123 21c-1.835 0-3.435-1.249-3.881-3.03l-2.242-7.97-2.053 7.213c-.557 2.225-2.557 3.787-4.851 3.787h-8.096v6c0 6.075 4.925 11 11 11s11-4.925 11-11v-6z" fill="#fce0b9"/><path d="m21 26c0-1.105-.895-2-2-2h-4c-1.105 0-2 .895-2 2s.895 2 2 2h4c1.105 0 2-.895 2-2zm-3 1c-.552 0-1-.448-1-1s.448-1 1-1 1 .448 1 1-.448 1-1 1z" fill="#cee6f0"/><path d="m27 28h4c1.105 0 2-.895 2-2s-.895-2-2-2h-4c-1.105 0-2 .895-2 2s.895 2 2 2zm1-3c.552 0 1 .448 1 1s-.448 1-1 1-1-.448-1-1 .448-1 1-1z" fill="#cee6f0"/><circle cx="18" cy="26" fill="#332813" r="1"/><circle cx="28" cy="26" fill="#332813" r="1"/><path d="m60 3h-18c-.552 0-1 .448-1 1v14c0 .552.448 1 1 1h4.6l-.6 4 4.5-4h9.5c.552 0 1-.448 1-1v-14c0-.552-.448-1-1-1z" fill="#71caf0"/><path d="m12 37h6 .437c-3.795-1.735-6.437-5.555-6.437-10v-6h8.096c2.294 0 4.294-1.562 4.851-3.787l2.053-7.213 2.243 7.97c.445 1.781 2.045 3.03 3.881 3.03h.876v6c0 4.445-2.642 8.265-6.437 10h.437 6c2.761 0 5-2.239 5-5v-13c0-9.093-7.585-16.414-16.773-15.982-8.606.405-15.227 7.819-15.227 16.434v12.548c0 2.761 2.239 5 5 5z" fill="#332813"/><path d="m28 36.79c-1.501.768-3.198 1.21-5 1.21s-3.499-.442-5-1.21v8.21h-2c0 1.657 1.343 3 3 3h4 4c1.657 0 3-1.343 3-3h-2z" fill="#fce0b9"/><path d="m39 35v8.341 18.659h22v-27z" fill="#878787"/><path d="m39 35v8.341 18.659h22c-10.907-2.424-19.3-12.149-21.298-23.142z" fill="#737373"/><path d="m33.123 21c-1.835 0-3.435-1.249-3.881-3.03l-2.242-7.97-2.053 7.213c-.557 2.225-2.557 3.787-4.851 3.787h-8.096v2h8.096c2.294 0 4.294-1.562 4.851-3.787l2.053-7.213 2.243 7.97c.445 1.781 2.045 3.03 3.881 3.03h.876v-2z" fill="#fad3ac"/><path d="m28 36.79c-1.501.768-3.198 1.21-5 1.21s-3.499-.442-5-1.21v3.29l10.127 7.697c1.098-.446 1.873-1.519 1.873-2.777h-2z" fill="#fad3ac"/><path d="m12 27v3c0 2.664-.577 5.099 1 7h5 .437c-3.795-1.735-6.437-5.555-6.437-10z" fill="#211a0c"/><path d="m22.227 3.018c-8.606.405-15.227 7.819-15.227 16.434v3c0-8.615 6.621-16.028 15.227-16.434 9.188-.432 16.773 6.889 16.773 15.982v-3c0-9.093-7.585-16.414-16.773-15.982z" fill="#47381b"/><path d="m34 27c0 4.445-2.642 8.265-6.437 10h.437 5c1.577-1.901 1-4.336 1-7z" fill="#211a0c"/><path d="m23 48-5 6-1.485-.636c-3.346-1.434-5.515-4.724-5.515-8.364h-2c-.171 0-.34.012-.507.026.69 4.425 3.604 8.254 7.807 10.055l2.144.919 4.556-5.467z" fill="#e6df65"/><path d="m37 45h-2c0 3.64-2.169 6.93-5.515 8.364l-1.485.636-5-6v2.533l4.556 5.467 2.145-.919c4.196-1.798 7.108-5.619 7.803-10.036-.168-.015-.332-.045-.504-.045z" fill="#e6df65"/><path d="m57.041 17.235c-7.354-1.416-13.224-6.969-15.041-14.235-.552 0-1 .448-1 1v14c0 .552.448 1 1 1h4.6l-.6 4 4.5-4h9.5c.552 0 1-.448 1-1 0 0-1.683-.327-3.959-.765z" fill="#62b0d1"/><path d="m42 39h16v4h-16z" fill="#46afda"/><path d="m23 35c1.657 0 3-1.343 3-3h-6c0 1.657 1.343 3 3 3z" fill="#fab69b"/><path d="m25.816 33c.112-.314.184-.647.184-1h-6c0 .353.072.686.184 1z" fill="#fff"/><path d="m24.965 34.25c-.527-.154-1.209-.25-1.965-.25s-1.438.096-1.965.25c.527.461 1.209.75 1.965.75s1.438-.289 1.965-.75z" fill="#fa9d78"/><path d="m31 23h-4c-1.302 0-2.402.839-2.816 2h-2.369c-.414-1.161-1.514-2-2.816-2h-4c-1.654 0-3 1.346-3 3s1.346 3 3 3h4c1.302 0 2.402-.839 2.816-2h2.369c.414 1.161 1.514 2 2.816 2h4c1.654 0 3-1.346 3-3s-1.346-3-3-3zm-12 4h-4c-.552 0-1-.448-1-1s.448-1 1-1h4c.552 0 1 .448 1 1s-.448 1-1 1zm12 0h-4c-.552 0-1-.448-1-1s.448-1 1-1h4c.552 0 1 .448 1 1s-.448 1-1 1z" fill="#332813"/><g fill="#fff"><path d="m45 48h-2c-.552 0-1-.448-1-1 0-.552.448-1 1-1h2c.552 0 1 .448 1 1 0 .552-.448 1-1 1z"/><path d="m51 48h-2c-.552 0-1-.448-1-1 0-.552.448-1 1-1h2c.552 0 1 .448 1 1 0 .552-.448 1-1 1z"/><path d="m57 48h-2c-.552 0-1-.448-1-1 0-.552.448-1 1-1h2c.552 0 1 .448 1 1 0 .552-.448 1-1 1z"/><path d="m45 52h-2c-.552 0-1-.448-1-1 0-.552.448-1 1-1h2c.552 0 1 .448 1 1 0 .552-.448 1-1 1z"/><path d="m51 52h-2c-.552 0-1-.448-1-1 0-.552.448-1 1-1h2c.552 0 1 .448 1 1 0 .552-.448 1-1 1z"/><path d="m57 52h-2c-.552 0-1-.448-1-1 0-.552.448-1 1-1h2c.552 0 1 .448 1 1 0 .552-.448 1-1 1z"/><path d="m45 56h-2c-.552 0-1-.448-1-1 0-.552.448-1 1-1h2c.552 0 1 .448 1 1 0 .552-.448 1-1 1z"/><path d="m51 56h-2c-.552 0-1-.448-1-1 0-.552.448-1 1-1h2c.552 0 1 .448 1 1 0 .552-.448 1-1 1z"/><path d="m57 56h-2c-.552 0-1-.448-1-1 0-.552.448-1 1-1h2c.552 0 1 .448 1 1 0 .552-.448 1-1 1z"/></g><path d="m45.6 11.8-1.2-1.6 4-3c.24-.18.551-.244.842-.17l3.599.899 4.645-2.787 1.029 1.715-5 3c-.228.137-.5.179-.757.112l-3.539-.884z" fill="#78af4f"/><path d="m44 13h2v3h-2z" fill="#fff"/><path d="m50 11h2v5h-2z" fill="#fff"/><path d="m56 9h2v7h-2z" fill="#fff"/></svg>