<svg id="Layer_1_1_" enable-background="new 0 0 64 64" height="512" viewBox="0 0 64 64" width="512" xmlns="http://www.w3.org/2000/svg"><path d="m16 3c-4.418 0-8 3.582-8 8v7.704c0 6.753-1.721 13.393-5 19.296l3.518-2.559c2.921-2.124 5.529-4.63 7.759-7.441l7.723-22.291c-1.465-1.661-3.61-2.709-6-2.709z" fill="#4d2817"/><path d="m22 5.709c-.53-.6-1.151-1.117-1.837-1.537-5.252.918-9.163 5.694-9.163 11.193v4.635 6c0 1.639.368 3.19 1.012 4.587.788-.834 1.553-1.689 2.266-2.587z" fill="#331b0f"/><path d="m26 5c-7.18 0-13 5.82-13 13v5h2v-1c0-.003 0-.007 0-.01 3.76-1.575 6.625-4.861 7.612-8.891 1.754 5.731 7.083 9.901 13.388 9.901h1 2v-5c0-7.18-5.82-13-13-13z" fill="#331b0f"/><path d="m26 11c-6.072 0-10.994 4.92-11 10.99 3.76-1.575 6.625-4.861 7.612-8.891 1.754 5.731 7.083 9.901 13.388 9.901h1c0-2.992-.946-5.758-2.545-8.034-2.018-2.422-5.056-3.966-8.455-3.966z" fill="#4d2817"/><path d="m26 5c-7.18 0-13 5.82-13 13v2c0-7.18 5.82-13 13-13s13 5.82 13 13v-2c0-7.18-5.82-13-13-13z" fill="#4d2817"/><path d="m14.5 23c-1.381 0-2.5 1.119-2.5 2.5s1.119 2.5 2.5 2.5h1.5v-5z" fill="#fad3ac"/><path d="m37.5 23h-1.5v5h1.5c1.381 0 2.5-1.119 2.5-2.5s-1.119-2.5-2.5-2.5z" fill="#fad3ac"/><path d="m12 43c-3.314 0-6 2.686-6 6v12h8v-18z" fill="#653494"/><path d="m40 43c3.314 0 6 2.686 6 6v12h-8v-18z" fill="#653494"/><path d="m22.613 13.099c-.988 4.03-3.852 7.317-7.612 8.891v.01 4.635c0 6.057 4.738 11.252 10.794 11.363 6.168.113 11.205-4.854 11.205-10.998v-4h-1c-6.305 0-11.634-4.17-13.387-9.901z" fill="#fce0b9"/><path d="m34 56v-13h-1c0 3.092-1.657 5.947-4.341 7.481l-2.659 1.519-2.659-1.519c-2.684-1.534-4.341-4.389-4.341-7.481h-1v13z" fill="#653494"/><path d="m38 54.429v-11.429h-4v13h-16v-13h-4v18h24v-2z" fill="#733d21"/><path d="m54.017 47.022c-.148-.008-.295-.022-.446-.022h-4.571-3.571c-.456 0-.901.047-1.334.126-3.465.629-6.095 3.656-6.095 7.303v4.571c0 1.105.895 2 2 2h19c1.105 0 2-.895 2-2v-4.571c0-3.953-3.089-7.175-6.983-7.407z" fill="#ff9503"/><path d="m31 36.794c-1.558.797-3.328 1.239-5.206 1.204-1.735-.032-3.356-.492-4.794-1.259v6.261h-2c0 3.092 1.657 5.947 4.341 7.481l2.659 1.519 2.659-1.519c2.684-1.534 4.341-4.389 4.341-7.481h-2z" fill="#fce0b9"/><path d="m25.794 37.998c-1.735-.032-3.356-.492-4.794-1.259v3.051c1.501.768 3.198 1.21 5 1.21s3.499-.442 5-1.21v-2.996c-1.558.797-3.328 1.238-5.206 1.204z" fill="#fad3ac"/><path d="m54.017 47.022c-.148-.008-.295-.022-.446-.022h-4.571-3.571c-.456 0-.901.047-1.334.126-3.465.629-6.095 3.656-6.095 7.303v3c0-3.647 2.63-6.673 6.095-7.302.433-.08.877-.127 1.334-.127h3.571 4.571c.15 0 .297.014.445.022 3.895.232 6.984 3.454 6.984 7.407v-3c0-3.953-3.089-7.175-6.983-7.407z" fill="#e66f07"/><path d="m19 43c0 3.092 1.657 5.947 4.341 7.481l2.659 1.519 2.659-1.519c2.684-1.534 4.341-4.389 4.341-7.481h-.556c-.693 1.861-2.007 3.464-3.786 4.481l-2.658 1.519-2.659-1.519c-1.779-1.017-3.092-2.619-3.786-4.481z" fill="#fad3ac"/><ellipse cx="32.5" cy="29.5" fill="#fcccc0" rx="1.5" ry=".5"/><ellipse cx="19.5" cy="29.5" fill="#fcccc0" rx="1.5" ry=".5"/><g fill="#e66f07"><path d="m44.5 47.5h1.999v5h-1.999z" transform="matrix(.8 -.6 .6 .8 -20.9 37.3)"/><path d="m49.5 47.5h1.999v5h-1.999z" transform="matrix(.8 -.6 .6 .8 -19.9 40.3)"/><path d="m54.5 47.5h1.999v5h-1.999z" transform="matrix(.8 -.6 .6 .8 -18.9 43.3)"/><path d="m47.8 41.6-1.6-1.2 1.029-1.373c.828-1.103.716-2.668-.258-3.643-.904-.903-1.402-2.105-1.402-3.385s.498-2.481 1.402-3.385l.322-.322 1.414 1.414-.322.322c-.526.526-.816 1.227-.816 1.971s.29 1.444.816 1.971c1.674 1.674 1.865 4.363.444 6.257z"/><path d="m53.232 35.6-1.601-1.2 1.029-1.373c.828-1.103.716-2.668-.258-3.643-.904-.903-1.402-2.105-1.402-3.384 0-1.278.498-2.48 1.402-3.385l.323-.323 1.413 1.416-.323.322c-1.086 1.086-1.086 2.854 0 3.94 1.674 1.673 1.866 4.363.445 6.257z"/></g><ellipse cx="21" cy="26.5" fill="#2b2210" rx="1" ry="1.5"/><ellipse cx="31" cy="26.5" fill="#2b2210" rx="1" ry="1.5"/><path d="m26 34.75c-2.068 0-3.75-1.682-3.75-3.75h1.5c0 1.241 1.009 2.25 2.25 2.25s2.25-1.009 2.25-2.25h1.5c0 2.068-1.682 3.75-3.75 3.75z" fill="#ff9575"/><circle cx="21.5" cy="26.5" fill="#fff" r=".5"/><circle cx="31.5" cy="26.5" fill="#fff" r=".5"/></svg>