<svg id="Layer_1_1_" enable-background="new 0 0 64 64" height="512" viewBox="0 0 64 64" width="512" xmlns="http://www.w3.org/2000/svg"><path d="m37 46-4-.889-5-1.111v2.21c-2.602 3.122-7.398 3.122-10 0v-2.21l-5 1.111-4 .889c-3.314 0-6 2.686-6 6v10h40v-10c0-3.314-2.686-6-6-6z" fill="#fff"/><path d="m18 47.21c2.602 3.122 7.398 3.122 10 0v-1c-2.602 3.122-7.398 3.122-10 0z" fill="#ededed"/><path d="m9 47 4-.889 5-1.111v-1l-5 1.111-4 .889c-3.314 0-6 2.686-6 6v1c0-3.314 2.686-6 6-6z" fill="#ededed"/><path d="m37 46-4-.889-5-1.111v1l5 1.111 4 .889c3.314 0 6 2.686 6 6v-1c0-3.314-2.686-6-6-6z" fill="#ededed"/><path d="m37 57v-11l-4-.889v11.889z" fill="#1a326e"/><path d="m33 57h-20-4v5h28v-5z" fill="#1a326e"/><path d="m28 46.21v-2.21-4.096l-.862.472c-.747.41-1.584.624-2.436.624h-3.405c-.851 0-1.689-.214-2.436-.624l-.861-.472v4.096 2.21c2.602 3.123 7.398 3.123 10 0z" fill="#fce0b9"/><path d="m13 57v-11.889l-4 .889v11z" fill="#1a326e"/><path d="m23 36c1.657 0 3-1.343 3-3h-6c0 1.657 1.343 3 3 3z" fill="#ffbb90"/><path d="m20 33h6 4l4-5v-3 3h1.5c1.381 0 2.5-1.119 2.5-2.5s-1.119-2.5-2.5-2.5h-1.5l-1.905-7.215c-1.066-2.666-4.349-3.628-6.685-1.959-1.458 1.042-3.401 1.102-4.921.152l-.437-.273c-2.517-1.573-5.838-.273-6.619 2.59l-1.433 6.705h-1.5c-1.381 0-2.5 1.119-2.5 2.5s1.119 2.5 2.5 2.5h1.5v-3 3l4 5z" fill="#fce0b9"/><path d="m60 38-16-1v4h16z" fill="#999"/><path d="m44 44 2 18h12l1.643-14.964.357-3.036z" fill="#c49e5c"/><path d="m13.433 16.295c.781-2.863 4.102-4.163 6.619-2.59l.437.273c1.52.95 3.462.89 4.921-.152 2.336-1.669 5.619-.707 6.685 1.959l1.905 7.215h1.5.5v-4c0-7.18-5.82-13-13-13s-13 5.82-13 13v4h.5 1.5z" fill="#4c3d24"/><path d="m50 9c0-3.314-2.239-6-5-6l.525 2.099c.295 1.18-.051 2.428-.911 3.287-.979.979-1.281 2.448-.766 3.733l1.152 2.881c2.761 0 5-2.686 5-6z" fill="#3b1e12"/><path d="m44.614 8.386c.86-.86 1.205-2.108.911-3.287l-.525-2.099c-2.761 0-5 2.686-5 6s2.239 6 5 6l-1.152-2.881c-.515-1.285-.213-2.754.766-3.733z" fill="#4d2817"/><path d="m56.307 13.273.526 2.098c.296 1.179-.049 2.428-.908 3.288-.978.98-1.279 2.449-.763 3.734l1.155 2.88c2.761-.002 4.998-2.69 4.995-6.004s-2.244-5.999-5.005-5.996z" fill="#4d2817"/><path d="m55.925 18.659c.859-.861 1.204-2.109.908-3.288l-.526-2.098c-2.761.002-4.998 2.69-4.995 6.004s2.243 5.998 5.005 5.996l-1.155-2.88c-.516-1.285-.215-2.754.763-3.734z" fill="#3b1e12"/><path d="m23 6c2.074 0 4.028.498 5.768 1.363-.713-2.517-3.023-4.363-5.768-4.363s-5.055 1.846-5.768 4.363c1.74-.865 3.694-1.363 5.768-1.363z" fill="#3d311d"/><path d="m18 45.75 10-4.5v-1.346l-.862.472c-.747.41-1.584.624-2.436.624h-3.405c-.851 0-1.689-.214-2.436-.624l-.861-.472v4.096z" fill="#fad3ac"/><path d="m23 6c-7.18 0-13 5.82-13 13v2c0-7.18 5.82-13 13-13s13 5.82 13 13v-2c0-7.18-5.82-13-13-13z" fill="#5e4c2d"/><path d="m44 44 2 18 .597-3.587c1.434-6.213 6.696-10.802 13.046-11.377l.357-3.036z" fill="#a6864e"/><path d="m44 39h16v2h-16z" fill="#878787"/><path d="m43 41h18v3h-18z" fill="#999"/><path d="m52 42h8v1h-8z" fill="#fff"/><path d="m49 42h2v1h-2z" fill="#fff"/><path d="m36 25h-1-1v1 2h1v-2h1z" fill="#fad3ac"/><path d="m11 25h-1v1h1v2h1v-2-1z" fill="#fad3ac"/><path d="m19 33h8v1h-8z" fill="#fff" transform="matrix(-1 0 0 -1 46 67)"/><path d="m21.298 41h3.405c.851 0 1.689-.214 2.436-.624l.861-.472v-.028.028l3.841-2.105c1.368-1.14 2.159-2.829 2.159-4.609v-5.19l-4 5h-4c0 1.657-1.343 3-3 3s-3-1.343-3-3h-4l-4-5v5.19c0 1.781.791 3.469 2.159 4.609l3.841 2.105v-.028.028l.862.472c.747.41 1.584.624 2.436.624z" fill="#4c3d24"/><path d="m31.841 35.799-3.841 2.105-.862.472c-.747.41-1.584.624-2.436.624h-3.405c-.851 0-1.689-.214-2.436-.624l-.861-.472-3.841-2.105c-1.368-1.14-2.159-2.829-2.159-4.609v2c0 1.781.791 3.469 2.159 4.609l3.841 2.105.862.472c.747.41 1.584.624 2.436.624h3.405c.851 0 1.689-.214 2.436-.624l.861-.472 3.841-2.105c1.368-1.14 2.159-2.829 2.159-4.609v-2c0 1.78-.791 3.469-2.159 4.609z" fill="#3d311d"/><g fill="#26140b"><path d="m42.801 34.707-1.414-1.414 1.059-1.058c.287-.288.43-.669.4-1.075-.028-.406-.224-.764-.549-1.007-1.436-1.078-1.78-3.09-.785-4.582l.75-1.125 1.664 1.109-.75 1.125c-.406.61-.266 1.432.321 1.873.784.588 1.274 1.486 1.344 2.465s-.288 1.938-.981 2.632z"/><path d="m46.951 28.707-1.414-1.414 1.059-1.058c.287-.288.43-.669.4-1.075-.028-.406-.224-.764-.549-1.007-1.436-1.078-1.78-3.09-.785-4.582l.75-1.125 1.664 1.109-.75 1.125c-.406.61-.266 1.432.321 1.873.784.588 1.274 1.486 1.344 2.465s-.288 1.938-.981 2.632z"/><path d="m43.671 14.371-.752-1.881c-.664-1.659-.276-3.547.988-4.812.607-.608.855-1.504.647-2.337l-.274-1.099 1.939-.484.274 1.099c.378 1.511-.071 3.134-1.173 4.236-.697.698-.911 1.74-.545 2.655l.752 1.881z"/><path d="m54.877 24.372-.644-1.607c-.665-1.659-.279-3.548.983-4.813.608-.608.855-1.504.646-2.338l-.093-.371 1.939-.485.093.371c.379 1.511-.069 3.135-1.171 4.237-.696.698-.909 1.74-.542 2.656l.645 1.607z"/></g><ellipse cx="18" cy="25.5" fill="#5e4c2d" rx="1" ry="1.5"/><ellipse cx="28" cy="25.5" fill="#5e4c2d" rx="1" ry="1.5"/><circle cx="18.5" cy="25.5" fill="#fff" r=".5"/><circle cx="28.5" cy="25.5" fill="#fff" r=".5"/></svg>