<svg id="Layer_1_1_" enable-background="new 0 0 64 64" height="512" viewBox="0 0 64 64" width="512" xmlns="http://www.w3.org/2000/svg"><path d="m43 62v-10c0-3.314-2.686-6-6-6v16z" fill="#fad3ac"/><path d="m37 62v-16l-3.52-.782c-1.896 3.884-5.867 6.568-10.48 6.568s-8.584-2.684-10.48-6.568l-3.52.782v16z" fill="#fff"/><path d="m9 46c-3.314 0-6 2.686-6 6v10h6z" fill="#fad3ac"/><path d="m23 51.786c4.613 0 8.584-2.684 10.48-6.568l-5.48-1.218v2c-2.761 2.761-7.239 2.761-10 0v-2l-5.48 1.218c1.896 3.884 5.867 6.568 10.48 6.568z" fill="#a31900"/><path d="m32.6 16.398c-.367-1.47-1.534-2.606-3.013-2.935l-.072-.016c-4.291-.954-8.739-.954-13.03 0-1.516.337-2.7 1.521-3.037 3.037l-1.448 6.516v5 1c0 6.075 4.925 11 11 11s11-4.925 11-11v-1-5z" fill="#fad3ac"/><path d="m10.5 28h1.5v-5h-1-.5c-1.381 0-2.5 1.119-2.5 2.5s1.119 2.5 2.5 2.5z" fill="#edc59b"/><path d="m34 28h1.5c1.381 0 2.5-1.119 2.5-2.5s-1.119-2.5-2.5-2.5h-.5-1z" fill="#edc59b"/><circle cx="49" cy="36" fill="#cf5300" r="12"/><path d="m49 45c-6.118 0-11.157-4.582-11.896-10.5-.062.492-.104.991-.104 1.5 0 6.627 5.373 12 12 12s12-5.373 12-12c0-.509-.042-1.008-.104-1.5-.739 5.918-5.778 10.5-11.896 10.5z" fill="#a64300"/><path d="m28 46v-2-5.21c-1.501.768-3.198 1.21-5 1.21s-3.499-.442-5-1.21v5.21 2c2.761 2.761 7.239 2.761 10 0z" fill="#fad3ac"/><path d="m18 38.79v3c1.501.768 3.198 1.21 5 1.21s3.499-.442 5-1.21v-3c-1.501.768-3.198 1.21-5 1.21s-3.499-.442-5-1.21z" fill="#edc59b"/><path d="m30 62h-14v-3c0-1.105.895-2 2-2h10c1.105 0 2 .895 2 2z" fill="#a31900"/><path d="m49 26c6.29 0 11.44 4.842 11.95 11 .027-.331.05-.662.05-1 0-6.627-5.373-12-12-12s-12 5.373-12 12c0 .338.023.669.05 1 .51-6.158 5.66-11 11.95-11z" fill="#f26100"/><path d="m13.448 16.485c.337-1.516 1.521-2.7 3.037-3.037 4.291-.954 8.739-.954 13.03 0l.072.016c1.479.329 2.645 1.465 3.013 2.935l1.4 6.601h1l.68-11.876c.185-2.956-1.796-5.613-4.683-6.279-5.262-1.214-10.732-1.214-15.994 0-2.889.667-4.875 3.32-4.701 6.28l.698 11.875h1z" fill="#2b2210"/><path d="m10.412 13 .588 10h1l1.448-6.515c.337-1.516 1.521-2.7 3.037-3.037.86-.191 1.728-.333 2.598-.448z" fill="#423419"/><path d="m26.917 13c.87.115 1.738.257 2.598.448l.072.016c1.479.329 2.645 1.465 3.013 2.935l1.4 6.601h1l.572-10z" fill="#423419"/><ellipse cx="18" cy="26.5" fill="#2b2210" rx="1" ry="1.5"/><ellipse cx="28" cy="26.5" fill="#2b2210" rx="1" ry="1.5"/><path d="m23 36c-2.068 0-3.75-1.682-3.75-3.75h1.5c0 1.241 1.009 2.25 2.25 2.25s2.25-1.009 2.25-2.25h1.5c0 2.068-1.682 3.75-3.75 3.75z" fill="#c47c66"/><path d="m56.635 21.936c-.358-.195-.723-.376-1.094-.542-.492-.221-.743-.769-.553-1.274.205-.544.827-.794 1.358-.557.426.191.846.398 1.256.622.51.278.689.924.381 1.417-.286.458-.874.591-1.348.334z" fill="#cf5300"/><path d="m43.012 20.121-.001-.003c-.199-.528.072-1.132.611-1.3 2.768-.862 5.749-1.044 8.604-.529.555.1.899.666.767 1.214l-.001.003c-.126.524-.642.836-1.172.742-2.507-.444-5.123-.285-7.553.464-.515.159-1.065-.087-1.255-.591z" fill="#cf5300"/><path d="m61 35h-5.898c.341-2.382 1.609-4.59 3.552-6.072l-1.213-1.59c-2.437 1.859-4.012 4.657-4.365 7.662h-3.076v-11h-2v11h-3.039c-.193-3.022-1.578-5.846-3.894-7.831l-.157-.134-1.301 1.519.156.134c1.872 1.604 3.005 3.875 3.195 6.312h-5.96v2h5.898c-.341 2.382-1.609 4.59-3.552 6.072l1.213 1.59c2.437-1.859 4.012-4.657 4.365-7.662h3.076v11h2v-11h3.039c.193 3.022 1.578 5.846 3.894 7.831l.157.134 1.301-1.519-.156-.134c-1.872-1.604-3.005-3.875-3.195-6.312h5.96z" fill="#5e2600"/><g fill="#fff"><circle cx="18.5" cy="26.5" r=".5"/><circle cx="28.5" cy="26.5" r=".5"/></g></svg>