<svg id="Layer_1_1_" enable-background="new 0 0 64 64" height="512" viewBox="0 0 64 64" width="512" xmlns="http://www.w3.org/2000/svg"><path d="m43 42h-2s-1 6.179-3 9.179l-6-4-6 4c-2-3-3-9.179-3-9.179h-2c-3.314 0-6 2.686-6 6v3.752l-3-7.752h-7.257l.012.033-.022-.033 2.267 17h25 17v-9.248-3.752c0-3.314-2.686-6-6-6z" fill="#71caf0"/><path d="m11 17h2v10h-2z" fill="#606060"/><circle cx="12" cy="13" fill="#a8a8a8" r="5"/><path d="m42 3c4.418 0 8 3.582 8 8v7.704c0 6.752 1.721 13.393 5 19.296l-3.518-2.559c-2.921-2.124-5.529-4.63-7.759-7.441l-7.723-22.291c1.465-1.661 3.61-2.709 6-2.709z" fill="#ab5a32"/><path d="m36 5.709c.53-.6 1.151-1.117 1.837-1.537 5.252.918 9.163 5.694 9.163 11.193v4.635 6c0 1.639-.368 3.19-1.012 4.587-.788-.834-1.553-1.689-2.266-2.587z" fill="#914c2a"/><path d="m32 5c7.18 0 13 5.82 13 13v5h-2v-1c0-.003 0-.007 0-.01-3.76-1.575-6.625-4.861-7.612-8.891-1.754 5.731-7.083 9.901-13.388 9.901h-1-2v-5c0-7.18 5.82-13 13-13z" fill="#914c2a"/><path d="m32 11c6.072 0 10.994 4.92 11 10.99-3.76-1.575-6.625-4.861-7.612-8.891-1.754 5.731-7.083 9.901-13.388 9.901h-1c0-2.992.946-5.758 2.545-8.034 2.018-2.422 5.056-3.966 8.455-3.966z" fill="#ab5a32"/><path d="m32.206 37.998c-1.879.034-3.649-.407-5.206-1.205v2.386 2l5 6 5-6v-2-2.435c-1.437.767-3.06 1.222-4.794 1.254z" fill="#fce0b9"/><g fill="#fad3ac"><path d="m32.206 37.998c-1.879.034-3.649-.407-5.206-1.205v2.997c1.501.768 3.198 1.21 5 1.21s3.499-.442 5-1.21v-3.046c-1.437.767-3.06 1.222-4.794 1.254z"/><path d="m43.5 23c1.381 0 2.5 1.119 2.5 2.5s-1.119 2.5-2.5 2.5h-1.5v-5z"/><path d="m20.5 23h1.5v5h-1.5c-1.381 0-2.5-1.119-2.5-2.5s1.119-2.5 2.5-2.5z"/></g><path d="m32 5c7.18 0 13 5.82 13 13v2c0-7.18-5.82-13-13-13s-13 5.82-13 13v-2c0-7.18 5.82-13 13-13z" fill="#ab5a32"/><path d="m12 33c0-1.105.895-2 2-2v-4h-2-2v4c1.105 0 2 .895 2 2z" fill="#a8a8a8"/><path d="m12 33c0 1.105-.895 2-2 2v7c0 1.105.895 2 2 2s2-.895 2-2v-7c-1.105 0-2-.895-2-2z" fill="#a8a8a8"/><path d="m12 33c0 1.105.895 2 2 2h1c1.105 0 2-.895 2-2s-.895-2-2-2h-1c-1.105 0-2 .895-2 2z" fill="#489abd"/><path d="m60.198 44.198c-.734-.734-1.819-.99-2.804-.662l-3.527 1.176c-.562.187-1.17.187-1.733 0l-3.527-1.176c-.652-.217-1.341-.156-1.95.108-.31.135-.606.306-.854.553-.514.514-.803 1.211-.803 1.938v.62c0 .167.014.329.045.493.18.966.894 4.488 1.955 5.752 1.679 2 2 8 2 8l3.106-6.211c.369-.737 1.42-.737 1.789 0l3.105 6.211s.357-6.107 2-8c1.085-1.25 1.785-4.802 1.958-5.76.029-.159.042-.316.042-.477v-.628c0-.727-.289-1.424-.802-1.937z" fill="#fff"/><circle cx="12" cy="13" fill="#71caf0" r="4"/><path d="m10 31h-3.573c-1.814 0-3.214 1.598-2.974 3.396l1.28 9.604h5.267v-9c1.105 0 2-.895 2-2s-.895-2-2-2z" fill="#489abd"/><path d="m13.143 11-2.75 2.688v.839l2.75-2.75z" fill="#fff"/><path d="m14 12-2.75 2.688v.839l2.75-2.75z" fill="#fff"/><path d="m10 37h-2c-1.105 0-2-.895-2-2h4z" fill="#3f87a6"/><path d="m27 39.179-4 2.821s1 6.179 3 9.179l6-4-5-6z" fill="#71caf0"/><path d="m41 42-4-2.821v2l-5 6 6 4c2-3 3-9.179 3-9.179z" fill="#71caf0"/><path d="m47.606 43.535 5.394 2.465c.442.147.912.174 1.366.09-.123-.023-.246-.05-.366-.09l-5.394-2.465c-.439-.146-.892-.157-1.328-.074.11.021.22.038.328.074z" fill="#c4c4c4"/><path d="m60.198 44.198c-.634-.634-1.528-.885-2.394-.738.518.105 1.006.349 1.394.737.513.514.802 1.211.802 1.938v.628c0 .162-.013.318-.042.478-.173.957-.873 4.509-1.958 5.759-.904 1.041-1.413 3.347-1.693 5.219l-2.412-4.825c-.369-.737-1.42-.737-1.789 0l-3.106 6.211v1.395l3.106-6.211c.369-.737 1.42-.737 1.789 0l2.264 4.527.841 1.684s.357-6.107 2-8c1.085-1.25 1.785-4.802 1.958-5.76.029-.159.042-.316.042-.477v-.628c0-.727-.289-1.424-.802-1.937z" fill="#c4c4c4"/><path d="m35.387 13.099c.988 4.03 3.852 7.317 7.612 8.891v.01 4.635c0 6.057-4.738 11.252-10.794 11.363-6.168.113-11.205-4.854-11.205-10.998v-4h1c6.305 0 11.634-4.17 13.387-9.901z" fill="#fce0b9"/><ellipse cx="27" cy="26.5" fill="#5e4c2d" rx="1" ry="1.5"/><ellipse cx="37" cy="26.5" fill="#5e4c2d" rx="1" ry="1.5"/><circle cx="27.5" cy="26.5" fill="#fff" r=".5"/><circle cx="37.5" cy="26.5" fill="#fff" r=".5"/><path d="m32 34c1.657 0 3-1.343 3-3h-6c0 1.657 1.343 3 3 3z" fill="#ff9575"/><path d="m34.816 32c.112-.314.184-.647.184-1h-6c0 .353.072.686.184 1z" fill="#fff"/><path d="m32.206 37.998c4.892-.09 8.921-3.499 10.29-7.998h-21.07c1.325 4.678 5.657 8.092 10.78 7.998z" fill="#fff"/><path d="m32.206 35.998c-4.358.08-8.136-2.383-9.985-5.998h-.795c1.325 4.678 5.657 8.092 10.78 7.998 4.892-.09 8.921-3.499 10.29-7.998h-.828c-1.817 3.472-5.328 5.922-9.462 5.998z" fill="#f7f7f7"/><path d="m32 47.179-6 4c-2-3-3-9.179-3-9.179h-2c.546 2.82 1.971 8.84 4.225 12.223l5.775-3.849v10.626h2v-10.424l5.819 3.879c2.228-3.343 4.181-12.455 4.181-12.455s-1.281 0-2 0c0 0-1 6.179-3 9.179z" fill="#4fa8cf"/><path d="m15 56h-2v2h3c.553 0 1-.447 1-1v-5h-2z" fill="#4fa8cf"/><path d="m43 55h2v6h-2z" fill="#4fa8cf"/></svg>