<svg id="Layer_1_1_" enable-background="new 0 0 64 64" height="512" viewBox="0 0 64 64" width="512" xmlns="http://www.w3.org/2000/svg"><path d="m28 42c-3.078 1.847-6.922 1.847-10 0h-3v20h10 6v-20z" fill="#806631"/><path d="m41 51c0-4.971-4.029-9-9-9h-1v20h10v-5-3.938z" fill="#5e9446"/><path d="m5 51c0-4.971 4.029-9 9-9h1v19h-10v-4-3.938z" fill="#5e9446"/><path d="m49 57h4v5h-4z" fill="#9c9c9c"/><path d="m39 29-2.388-10.349c-.336-1.455-.53-2.936-.73-4.415-.861-6.345-6.301-11.236-12.882-11.236s-12.021 4.891-12.881 11.236c-.201 1.48-.395 2.96-.73 4.415l-2.389 10.349c-2.209 0-4 1.791-4 4s1.791 4 4 4c0 2.761 2.239 5 5 5h2 1 3v-7.21c-3.559-1.822-6-5.517-6-9.79v-5-.01c3.76-1.575 6.625-4.861 7.612-8.891 1.754 5.731 7.083 9.901 13.388 9.901h1v4c0 4.273-2.441 7.968-6 9.79v7.21h3 1 2c2.761 0 5-2.239 5-5 2.209 0 4-1.791 4-4s-1.791-4-4-4z" fill="#eaca65"/><path d="m34 25v-4h-1c-6.305 0-11.634-4.17-13.387-9.901-.988 4.03-3.852 7.317-7.612 8.891l-.001.01v5c0 6.075 4.925 11 11 11s11-4.925 11-11z" fill="#fce0b9"/><path d="m3 47v15h22v-15z" fill="#999"/><path d="m61 22-2.5-1-7.5 3-7.5-3-2.5 1 4 16c-2.621 4.587-4 9.779-4 15.062v3.938h8 4 8v-3.938c0-5.283-1.379-10.475-4-15.062z" fill="#d0382a"/><circle cx="14" cy="54" fill="#fff" r="3"/><path d="m51 24 7.5-3-5.5-2.2v-4.8h-4v4.8l-5.5 2.2z" fill="#fad3ac"/><path d="m23 36c-1.802 0-3.499-.442-5-1.21v7.21c3.078 1.847 6.922 1.847 10 0v-7.21c-1.501.768-3.198 1.21-5 1.21z" fill="#fce0b9"/><ellipse cx="29.5" cy="28.5" fill="#fcccc0" rx="1.5" ry=".5"/><ellipse cx="16.5" cy="28.5" fill="#fcccc0" rx="1.5" ry=".5"/><path d="m7 31 2.388-10.349c.336-1.455.53-2.936.73-4.415.861-6.345 6.301-11.236 12.882-11.236s12.021 4.891 12.881 11.236c.201 1.48.395 2.96.73 4.415l2.389 10.349c1.862 0 3.412 1.278 3.859 3 .083-.321.141-.653.141-1 0-2.209-1.791-4-4-4l-2.388-10.349c-.336-1.455-.53-2.936-.73-4.415-.861-6.345-6.301-11.236-12.882-11.236s-12.021 4.891-12.881 11.236c-.201 1.48-.395 2.96-.73 4.415l-2.389 10.349c-2.209 0-4 1.791-4 4 0 .347.058.679.141 1 .447-1.722 1.997-3 3.859-3z" fill="#f0d57f"/><path d="m18 34.79v.988l7.657 7.231c.811-.231 1.6-.563 2.343-1.009v-7.21c-1.501.768-3.198 1.21-5 1.21s-3.499-.442-5-1.21z" fill="#fad3ac"/><path d="m33 21c-6.305 0-11.634-4.17-13.387-9.901-.988 4.03-3.852 7.317-7.612 8.891l-.001.01v3-.01c3.76-1.575 6.625-4.861 7.612-8.891 1.754 5.731 7.083 9.901 13.388 9.901h1v-3z" fill="#fad3ac"/><path d="m48 38-4-16 1-.4-1.5-.6-2.5 1 4 16c-2.621 4.587-4 9.779-4 15.062v3.938h3v-3.938c0-5.283 1.379-10.475 4-15.062z" fill="#b83125"/><path d="m23 34c1.657 0 3-1.343 3-3h-6c0 1.657 1.343 3 3 3z" fill="#fcccc0"/><path d="m25.816 32c.112-.314.184-.647.184-1h-6c0 .353.072.686.184 1z" fill="#fff"/><ellipse cx="18" cy="25.5" fill="#806631" rx="1" ry="1.5"/><ellipse cx="28" cy="25.5" fill="#806631" rx="1" ry="1.5"/><circle cx="18.5" cy="25.5" fill="#fff" r=".5"/><circle cx="28.5" cy="25.5" fill="#fff" r=".5"/><path d="m49 57h4v2h-4z" fill="#707070"/><path d="m9.912 61.309-6.912.691h22v-15c-1.177 7.652-7.384 13.538-15.088 14.309z" fill="#707070"/><path d="m51 24-1-.4v6.4h2v-6.4z" fill="#b83125"/></svg>