<svg id="Layer_1_1_" enable-background="new 0 0 64 64" height="512" viewBox="0 0 64 64" width="512" xmlns="http://www.w3.org/2000/svg"><path d="m27 47h1v14h-7v-8c0-3.314 2.686-6 6-6z" fill="#ededed"/><path d="m33 47 8 14h-13v-14z" fill="#db933e"/><path d="m32 42h-7-16l-6 6v3h16.714l7.286 6h4l-3.25-5h4.25z" fill="#ababab"/><path d="m29.566 25.956c-.738-.081-1.412-.354-1.974-.78-.93.364-1.592 1.264-1.592 2.324 0 1.381 1.119 2.5 2.5 2.5h1.5v-3.718c-.158-.093-.291-.214-.434-.326z" fill="#fad3ac"/><path d="m46 47-.063.063c-2.727 2.727-7.148 2.727-9.875 0l-.062-.063h-3l8 14 8-14z" fill="#ededed"/><path d="m49 47-8 14h13v-14z" fill="#db933e"/><path d="m11 42h-2l-4 4h6z" fill="#71caf0"/><path d="m55 47h-1v14h7v-8c0-3.314-2.686-6-6-6z" fill="#ededed"/><path d="m28 36h-4l-9 6h11z" fill="#969696"/><path d="m52 26.272v3.728h1.5c1.381 0 2.5-1.119 2.5-2.5 0-1.06-.662-1.96-1.593-2.324-.566.43-1.245.704-1.99.782-.137.107-.265.224-.417.314z" fill="#fad3ac"/><path d="m44.769 5.384.231-1.384c0-.552-.448-1-1-1h-6c-.552 0-1 .448-1 1l.24 1.442c-6.527 1.325-10.825 5.851-11.211 12.558h29.943c-.386-6.712-4.675-11.291-11.203-12.616z" fill="#fca947"/><path d="m52.417 25.958c-.139.015-.274.042-.417.042h-22c-.148 0-.289-.028-.434-.044.142.111.276.233.434.326v3.718 1c0 6.075 4.925 11 11 11s11-4.925 11-11v-1-3.728c.152-.09.28-.207.417-.314z" fill="#fce0b9"/><path d="m24 18c-.552 0-1 .448-1 1v2c0 .552.448 1 1 1h2 30 2c.552 0 1-.448 1-1v-2c0-.552-.448-1-1-1h-2.028-29.943z" fill="#fca947"/><path d="m27.593 25.176c.562.426 1.235.7 1.974.78.144.016.285.044.433.044h22c.143 0 .278-.027.417-.042.744-.078 1.424-.352 1.99-.782.962-.731 1.593-1.875 1.593-3.176h-30c0 1.301.631 2.445 1.593 3.176z" fill="#f5a445"/><path d="m4 27c-.552 0-1 .448-1 1v2c0 .552.448 1 1 1h.757c.341.823.366.884.707 1.707l-.536.536c-.391.391-.391 1.024 0 1.414l1.414 1.414c.391.391 1.024.391 1.414 0l.536-.536c.823.341.884.366 1.707.707v.758c0 .552.448 1 1 1h2c.552 0 1-.448 1-1v-.757c.823-.341.884-.366 1.707-.707l.536.536c.391.391 1.024.391 1.414 0l1.414-1.414c.391-.391.391-1.024 0-1.414l-.536-.536c.341-.823.366-.884.707-1.707h.759c.552 0 1-.448 1-1v-2c0-.552-.448-1-1-1h-.757c-.341-.823-.366-.884-.707-1.707l.536-.536c.391-.391.391-1.024 0-1.414l-1.414-1.414c-.391-.391-1.024-.391-1.414 0l-.536.536c-.823-.341-.884-.366-1.707-.707v-.759c0-.552-.448-1-1-1h-2c-.552 0-1 .448-1 1v.757c-.823.341-.884.366-1.707.707l-.536-.536c-.391-.391-1.024-.391-1.414 0l-1.414 1.414c-.391.391-.391 1.024 0 1.414l.536.536c-.342.824-.368.885-.709 1.708zm8-2c2.209 0 4 1.791 4 4s-1.791 4-4 4-4-1.791-4-4 1.791-4 4-4z" fill="#969696"/><path d="m19 16-3-6h-2v-8h-4v8h-2l-3 6 4 4-1-3 2-3h4l2 3-1 3z" fill="#606060"/><path d="m41 42c-1.802 0-3.499-.442-5-1.21v6.21l.062.063c2.727 2.727 7.148 2.727 9.875 0l.063-.063v-6.21c-1.501.768-3.198 1.21-5 1.21z" fill="#fce0b9"/><path d="m26.812 14c-.427 1.228-.7 2.56-.783 4h29.943c-.083-1.437-.354-2.77-.778-4z" fill="#f5a445"/><path d="m29 26h24v1h-24z" fill="#fad3ac"/><path d="m36 40.79v.561c2.772 1.878 6.278 4.492 8.952 6.527.346-.238.678-.506.986-.814l.062-.064v-6.21c-1.501.768-3.198 1.21-5 1.21s-3.499-.442-5-1.21z" fill="#fad3ac"/><path d="m38 5h6c.552 0 1 .448 1 1l-.231 1.384c5.855 1.189 9.899 5 10.951 10.616h.252c-.386-6.712-4.675-11.291-11.202-12.616l.23-1.384c0-.552-.448-1-1-1h-6c-.552 0-1 .448-1 1l.231 1.385c.183-.229.453-.385.769-.385z" fill="#fcba6c"/><path d="m37.24 7.442-.24-1.442c0-.205.077-.385.183-.544-6.494 1.34-10.769 5.857-11.154 12.544h.253c1.054-5.601 5.105-9.37 10.958-10.558z" fill="#fcba6c"/><ellipse cx="46" cy="9.5" fill="#fff" rx="1" ry=".5"/><circle cx="48.5" cy="10.5" fill="#fff" r=".5"/><path d="m45 58h7v2h-7z" fill="#b37833"/><path d="m30 58h7v2h-7z" fill="#b37833"/><path d="m10 2h1v8h-1z" fill="#969696"/><path d="m16.5 18.5.5-1.5-2-3h-1l2 3-1 3z" fill="#969696"/><path d="m6 16 3-6h-1l-3 6 4 4-.5-1.5z" fill="#969696"/><g fill="#ababab"><path d="m9.293 22.464c.823-.341.884-.366 1.707-.707v-.757c0-.552.448-1 1-1h-1c-.552 0-1 .448-1 1v.757c-.501.207-.72.298-1 .414z"/><path d="m16.707 22.464.536-.536c.061-.061.136-.096.207-.138-.383-.226-.878-.192-1.207.138l-.243.244c.18.074.385.159.707.292z"/><path d="m13 25c-.171 0-.334.03-.5.05 1.97.249 3.5 1.912 3.5 3.95s-1.53 3.701-3.5 3.95c.166.02.329.05.5.05 2.209 0 4-1.791 4-4s-1.791-4-4-4z"/><path d="m17.243 36.071-.536-.536c-.322.133-.527.218-.707.293l.243.243c.329.329.824.364 1.207.138-.071-.042-.146-.077-.207-.138z"/><path d="m11 37v-.757c-.823-.341-.884-.366-1.707-.707l-.293.292c.28.116.499.207 1 .414v.758c0 .552.448 1 1 1h1c-.552 0-1-.448-1-1z"/><path d="m7.343 36.071-1.414-1.414c-.391-.391-.391-1.024 0-1.414l.536-.536c-.342-.823-.367-.884-.708-1.707h-.757c-.552 0-1-.448-1-1v-2c0-.552.448-1 1-1h.757c.341-.823.366-.884.707-1.707l-.536-.536c-.391-.391-.391-1.024 0-1.414l1.414-1.414c.061-.061.136-.096.207-.138-.383-.226-.878-.192-1.207.138l-1.414 1.414c-.391.391-.391 1.024 0 1.414l.536.536c-.34.823-.366.884-.707 1.707h-.757c-.552 0-1 .448-1 1v2c0 .552.448 1 1 1h.757c.341.823.366.884.707 1.707l-.536.536c-.391.391-.391 1.024 0 1.414l1.414 1.414c.329.329.824.364 1.207.138-.07-.042-.145-.077-.206-.138z"/></g><path d="m15 44h2v2h-2z" fill="#71caf0"/><path d="m19 44h2v2h-2z" fill="#71caf0"/><ellipse cx="36" cy="29.5" fill="#2b2210" rx="1" ry="1.5"/><ellipse cx="46" cy="29.5" fill="#2b2210" rx="1" ry="1.5"/><path d="m41 39c-2.068 0-3.75-1.682-3.75-3.75h1.5c0 1.241 1.009 2.25 2.25 2.25s2.25-1.009 2.25-2.25h1.5c0 2.068-1.682 3.75-3.75 3.75z" fill="#c47c66"/><circle cx="36.5" cy="29.5" fill="#fff" r=".5"/><circle cx="46.5" cy="29.5" fill="#fff" r=".5"/><path d="m20 51h-17v-3l1.355.452c3.086 1.029 6.281 1.697 9.521 1.992z" fill="#969696"/></svg>