<svg id="Layer_1_1_" enable-background="new 0 0 64 64" height="512" viewBox="0 0 64 64" width="512" xmlns="http://www.w3.org/2000/svg"><path d="m43 17-9.018 2.122c-5.25 1.235-10.714 1.235-15.964 0l-9.018-2.122c-2.761 0-5 2.239-5 5s5.342 3.836 8.103 3.836h26.785c2.762 0 9.112-1.075 9.112-3.836s-2.239-5-5-5z" fill="#5e4b24"/><path d="m11.5 22.065c-1.381 0-2.5 1.119-2.5 2.5s1.119 2.5 2.5 2.5h1.5v-5z" fill="#d1ad89"/><path d="m43 24.565c0-1.381-1.119-2.5-2.5-2.5h-1.5v5h1.5c1.381 0 2.5-1.119 2.5-2.5z" fill="#d1ad89"/><path d="m13 16v11.065l4.913 4.384c.728.596 1.51 1.088 2.321 1.499 3.62 1.835 7.911 1.835 11.531 0 .811-.411 1.593-.904 2.321-1.499l4.914-4.384v-11.065z" fill="#fad3ac"/><path d="m37 18.412-3.018.71c-5.25 1.235-10.714 1.235-15.964 0l-3.018-.71-2-.471v2.952l2 .471 3.018.71c5.25 1.235 10.714 1.235 15.964 0l3.018-.711 2-.471v-2.952z" fill="#d1ad89"/><path d="m36 56v-12-.245c1.283.49 2.672 1.055 4 1.662v10.583z" fill="#13244f"/><path d="m12 45.417c-3.188 1.457-6 3.148-6 4.583l-3 11h9v-5z" fill="#5e9446"/><path d="m33 52-7-3-7 3-3-8v12h20v-12z" fill="#5e9446"/><path d="m36 44-3 8-7-3-7 3-3-8v6.2l1.8 4.8 8.2-3.514 8.2 3.514 1.8-4.8z" fill="#4c7839"/><path d="m19 52 7-3-5-5v-2s-2.247.703-5 1.755v.245z" fill="#5e9446"/><path d="m33 52-7-3 5-5v-2s2.247.703 5 1.755v.245z" fill="#5e9446"/><path d="m16 56v-12-.245c-1.283.49-2.672 1.055-4 1.662v10.583z" fill="#13244f"/><path d="m12 56h28v5h-28z" fill="#13244f"/><path d="m40 45.417c3.188 1.457 6 3.149 6 4.583l3 11h-9v-5z" fill="#a6833e"/><path d="m34.087 31.449c-.728.596-1.51 1.088-2.321 1.499-3.62 1.835-7.911 1.835-11.531 0-.811-.411-1.593-.904-2.321-1.499l-4.914-4.384v6.611c0 1.472.808 2.824 2.104 3.522l5.896 3.175 3.104 1.671c1.184.638 2.609.638 3.793 0l9-4.846c1.295-.698 2.103-2.05 2.103-3.522v-6.611z" fill="#a59f97"/><path d="m42 37c0 3.314 2.686 6 6 6s6-2.686 6-6-2.686-4-6-4-6 .686-6 4z" fill="#d0382a"/><path d="m48 41c-2.961 0-5.414-2.146-5.905-4.966-.058.295-.095.613-.095.966 0 3.314 2.686 6 6 6s6-2.686 6-6c0-.353-.037-.671-.095-.966-.491 2.82-2.944 4.966-5.905 4.966z" fill="#a62d21"/><ellipse cx="50.5" cy="36" fill="#d06960" rx="1.5" ry="1"/><path d="m49 50c0 3.314 2.686 6 6 6s6-2.686 6-6-2.686-4-6-4-6 .686-6 4z" fill="#d0382a"/><path d="m55 54c-2.961 0-5.414-2.146-5.905-4.966-.058.295-.095.613-.095.966 0 3.314 2.686 6 6 6s6-2.686 6-6c0-.353-.037-.671-.095-.966-.491 2.82-2.944 4.966-5.905 4.966z" fill="#a62d21"/><ellipse cx="57.5" cy="49" fill="#d06960" rx="1.5" ry="1"/><path d="m36 51c0 3.314 2.686 6 6 6s6-2.686 6-6-2.686-4-6-4-6 .686-6 4z" fill="#d0382a"/><path d="m42 55c-2.961 0-5.414-2.146-5.905-4.966-.058.295-.095.613-.095.966 0 3.314 2.686 6 6 6s6-2.686 6-6c0-.353-.037-.671-.095-.966-.491 2.82-2.944 4.966-5.905 4.966z" fill="#a62d21"/><ellipse cx="44.5" cy="50" fill="#d06960" rx="1.5" ry="1"/><path d="m36 56h25v5h-25z" fill="#5e4b24"/><path d="m39 13.809-1.394-3.357-2.105-5.07c-.292-1.388-1.517-2.382-2.935-2.382h-13.129c-1.42 0-2.646.996-2.936 2.385l-3.501 8.385-4 3.23 1.63.384 4.37 1.028 3.018.71c5.25 1.235 10.714 1.235 15.964 0l3.018-.71 3.385-.796 2.615-.616z" fill="#806631"/><path d="m17.437 4.952h13.129c1.419 0 2.643.994 2.936 2.382l2.105 5.07 1.393 3.357 2.566 2.047.819-.193 2.615-.615-4-3.191-1.394-3.357-2.105-5.07c-.292-1.388-1.517-2.382-2.935-2.382h-13.129c-1.313 0-2.45.856-2.845 2.083.27-.079.552-.131.845-.131z" fill="#5e4b24"/><path d="m27.896 42.044c-1.184.638-2.609.638-3.793 0l-3.103-1.671v3.837l5 5 5-5v-3.837z" fill="#fad3ac"/><path d="m36.896 34.676-9 4.846c-1.184.638-2.609.638-3.793 0l-3.103-1.671-5.896-3.175c-1.296-.698-2.104-2.051-2.104-3.522v2.522c0 1.472.808 2.824 2.104 3.522l5.896 3.175 3.104 1.671c1.184.638 2.609.638 3.793 0l9-4.846c1.295-.698 2.103-2.05 2.103-3.522v-2.522c0 1.471-.808 2.824-2.104 3.522z" fill="#8c8780"/><g fill="#4c7839"><path d="m42 48c-.552 0-1-.448-1-1v-2c0-.552.448-1 1-1 .552 0 1 .448 1 1v2c0 .552-.448 1-1 1z"/><path d="m55 47c-.552 0-1-.448-1-1v-2c0-.552.448-1 1-1 .552 0 1 .448 1 1v2c0 .552-.448 1-1 1z"/><path d="m48 34c-.552 0-1-.448-1-1v-2c0-.552.448-1 1-1 .552 0 1 .448 1 1v2c0 .552-.448 1-1 1z"/></g><path d="m26 36c1.657 0 3-1.343 3-3h-6c0 1.657 1.343 3 3 3z" fill="#ffbb90"/><path d="m28.816 34c.112-.314.184-.647.184-1h-6c0 .353.072.686.184 1z" fill="#fff"/><ellipse cx="21" cy="26.5" fill="#5e4c2d" rx="1" ry="1.5"/><ellipse cx="31" cy="26.5" fill="#5e4c2d" rx="1" ry="1.5"/><circle cx="21.5" cy="26.5" fill="#fff" r=".5"/><circle cx="31.5" cy="26.5" fill="#fff" r=".5"/><path d="m39 13.809-.157-.379-8.369.964c-2.969.395-5.979.396-8.965-.002l-8.366-.965-.143.343-1.792 1.447 10.054 1.16c1.573.21 3.158.314 4.741.314 1.579 0 3.155-.104 4.716-.313l10.05-1.158z" fill="#140f0a"/></svg>