<svg id="Layer_1_1_" enable-background="new 0 0 64 64" height="512" viewBox="0 0 64 64" width="512" xmlns="http://www.w3.org/2000/svg"><path d="m13.103 25.836c-2.761 0-8.103-1.075-8.103-3.836 0-2.761 2.239-5 5-5l9.018 2.122c5.25 1.235 10.714 1.235 15.964 0l9.018-2.122c2.761 0 5 2.239 5 5 0 2.761-6.35 3.836-9.112 3.836" fill="#4a3b1c"/><path d="m35 41-4 8v13h15l-2-18-5-2-4-3z" fill="#1a326e"/><path d="m37.249 54.208c1.899-3.385 3.18-8.329 3.844-11.371l-2.093-.837-4-3v2l-4 8v2l4.775 3.527c.487.36 1.177.21 1.474-.319z" fill="#162a5c"/><path d="m19 41 4 8v13h-15l2-18 5-2 4-3z" fill="#1a326e"/><path d="m19 41 4 8-5 2.179c-2-3-3-9.089-3-9.089l4-3.09z" fill="#1a326e"/><path d="m35 41-4 8 5 2.179c2-3 3-9.089 3-9.089l-4-3.09z" fill="#1a326e"/><path d="m34.982 19.122c-5.25 1.235-10.714 1.235-15.964 0l-3.018-.71v6.588c0 4.662 2.905 8.637 7 10.239 1.241.485 2.587.761 4 .761s2.759-.276 4-.761c4.095-1.601 7-5.576 7-10.239v-6.588z" fill="#fce0b9"/><path d="m40 13.809-1.394-3.357-2.105-5.07c-.292-1.388-1.517-2.382-2.935-2.382h-13.129c-1.42 0-2.646.996-2.936 2.385l-3.501 8.385-4 3.23 1.63.384 4.37 1.028 3.018.71c5.25 1.235 10.714 1.235 15.964 0l3.018-.71 3.385-.796 2.615-.616z" fill="#806631"/><path d="m50 33h-1-2.098c-2.378 0-4.231 2.062-3.977 4.426l.588 5.485 1.651 15.408c.163 1.524 1.45 2.68 2.983 2.68h.609c1.533 0 2.82-1.156 2.983-2.68l2.239-20.893c.252-2.364-1.601-4.426-3.978-4.426z" fill="#fca947"/><path d="m46.513 45.911-.588-5.485c-.253-2.364 1.6-4.426 3.977-4.426h2.098 1c.302 0 .594.034.876.097-.41-1.754-1.963-3.097-3.876-3.097h-1-2.098c-2.378 0-4.231 2.062-3.977 4.426l.588 5.485 1.651 15.408c.163 1.518 1.44 2.67 2.966 2.679z" fill="#f98600"/><path d="m23 50h8v12h-8z" fill="#d0382a"/><path d="m31 35.239c-1.241.485-2.587.761-4 .761s-2.759-.276-4-.761v3.761h-4v2l4 8v1h8v-1l4-8v-2h-4z" fill="#fce0b9"/><path d="m19.018 19.122-3.018-.71v5.266c3.157.834 6.934 1.322 11 1.322s7.843-.488 11-1.322v-5.266l-3.018.71c-5.25 1.235-10.714 1.235-15.964 0z" fill="#fad3ac"/><path d="m18.437 4.952h13.129c1.419 0 2.643.994 2.936 2.382l2.105 5.07 1.393 3.357 2.566 2.047.819-.193 2.615-.615-4-3.191-1.394-3.357-2.105-5.07c-.292-1.388-1.517-2.382-2.935-2.382h-13.129c-1.313 0-2.45.856-2.845 2.083.27-.079.552-.131.845-.131z" fill="#5e4b24"/><ellipse cx="22" cy="26.5" fill="#5e4c2d" rx="1" ry="1.5"/><ellipse cx="32" cy="26.5" fill="#5e4c2d" rx="1" ry="1.5"/><circle cx="22.5" cy="26.5" fill="#fff" r=".5"/><circle cx="32.5" cy="26.5" fill="#fff" r=".5"/><path d="m27 34c1.657 0 3-1.343 3-3h-6c0 1.657 1.343 3 3 3z" fill="#ff9575"/><path d="m29.816 32c.112-.314.184-.647.184-1h-6c0 .353.072.686.184 1z" fill="#fff"/><path d="m28 21c.591-.354 1.107-.709 1.566-1.058-3.528.26-7.084-.005-10.548-.82l-3.018-.71-1.264-.297-3.105-.731c-.135 1.934.078 3.918.672 5.85l2.662 8.651h-4.965c-1.657 0-3 1.343-3 3 0 .02.005.038.006.058-.001.019-.006.037-.006.057 0 1.385.944 2.54 2.22 2.885h-.22c-3.314 0-6 2.686-6 6 0 3.151 2.43 5.73 5.518 5.976 0-.001 1.482 6.139 5.482 6.139h2c4 .115 7-2 7-6.115 0-3.314-3.686-6-7-6l-1 .115v-2l4-3h4v-3.761c-4.095-1.601-7-5.576-7-10.239v-1.077c2.939-.182 8.463-.801 12-2.923z" fill="#2b2210"/><path d="m41.476 18.587-.092-.972-3.384.797-3.018.71c-.389.092-.781.162-1.172.24.443 1.256 1.125 2.573 2.19 3.638.806.806 1.463 1.024 2 .927v1.073c0 1.413-.27 2.76-.756 4h.006c3.022-2.574 4.599-6.461 4.226-10.413z" fill="#2b2210"/><path d="m10.518 49.86c-3.088-.246-5.518-2.824-5.518-5.975 0-3.314 2.686-6 6-6h.22c-1.276-.345-2.22-1.5-2.22-2.885 0-.02.005-.038.006-.058 0-.02-.006-.038-.006-.058 0-1.657 1.343-3 3-3h-2c-1.657 0-3 1.343-3 3 0 .02.005.038.006.058-.001.02-.006.038-.006.058 0 1.385.944 2.54 2.22 2.885h-.22c-3.314 0-6 2.686-6 6 0 3.151 2.43 5.73 5.518 5.976 0-.001 1.482 6.139 5.482 6.139h2c-4 0-5.482-6.14-5.482-6.14z" fill="#3d3017"/><path d="m31 35.239c-1.241.485-2.587.761-4 .761s-2.759-.276-4-.761v2.137c1.265.396 2.604.624 4 .624s2.735-.228 4-.625z" fill="#fad3ac"/><path d="m31 62h-8v-12l.76 3.798c.767 3.835 3.53 6.965 7.24 8.202z" fill="#b02f24"/><path d="m40 13.809-1.212-2.921-7.376 1.302c-2.912.514-5.86.479-8.758-.1l-7.339-1.468-1.315 3.148-.664.537 8.533 1.706c1.798.36 3.61.54 5.426.54 1.606 0 3.214-.141 4.813-.423l8.846-1.561z" fill="#b89246"/><path d="m38 56h2v6h-2z" fill="#162a5c"/><path d="m14 56h2v6h-2z" fill="#162a5c"/><path d="m61.987 21.844c-.104-.658-.61-1.138-1.504-1.426-2.081-.674-4.415.179-5.677 2.068l-4.304 6.457c.285-2.209.675-5.028 1.125-7.782l.152-.536c1.236-1.544 7.342-9.422 6.168-12.941-.257-.772-.851-1.265-1.588-1.317-1.381-.084-2.816 1.312-4.255 4.187-.771 1.542-1.573 4.907-2.452 10.286-.955 5.849-1.641 11.989-1.647 12.051-.051.458.219.893.652 1.05.113.039.229.059.343.059.327 0 .643-.161.832-.445l3.807-5.71c2.908-.956 8.785-3.244 8.348-6.001z" fill="#7fb556"/><g fill="#f98600"><path d="m47 40h-1c-.552 0-1-.448-1-1 0-.552.448-1 1-1h1c.552 0 1 .448 1 1 0 .552-.448 1-1 1z"/><path d="m51 44h-2c-.552 0-1-.448-1-1 0-.552.448-1 1-1h2c.552 0 1 .448 1 1 0 .552-.448 1-1 1z"/><path d="m48 50h-2c-.552 0-1-.448-1-1 0-.552.448-1 1-1h2c.552 0 1 .448 1 1 0 .552-.448 1-1 1z"/><path d="m49 54c-.552 0-1-.448-1-1 0-.552.448-1 1-1 .552 0 1 .448 1 1 0 .552-.448 1-1 1z"/></g><path d="m36.169 11.351.437 1.053 1.134 2.732 3.212-.567-.952-.76-1.213-2.92z" fill="#99793a"/><path d="m54.807 22.486-4.032 6.049c-.098.72-.19 1.41-.272 2.045l4.304-6.457c1.262-1.89 3.596-2.742 5.677-2.068.65.21 1.089.523 1.323.93.166-.37.242-.75.181-1.142-.104-.658-.61-1.138-1.504-1.426-2.082-.673-4.416.18-5.677 2.069z" fill="#618a41"/><path d="m49.653 22.476c.879-5.379 1.681-8.744 2.452-10.286 1.438-2.875 2.874-4.271 4.255-4.187.737.053 1.331.545 1.588 1.317.028.084.033.182.053.27.121-.711.128-1.365-.053-1.908-.257-.772-.851-1.265-1.588-1.317-1.381-.084-2.816 1.312-4.255 4.187-.771 1.542-1.573 4.907-2.452 10.286-.955 5.849-1.641 11.989-1.647 12.051-.023.208.027.409.122.583.238-2.008.805-6.583 1.525-10.996z" fill="#8fcc61"/></svg>