<svg id="Layer_1_1_" enable-background="new 0 0 64 64" height="512" viewBox="0 0 64 64" width="512" xmlns="http://www.w3.org/2000/svg"><g fill="#904c2a"><path d="m57 33.095h2v5h-2z"/><path d="m48.474 33c-2.446-2.779-2.474-6.825-2.474-6.996h2.158-1.079l1.079-.004c0 .031.039 3.218 1.842 5.266z"/><path d="m52.447 33.095-.895-1.789c3.409-1.704 3.448-6.061 3.448-6.105h2c0 .229-.052 5.643-4.553 7.894z"/><path d="m56 38.095h-2c0-2.224-2.227-3.021-2.321-3.053l.638-1.896c.15.051 3.683 1.271 3.683 4.949z"/></g><path d="m53.294 21.175c1.09-.177 1.831-1.204 1.655-2.294l-2.933-5.603-1.016 6.242c.177 1.09 1.204 1.831 2.294 1.655z" fill="#5e9446"/><path d="m44.903 22.946c.964-.539 1.309-1.757.77-2.722l-4.673-4.261 1.181 6.213c.539.964 1.757 1.309 2.722.77z" fill="#5e9446"/><path d="m39 24v-4.548c0-8.615-6.621-16.028-15.227-16.434-9.188-.432-16.773 6.889-16.773 15.982v5c-2.209 0-4 1.791-4 4s1.791 4 4 4c0 2.761 2.239 5 5 5h6v-.21c-3.559-1.822-6-5.517-6-9.79v-6h8.096c2.294 0 4.294-1.562 4.851-3.787l2.053-7.213 2.243 7.97c.445 1.781 2.045 3.03 3.881 3.03h.876v6c0 4.273-2.441 7.968-6 9.79v.21h6c2.761 0 5-2.239 5-5 2.209 0 4-1.791 4-4s-1.791-4-4-4z" fill="#904c2a"/><path d="m33.123 21c-1.835 0-3.435-1.249-3.881-3.03l-2.242-7.97-2.053 7.213c-.557 2.225-2.557 3.787-4.851 3.787h-8.096v6c0 6.075 4.925 11 11 11s11-4.925 11-11v-6z" fill="#fce0b9"/><path d="m28 36.79c-1.501.768-3.198 1.21-5 1.21s-3.499-.442-5-1.21v5.21h-3c0 2.209 1.791 4 4 4h8c2.209 0 4-1.791 4-4h-3z" fill="#fce0b9"/><path d="m42.964 53.294c-.287-4.912-3.519-9.023-7.964-10.596-1.253-.444-2.595-.698-4-.698 0 2.209-1.791 4-4 4h-8c-2.209 0-4-1.791-4-4-1.405 0-2.747.254-4 .697-4.658 1.649-8 6.08-8 11.303v8h8v-9h24v9h8s-.022-8.471-.036-8.706z" fill="#71caf0"/><path d="m59 37h-3-11-3l2.322 10.838c.396 1.844 2.026 3.162 3.912 3.162h.766 2 2 .766c1.886 0 3.516-1.318 3.911-3.162l2.323-10.838z" fill="#d1a250"/><path d="m48.687 51.991c-.032.014-.066.024-.098.038l-3.589 9.971h12l-3.647-10.118-2.353-.882z" fill="#d1a250"/><path d="m46.254 34.577-3.254 5.423 5.857-2.386c.839-.719.936-1.981.217-2.82s-1.981-.936-2.82-.217z" fill="#5e9446"/><path d="m60 32.095-2-6-2 6c0 1.105.895 2 2 2s2-.895 2-2z" fill="#5e9446"/><path d="m52 28c-1.105 0-2 .895-2 2-1.105 0-2 .895-2 2s.895 2 2 2c0 1.105.895 2 2 2s2-.895 2-2c1.105 0 2-.895 2-2s-.895-2-2-2c0-1.105-.895-2-2-2z" fill="#eb5e3b"/><path d="m46 20.201c-1.105 0-2 .895-2 2-1.105 0-2 .895-2 2s.895 2 2 2c0 1.105.895 2 2 2s2-.895 2-2c1.105 0 2-.895 2-2s-.895-2-2-2c0-1.105-.895-2-2-2z" fill="#fc7f60"/><path d="m58 24.201c1.105 0 2-.895 2-2s-.895-2-2-2c0-1.105-.895-2-2-2s-2 .895-2 2c-1.105 0-2 .895-2 2s.895 2 2 2c0 1.105.895 2 2 2s2-.896 2-2z" fill="#fc7f60"/><path d="m23 38c-1.802 0-3.499-.442-5-1.21v3c1.501.768 3.198 1.21 5 1.21s3.499-.442 5-1.21v-3c-1.501.768-3.198 1.21-5 1.21z" fill="#fad3ac"/><path d="m33.123 21c-1.835 0-3.435-1.249-3.881-3.03l-2.242-7.97-2.053 7.213c-.557 2.225-2.557 3.787-4.851 3.787h-8.096v3c3.516 0 7.647.761 10.809-1.09.549-.321 1.055-.701 1.514-1.128 2.048-1.907 3.135-4.74 2.883-7.511.24 2.37-.366 4.43.794 6.729.566 1.122 1.785 1.812 2.887 2.309.264.119 3.113 1.265 3.113.691v-3z" fill="#fad3ac"/><path d="m39 26c1.862 0 3.412 1.278 3.859 3 .083-.321.141-.653.141-1 0-2.209-1.791-4-4-4z" fill="#ab5a32"/><path d="m23.773 5.018c8.606.405 15.227 7.819 15.227 16.434v-2c0-8.615-6.621-16.028-15.227-16.434-9.188-.432-16.773 6.889-16.773 15.982v2c0-9.093 7.585-16.414 16.773-15.982z" fill="#ab5a32"/><path d="m7 26v-2c-2.209 0-4 1.791-4 4 0 .347.058.679.141 1 .447-1.722 1.997-3 3.859-3z" fill="#ab5a32"/><ellipse cx="29.5" cy="29.5" fill="#fcccc0" rx="1.5" ry=".5"/><ellipse cx="16.5" cy="29.5" fill="#fcccc0" rx="1.5" ry=".5"/><path d="m57.678 44.838c-.396 1.844-2.026 3.162-3.912 3.162h-.766-2-2-.766c-1.886 0-3.516-1.318-3.911-3.162l-1.68-7.838h-.643l2.322 10.838c.396 1.844 2.026 3.162 3.912 3.162h.766 2 2 .766c1.886 0 3.516-1.318 3.911-3.162l2.323-10.838h-.643z" fill="#a37e3e"/><path d="m48.588 56.029c.032-.014.066-.024.098-.038l2.314-.991 2.353.882 2.047 6.118h1.6l-3.647-10.118-2.353-.882-2.313.991c-.032.014-.066.024-.098.038l-3.589 9.971h1.6z" fill="#a37e3e"/><path d="m11 44.697c1.253-.443 2.595-.697 4-.697 0 2.209 1.791 4 4 4h8c2.209 0 4-1.791 4-4 1.405 0 2.747.254 4 .697 4.445 1.574 7.678 5.684 7.964 10.596.009.156.022 4.475.029 6.706h.007s-.022-8.471-.036-8.706c-.287-4.912-3.519-9.023-7.964-10.596-1.253-.443-2.595-.697-4-.697 0 2.209-1.791 4-4 4h-8c-2.209 0-4-1.791-4-4-1.405 0-2.747.254-4 .697-4.658 1.649-8 6.08-8 11.303v2c0-5.223 3.342-9.654 8-11.303z" fill="#67b9db"/><ellipse cx="18" cy="26.5" fill="#5e4c2d" rx="1" ry="1.5"/><ellipse cx="28" cy="26.5" fill="#5e4c2d" rx="1" ry="1.5"/><circle cx="18.5" cy="26.5" fill="#fff" r=".5"/><circle cx="28.5" cy="26.5" fill="#fff" r=".5"/><path d="m23 34c1.657 0 3-1.343 3-3h-6c0 1.657 1.343 3 3 3z" fill="#ff9575"/><path d="m25.816 32c.112-.314.184-.647.184-1h-6c0 .353.072.686.184 1z" fill="#fff"/><path d="m11 42.697v10.303h2v-10.825c-.688.119-1.356.294-2 .522z" fill="#d1a250"/><path d="m35 42.697c-.644-.228-1.312-.404-2-.523v10.826h2z" fill="#d1a250"/><path d="m11 53h24v9h-24z" fill="#3a4c63"/><path d="m45 29.095c-1.105 0-2 .895-2 2-1.105 0-2 .895-2 2s.895 2 2 2c0 1.105.895 2 2 2s2-.895 2-2c1.105 0 2-.895 2-2s-.895-2-2-2c0-1.104-.895-2-2-2z" fill="#fc7f60"/><path d="m55.976 51.798-3.333-1.25 3.138-3.923c.142-.178.219-.397.219-.625v-2h-2v1.649l-2.805 3.506-1.195-2.391v-1.764h-2v2c0 .155.036.309.105.447l1.526 3.052-1.338.573c-2.881 1.234-6.029 1.559-9.097.947l-.393 1.961c3.471.694 7.025.324 10.276-1.07l1.944-.833 4.249 1.594c2.009.753 3.702 2.096 4.895 3.884l1.664-1.109c-1.426-2.14-3.451-3.748-5.855-4.648z" fill="#904c2a"/></svg>