<svg id="Layer_1_1_" enable-background="new 0 0 64 64" height="512" viewBox="0 0 64 64" width="512" xmlns="http://www.w3.org/2000/svg"><path d="m55 38h2 1c1.657 0 3-1.343 3-3s-1.343-3-3-3h-1v-12.548c0-8.615-6.621-16.028-15.227-16.434-.259-.012-1.288-.012-1.547 0-8.605.405-15.226 7.819-15.226 16.434v12.548h-1c-1.657 0-3 1.343-3 3s1.343 3 3 3h1 2c-3.314 0-6 2.686-6 6 0 1.093.292 2.118.803 3 0 0 .197 1.249 1.037 2.757l35.906.29c.591-.869 1.071-1.827 1.397-2.868.018-.059.037-.119.055-.179.293-.976.802-1.907.802-3 0-3.314-2.686-6-6-6z" fill="#4d2817"/><path d="m58.185 47.324c-.084-.802-.642-1.475-1.414-1.706l-10.771-2.618h-10l-10.856 2.714c-.706.176-1.26.722-1.447 1.425l-3.697 13.861h41z" fill="#fff"/><path d="m51.123 21c-1.835 0-3.435-1.249-3.881-3.03l-2.242-7.97-2.053 7.213c-.557 2.225-2.557 3.787-4.851 3.787h-8.096v6c0 6.075 4.925 11 11 11s11-4.925 11-11v-6z" fill="#fce0b9"/><path d="m16.774 43.128c.133-.666-.196-1.339-.803-1.643-.58-.29-1.28-.176-1.739.282l-1.232 1.233-7.334-2.933c-1.277-.511-2.666.429-2.666 1.805 0 .698.374 1.342.98 1.688l6.02 3.44 4 14h9l-7-14z" fill="#fce0b9"/><path d="m41 38c-1.802 0-3.499-.442-5-1.21v7.21l5 4 5-4v-7.21c-1.501.768-3.198 1.21-5 1.21z" fill="#fce0b9"/><path d="m51.123 21c-1.835 0-3.435-1.249-3.881-3.03l-2.242-7.97-2.053 7.213c-.557 2.225-2.557 3.787-4.851 3.787h-8.096v2h8.096c2.294 0 4.294-1.562 4.851-3.787l2.053-7.213 2.243 7.97c.445 1.781 2.045 3.03 3.881 3.03h.876v-2z" fill="#fad3ac"/><path d="m46 36.79c-1.501.768-3.198 1.21-5 1.21s-3.499-.442-5-1.21v7.21l.283.226 9.717-6.94z" fill="#fad3ac"/><path d="m57 34.991h1c1.109 0 2.067.609 2.586 1.505.256-.442.414-.949.414-1.496 0-1.657-1.343-3-3-3h-1z" fill="#61321d"/><path d="m40.227 6.009c.259-.012 1.288-.012 1.547 0 8.605.405 15.226 7.818 15.226 16.434v-2.991c0-8.615-6.621-16.028-15.227-16.434-.259-.012-1.288-.012-1.547 0-8.605.405-15.226 7.819-15.226 16.434v2.991c0-8.616 6.621-16.029 15.227-16.434z" fill="#61321d"/><path d="m58 40.991h-1-2c2.741 0 5.047 1.839 5.765 4.35.131-.429.235-.868.235-1.341 0-1.357-.456-2.605-1.216-3.61-.499.373-1.113.601-1.784.601z" fill="#61321d"/><path d="m24 34.991h1v-2.991h-1c-1.657 0-3 1.343-3 3 0 .547.158 1.054.414 1.495.519-.895 1.477-1.504 2.586-1.504z" fill="#61321d"/><path d="m27 40.991h-2-1c-.671 0-1.285-.228-1.784-.601-.76 1.005-1.216 2.253-1.216 3.61 0 .519.07 1.021.194 1.501.664-2.592 3.008-4.51 5.806-4.51z" fill="#61321d"/><ellipse cx="47.5" cy="29.5" fill="#fcccc0" rx="1.5" ry=".5"/><ellipse cx="34.5" cy="29.5" fill="#fcccc0" rx="1.5" ry=".5"/><path d="m41 35c1.657 0 3-1.343 3-3h-6c0 1.657 1.343 3 3 3z" fill="#fcccc0"/><path d="m43.816 33c.112-.314.184-.647.184-1h-6c0 .353.072.686.184 1z" fill="#fff"/><ellipse cx="36" cy="26.5" fill="#4d2817" rx="1" ry="1.5"/><ellipse cx="46" cy="26.5" fill="#4d2817" rx="1" ry="1.5"/><circle cx="36.5" cy="26.5" fill="#fff" r=".5"/><circle cx="46.5" cy="26.5" fill="#fff" r=".5"/><path d="m45 54h7v2h-7z" fill="#eaca65"/><path d="m53 56h2v5h-2z" fill="#e0e0e0"/><path d="m27 56h2v5h-2z" fill="#e0e0e0"/><g fill="#eaca65"><path d="m17 22h2v3h-2z"/><path d="m14 20h3v2h-3z"/><path d="m17 17h2v3h-2z"/><path d="m19 20h3v2h-3z"/><path d="m5 12h2v3h-2z"/><path d="m2 10h3v2h-3z"/><path d="m5 7h2v3h-2z"/><path d="m7 10h3v2h-3z"/><path d="m15 10h2v2h-2z"/><path d="m4 21h2v2h-2z"/><path d="m10 28h2v2h-2z"/></g></svg>