<svg id="Layer_1_1_" enable-background="new 0 0 64 64" height="512" viewBox="0 0 64 64" width="512" xmlns="http://www.w3.org/2000/svg"><path d="m46 17h-17v12.19c0 1.781.791 3.469 2.159 4.609l4.703 2.577c.747.41 1.584.624 2.436.624h3.405c.851 0 1.689-.214 2.436-.624l4.703-2.577c1.367-1.14 2.158-2.829 2.158-4.609v-8.19z" fill="#fce0b9"/><path d="m51 21v5h1.5c1.381 0 2.5-1.119 2.5-2.5 0-1.036-.63-1.924-1.527-2.304-.299-.126-.628-.196-.973-.196z" fill="#fce0b9"/><path d="m46 17h-17v3h17l5 4v-3z" fill="#fad3ac"/><ellipse cx="42.75" cy="24.5" fill="#91672c" rx="1" ry="1.5"/><path d="m37.75 34c-2.068 0-3.75-1.682-3.75-3.75h1.5c0 1.241 1.009 2.25 2.25 2.25s2.25-1.009 2.25-2.25h1.5c0 2.068-1.682 3.75-3.75 3.75z" fill="#c47c66"/><circle cx="43.25" cy="24.5" fill="#fff" r=".5"/><path d="m24 43.354c-2.783 1.127-5 2.412-5 3.646l1 15h40l1-15c0-3.314-16-7-16-7h-10z" fill="#eaca65"/><path d="m24 46.354 11-3.354h10s14.12 3.254 15.829 6.395l.171-2.395c0-3.314-16-7-16-7h-10l-11 3.354c-2.783 1.127-5 2.412-5 3.646l.173 2.419c.55-1.05 2.478-2.114 4.827-3.065z" fill="#cfb259"/><path d="m44.138 36.376c-.747.41-1.584.624-2.436.624h-3.405c-.851 0-1.689-.214-2.436-.624l-.861-.472v6.096c2.761 2.761 7.239 2.761 10 0v-6.096z" fill="#fce0b9"/><path d="m45 35.904-.862.472c-.747.41-1.584.624-2.436.624h-3.405c-.851 0-1.689-.214-2.436-.624l-.861-.472v6.096c.158.158.323.304.491.444l9.509-6.158z" fill="#fad3ac"/><path d="m46 12v5l5 4h1.5c.345 0 .674.07.973.196.377-1.267.527-2.806.527-4.196 0-7.732-6.268-14-14-14-3.81 0-7.257 1.53-9.782 4h10.782c2.761 0 5 2.239 5 5z" fill="#1a326e"/><path d="m46 17v-5c0-2.761-2.239-5-5-5h-14c-2.761 0-5 2.239-5 5s2.239 5 5 5h.438z" fill="#1a326e"/><path d="m27 15c-2.419 0-4.436-1.718-4.899-4-.066.323-.101.657-.101 1 0 2.761 2.239 5 5 5h.438 18.562v-2h-18.562z" fill="#172c61"/><path d="m46 17 4 3.2v-5.605c0-5.115-4.147-9.262-9.262-9.262h-8.463c-.041.027-.078.059-.118.087-.691.471-1.343.997-1.939 1.58h10.782c2.761 0 5 2.239 5 5z" fill="#13244f"/><path d="m38 37h-25c-.552 0-1-.448-1-1v-14c0-.552.448-1 1-1h25c.552 0 1 .448 1 1v14c0 .552-.448 1-1 1z" fill="#606060"/><path d="m29.379 18.515c-.223-.89-1.023-1.515-1.941-1.515h-.438-4.438c-.918 0-1.718.625-1.94 1.515l-.622 2.485h10z" fill="#606060"/><path d="m35.818 54.313-3.335-12.62c-.299-1.045-.007-2.169.761-2.938.488-.488.793-1.131.861-1.818l.603-6.025c.157-1.559-1.068-2.912-2.634-2.912h-.074l-14 1h-.734c-1.203 0-2.134 1.054-1.985 2.248l.586 4.69c.083.664.492 1.242 1.09 1.541l3.206 1.603c1.208.604 2.258 1.481 3.068 2.561 1.162 1.55 1.943 3.352 2.28 5.259l2.489 15.098h23v-6z" fill="#fce0b9"/><path d="m25 36c3.866 0 7-3.134 7-7s-3.134-7-7-7-7 3.134-7 7 3.134 7 7 7zm0-10c1.657 0 3 1.343 3 3s-1.343 3-3 3-3-1.343-3-3 1.343-3 3-3z" fill="#606060"/><circle cx="25" cy="29" fill="#71caf0" r="3"/><circle cx="26" cy="29" fill="#fff" r="1"/><path d="m16 37c-2.209 0-4-1.791-4-4 1.381 0 1-1.119 1-2.5v-5.5-4h2v-1.265c0-.995-.732-1.839-1.717-1.98l-3.856-.551c-.852-.122-1.687.315-2.072 1.085l-2.144 4.288c-.139.278-.211.585-.211.895v12.457c0 1.326.527 2.598 1.464 3.536l3.071 3.071c.938.937 1.465 2.209 1.465 3.535v15.929h11z" fill="#fce0b9"/><path d="m25 20c-4.971 0-9 4.029-9 9 0 .149.015.293.022.44.34-.272.769-.44 1.243-.44h.735c0-3.866 3.134-7 7-7 3.527 0 6.437 2.612 6.921 6.006l.079-.006h.074c.761 0 1.437.323 1.918.83-.092-4.891-4.079-8.83-8.992-8.83z" fill="#454545"/><path d="m23 13c0-2.761 2.239-5 5-5h14c1.125 0 2.152.385 2.988 1.012-.913-1.215-2.352-2.012-3.988-2.012h-14c-2.761 0-5 2.239-5 5 0 1.636.797 3.075 2.012 3.988-.627-.836-1.012-1.863-1.012-2.988z" fill="#21408c"/><path d="m50 52h2v10h-2z" fill="#cfb259"/><g fill="#fad3ac"><path d="m10 21h3v2h-3z"/><path d="m10 25h3v2h-3z"/><path d="m10 29h3v2h-3z"/></g></svg>