<svg id="Layer_1_1_" enable-background="new 0 0 64 64" height="512" viewBox="0 0 64 64" width="512" xmlns="http://www.w3.org/2000/svg"><path d="m24.298 37h3.405c.851 0 1.689-.214 2.436-.624l.861-.472 3.841-2.105c1.368-1.14 2.159-2.829 2.159-4.609v-8.19l-5-8h-12l-5 8v8.19c0 1.781.791 3.469 2.159 4.609l3.841 2.105.862.472c.747.41 1.584.624 2.436.624z" fill="#fad3ac"/><path d="m13.5 21c-1.381 0-2.5 1.119-2.5 2.5s1.119 2.5 2.5 2.5h1.5v-5z" fill="#edc59b"/><path d="m38.5 26c1.381 0 2.5-1.119 2.5-2.5s-1.119-2.5-2.5-2.5h-1.5v5z" fill="#edc59b"/><path d="m37 21v-8h-5z" fill="#c98f3e"/><path d="m31 46.929v-6.929-4.096l-.862.472c-.747.41-1.584.624-2.436.624h-3.405c-.851 0-1.689-.214-2.436-.624l-.861-.472v4.096 6.929c2.761 2.761 7.239 2.761 10 0z" fill="#fad3ac"/><path d="m37 13v-5c0-2.761-2.239-5-5-5h-19v5c0 2.761 2.239 5 5 5h2 12z" fill="#91672c"/><path d="m20 13h-2c-1.131 0-2.162-.39-3-1.023v9.023l5.091-8z" fill="#c98f3e"/><path d="m32 3h-19v2h19c2.761 0 5 2.239 5 5v-2c0-2.761-2.239-5-5-5z" fill="#a67632"/><path d="m30.462 42.486c.185-.151.365-.313.538-.486v-2-4.096l-.862.472c-.747.41-1.584.624-2.436.624h-3.405c-.851 0-1.689-.214-2.436-.624l-.861-.472v2.331c3.481.54 6.75 2.01 9.462 4.251z" fill="#edc59b"/><path d="m26 46.21 7 3 3-8v-.154c-2.755-1.098-5-1.846-5-1.846v2z" fill="#eaca65"/><path d="m36 53.903 4-.516v-10.612c-1.329-.622-2.719-1.208-4-1.719v.154z" fill="#1a326e"/><path d="m33 49.21-7-3-7 3-3-8v15.274l20-2.581v-12.693z" fill="#d6b95c"/><path d="m58.028 35.904-7.028-3.904-2-2 2-6s-7 2-7 8 4 7 5 10c.416 1.249.658 3.191.8 5.033.198 2.582.2 4.967.2 4.967h5s0-3 1-8 4-7 4-7z" fill="#9c9c9c"/><path d="m43 53 1-5 2.203-.367c-.071-.229-.139-.441-.203-.633-.432-1.297-3.061-2.849-6-4.225v10.612z" fill="#eaca65"/><path d="m58 7v-4h-7v4h1 5z" fill="#8a8a8a"/><path d="m19 49.21 7-3-5-5v-2s-2.245.748-5 1.846v.154z" fill="#eaca65"/><path d="m16 56.484v-15.274-.154c-1.281.51-2.671 1.096-4 1.719v14.225z" fill="#1a326e"/><path d="m47 17c5.523 0 10-4.477 10-10h-5c0 2.761-2.239 5-5 5h-1v5z" fill="#606060"/><path d="m57 26-2 5-4 1 7.028 3.904c1.935-5.945-1.028-9.904-1.028-9.904z" fill="#8a8a8a"/><path d="m46 18v-1-5-1h-4v7z" fill="#8a8a8a"/><path d="m58.778 22c5 0 0-10 0-10s-5 10 0 10z" fill="#46afda"/><path d="m51 42c-1-3-5-4-5-10 0-3.675 2.624-5.845 4.659-6.978l.341-1.022s-7 2-7 8 4 7 5 10c.416 1.249.658 3.191.8 5.033.198 2.582.2 4.967.2 4.967h2s-.002-2.385-.2-4.967c-.142-1.842-.384-3.784-.8-5.033z" fill="#b3b3b3"/><path d="m21 55.839-5 .645-4 .516v-14.225c-2.939 1.376-5.568 2.928-6 4.225-1 3-3 11-3 11v4h18z" fill="#eaca65"/><path d="m57 52h-2-5s-.002-2.385-.2-4.967l-3.597.599-2.203.368-1 5-3 .387-4 .516-15 1.935v6.162h36c1.105 0 2-.895 2-2v-6c0-1.105-.895-2-2-2z" fill="#fad3ac"/><ellipse cx="59.5" cy="20" fill="#fff" rx=".5" ry="1"/><circle cx="59.5" cy="17.5" fill="#fff" r=".5"/><path d="m57 52h-2-5s-.002-2.385-.2-4.967l-3.597.599-2.203.368-1 5-3 .387-4 .516-15 1.935v6.162h36c1.105 0 2-.895 2-2v-6c0-1.105-.895-2-2-2z" fill="#fad3ac"/><path d="m53.628 39.343-3.285-1.971c-.474-.284-.627-.899-.343-1.372.284-.473.898-.627 1.372-.343l3.285 1.971c.474.284.627.899.343 1.372-.284.474-.898.627-1.372.343z" fill="#606060"/><path d="m50 2h9v2h-9z" fill="#b3b3b3"/><path d="m50 52s-.002-2.385-.2-4.967l-1.474.246.674 4.721c0 1.105.895 2 2 2h3c1.105 0 2-.895 2-2z" fill="#edc59b"/><path d="m40 10h2v9h-2z" fill="#b3b3b3"/><path d="m42 11h1v7h-1z" fill="#606060"/><path d="m51 4h7v1h-7z" fill="#606060"/><ellipse cx="21" cy="24.5" fill="#91672c" rx="1" ry="1.5"/><ellipse cx="31" cy="24.5" fill="#91672c" rx="1" ry="1.5"/><path d="m26 34c-2.068 0-3.75-1.682-3.75-3.75h1.5c0 1.241 1.009 2.25 2.25 2.25s2.25-1.009 2.25-2.25h1.5c0 2.068-1.682 3.75-3.75 3.75z" fill="#c47c66"/><g fill="#fff"><circle cx="21.5" cy="24.5" r=".5"/><circle cx="31.5" cy="24.5" r=".5"/></g></svg>