<svg id="Layer_1_1_" enable-background="new 0 0 64 64" height="512" viewBox="0 0 64 64" width="512" xmlns="http://www.w3.org/2000/svg"><path d="m35.5 26c1.381 0 2.5-1.119 2.5-2.5s-1.119-2.5-2.5-2.5h-1.5v5z" fill="#edc59b"/><path d="m8 23.5c0 1.381 1.119 2.5 2.5 2.5h1.5v-5h-1.5c-1.381 0-2.5 1.119-2.5 2.5z" fill="#edc59b"/><path d="m37 44.417c3.188 1.457 6 3.149 6 4.583v13h-6v-7z" fill="#a6833e"/><path d="m9 44.417c-3.188 1.457-6 3.148-6 4.583v13h6v-7z" fill="#a6833e"/><path d="m18 43 5 5 5-5z" fill="#826731"/><path d="m30 51-7-3-7 3-3-8v12h20v-12z" fill="#826731"/><path d="m16 51 7-3-5-5v-2s-2.247.703-5 1.755v.245z" fill="#a6833e"/><path d="m30 51-7-3 5-5v-2s2.247.703 5 1.755v.245z" fill="#a6833e"/><path d="m33 55v-12-.245c1.283.49 2.672 1.055 4 1.662v10.583z" fill="#13244f"/><path d="m12 26c0 6.075 4.925 11 11 11s11-4.925 11-11v-1-5-1l-1.905-6.215c-1.066-2.666-4.349-3.628-6.685-1.959-1.458 1.042-3.401 1.102-4.921.152l-.437-.273c-2.517-1.573-5.838-.273-6.619 2.59l-1.433 6.705v5z" fill="#fce0b9"/><path d="m13 55v-12-.245c-1.283.49-2.672 1.055-4 1.662v10.583z" fill="#13244f"/><path d="m54 59h7v3h-7z" fill="#2b170d"/><path d="m56.757 41.322 4.243-4.242-1.414-1.415-.707.708-2.829-2.829-2.828 2.829 2.828 2.828-.707.707z" fill="#a59f97"/><path d="m20.052 10.705.437.273c1.52.95 3.462.89 4.921-.152 2.336-1.669 5.619-.707 6.685 1.959l1.905 6.215-.417-8.976c-.803-5.085-6.178-8.054-10.91-6.026l-4.673 2.002c-3.866 0-7 3.134-7 7l1 7v-2 2l1.433-6.705c.781-2.863 4.102-4.163 6.619-2.59z" fill="#665642"/><path d="m15 25h4c1.105 0 2-.895 2-2s-.895-2-2-2h-4c-1.105 0-2 .895-2 2s.895 2 2 2z" fill="#97d0e8"/><path d="m27 25h4c1.105 0 2-.895 2-2s-.895-2-2-2h-4c-1.105 0-2 .895-2 2s.895 2 2 2z" fill="#97d0e8"/><path d="m56.05 33.544.707-.707-3.416-3.416c-2.725-2.725-6.632-3.908-10.412-3.152l-4.557.911 6.278 1.256c.517.103.992.358 1.366.731.901.901 1.402 1.112.842 2.256-.491 1.004-1.414 4.243-1.414 4.243l2.828 2.828 4.243-1.414.707-.707z" fill="#a59f97"/><path d="m23 37c-1.802 0-3.499-.442-5-1.21v7.21l5 5 5-5v-7.21c-1.501.768-3.198 1.21-5 1.21z" fill="#fce0b9"/><path d="m18 35.79v3.21c3.801 0 6.977 2.654 7.791 6.209l2.209-2.209v-7.21c-1.501.768-3.198 1.21-5 1.21s-3.499-.442-5-1.21z" fill="#edc59b"/><g fill="#bdb6ad"><path d="m35.762 39.676h13v4h-13z" transform="matrix(.707 -.707 .707 .707 -17.091 42.09)"/><path d="m53.374 36.525c.72-.72 1.887-.72 2.607 0l1.525 1.525.707-.707 1.262 1.262 1.525-1.525-1.414-1.414-.707.707-2.828-2.828-2.828 2.828z"/><path d="m53.341 29.421c-2.725-2.725-6.632-3.908-10.412-3.152l-4.557.911 3.569.714c3.658-.604 7.394.572 10.027 3.205l3.263 3.263.818-.818.707-.707z"/></g><path d="m37.594 43.515-1.343 1.343 2.828 2.828 9.192-9.192-1.343-1.343-6.364 6.364c-.819.82-2.149.82-2.97 0z" fill="#948f87"/><path d="m18 7.646 4.673-2.003c4.732-2.028 10.107.941 10.91 6.026l.327 7.036.09.295-.417-8.976c-.803-5.085-6.178-8.054-10.91-6.026l-4.673 2.002c-3.866 0-7 3.134-7 7l.086.603c.505-3.37 3.404-5.957 6.914-5.957z" fill="#78654e"/><path d="m9 55h28v7h-28z" fill="#13244f"/><path d="m24.862 48.575h15v6h-15z" fill="#424242" transform="matrix(.707 -.707 .707 .707 -26.991 37.99)"/><path d="m48.719 51.645-1.719-.645-3.178 3.813c-.251.301-.529.575-.822.829-1.073.929-2.399 1.533-3.824 1.711l-2.176.272-.786.098c-1.265.158-2.214 1.233-2.214 2.508v1.769h15l5-3h7v-8c-3.826 1.913-8.276 2.147-12.281.645z" fill="#4d2817"/><path d="m27.695 54.515-1.257-1.257-1.5 1.5 4.242 4.242 10.607-10.607-1.5-1.5-7.621 7.621c-.821.821-2.151.821-2.971.001z" fill="#2b2b2b"/><path d="m48.719 51.645-1.719-.645-3.178 3.813c-.251.301-.529.575-.822.829-1.073.929-2.399 1.533-3.824 1.711l-2.176.272-.786.098c-1.265.158-2.214 1.233-2.214 2.508v1.769h.327c.381-.681 1.064-1.174 1.886-1.277l.787-.098 2.176-.272c1.425-.178 2.752-.781 3.824-1.711.293-.254.571-.527.822-.829l2.003-2.403c.704-.845 1.865-1.152 2.894-.766 4.005 1.503 8.455 1.269 12.281-.644v-3c-3.826 1.913-8.276 2.147-12.281.645z" fill="#63341e"/><circle cx="18" cy="23" fill="#665642" r="1"/><circle cx="28" cy="23" fill="#665642" r="1"/><path d="m23 33c-2.068 0-3.75-1.682-3.75-3.75h1.5c0 1.241 1.009 2.25 2.25 2.25s2.25-1.009 2.25-2.25h1.5c0 2.068-1.682 3.75-3.75 3.75z" fill="#c47c66"/><circle cx="18.5" cy="22.5" fill="#fff" r=".5"/><circle cx="28.5" cy="22.5" fill="#fff" r=".5"/><path d="m25.646 27-2.646 1-2.646-1c-.818 0-1.553.498-1.857 1.257l-1.497 3.743 2.422-1.211c2.252-1.126 4.903-1.126 7.155 0l2.423 1.211-1.497-3.743c-.304-.759-1.039-1.257-1.857-1.257z" fill="#665642"/><ellipse cx="49" cy="31.5" fill="#bdb6ad" rx="1" ry=".5"/><path d="m31 20.5h-4c-1.207 0-2.217.86-2.449 2h-3.101c-.232-1.14-1.242-2-2.449-2h-4c-1.378 0-2.5 1.122-2.5 2.5s1.122 2.5 2.5 2.5h4c1.207 0 2.217-.86 2.449-2h3.101c.232 1.14 1.242 2 2.449 2h4c1.378 0 2.5-1.122 2.5-2.5s-1.122-2.5-2.5-2.5zm-12 4h-4c-.827 0-1.5-.673-1.5-1.5s.673-1.5 1.5-1.5h4c.827 0 1.5.673 1.5 1.5s-.673 1.5-1.5 1.5zm12 0h-4c-.827 0-1.5-.673-1.5-1.5s.673-1.5 1.5-1.5h4c.827 0 1.5.673 1.5 1.5s-.673 1.5-1.5 1.5z" fill="#665642"/></svg>