<svg id="Layer_1_1_" enable-background="new 0 0 64 64" height="512" viewBox="0 0 64 64" width="512" xmlns="http://www.w3.org/2000/svg"><path d="m16 62h-6.676c-1.809 0-3.452-.841-4.51-2.309-1.057-1.467-1.335-3.292-.763-5.008l1.896.633c-.366 1.098-.188 2.267.489 3.206.678.939 1.73 1.478 2.888 1.478h6.676z" fill="#ededed"/><path d="m39 3c-8.837 0-16 7.163-16 16v27h32v-27c0-8.837-7.163-16-16-16z" fill="#332813"/><path d="m59 52-8 4v6h8z" fill="#fce0b9"/><path d="m59 52v-2c0-3.314-2.686-6-6-6h-4v6l-10 4-10-4v-6h-4c-3.314 0-6 2.686-6 6v2l8 4v6h24v-6z" fill="#3a4c63"/><path d="m19 52v10h8v-6z" fill="#fce0b9"/><path d="m39 35c1.657 0 3-1.343 3-3h-6c0 1.657 1.343 3 3 3z" fill="#e18080"/><path d="m12.77 27.113c-3.756-.914-7.542 1.391-8.456 5.147-.477 1.959-.072 3.922.952 5.486.939 1.434 2.398 2.533 4.195 2.97 3.756.914 7.542-1.391 8.456-5.147.914-3.757-1.391-7.543-5.147-8.456z" fill="#292929"/><path d="m44 41v-4.21c-1.501.768-3.198 1.21-5 1.21s-3.499-.442-5-1.21v4.21c0 1.657-1.343 3-3 3h-2v6l10 4 10-4v-6h-2c-1.657 0-3-1.343-3-3z" fill="#fce0b9"/><path d="m39 38c6.075 0 11-4.925 11-11v-6h-.877c-1.835 0-3.435-1.249-3.881-3.03l-2.242-7.97-2.053 7.213c-.557 2.225-2.557 3.787-4.851 3.787h-8.096v6c0 6.075 4.925 11 11 11zm3-6c0 1.657-1.343 3-3 3s-3-1.343-3-3z" fill="#fce0b9"/><path d="m39 3c-8.837 0-16 7.163-16 16v3c0-8.837 7.163-16 16-16s16 7.163 16 16v-3c0-8.837-7.163-16-16-16z" fill="#47381b"/><path d="m53 44h-4v2 1 3l-10 4-10-4v-3-1-2h-4c-3.314 0-6 2.686-6 6v2l.084.042c.459-2.857 2.929-5.042 5.916-5.042h2v5l2 1 10 4 10-4 2-1v-5h2c2.987 0 5.457 2.185 5.916 5.042l.084-.042v-2c0-3.314-2.686-6-6-6z" fill="#314154"/><path d="m49.123 21c-1.835 0-3.435-1.249-3.881-3.03l-2.242-7.97-2.053 7.213c-.557 2.225-2.557 3.787-4.851 3.787h-8.096v3h8.096c2.294 0 4.294-1.562 4.851-3.787l2.053-7.213 2.243 7.97c.445 1.781 2.045 3.03 3.881 3.03h.876v-3z" fill="#fad3ac"/><path d="m45.241 43.42c-.749-.545-1.241-1.423-1.241-2.42v-4.21c-1.501.768-3.198 1.21-5 1.21s-3.499-.442-5-1.21v4.21c0 1.657-1.343 3-3 3h-2v5.818z" fill="#fad3ac"/><path d="m9.461 40.716c-1.797-.437-3.256-1.536-4.195-2.97l-2.266 16.836 5.83 1.418 5.721-15.995c-1.493.842-3.293 1.148-5.09.711z" fill="#606060"/><path d="m9.461 40.716c-1.797-.437-3.256-1.536-4.195-2.97l-.533 3.958c1.131.932 2.478 1.638 3.999 2.008 1.52.37 3.04.362 4.473.057l1.346-3.764c-1.493.842-3.293 1.148-5.09.711z" fill="#454545"/><path d="m12.77 27.113c-3.568-.868-7.157 1.17-8.292 4.594 1.64-2.107 4.415-3.179 7.177-2.507 3.756.914 6.061 4.7 5.147 8.456-.046.189-.104.371-.164.553.59-.758 1.037-1.646 1.279-2.64.914-3.757-1.391-7.543-5.147-8.456z" fill="#454545"/><path d="m7.208 45.792h2v2h-2z" fill="#ededed" transform="matrix(.236 -.972 .972 .236 -39.198 43.709)"/><path d="m59.433 5.424 2.864-.891-.594-1.91-3.819 1.188c-.527.164-.822.725-.658 1.252l1.54 4.95c-.334-.014-.674.016-1.01.121-1.579.492-2.465 2.176-1.974 3.755.4 1.285 1.588 2.111 2.867 2.111.294 0 .594-.043.889-.135 1.58-.492 2.465-2.176 1.974-3.756z" fill="#fa8e8e"/><path d="m15.783 2.024-9 2c-.458.101-.783.507-.783.976v3 5.184c-.314-.112-.648-.184-1-.184-1.654 0-3 1.346-3 3s1.346 3 3 3 3-1.346 3-3v-7.198l7-1.556v3.938c-.314-.112-.648-.184-1-.184-1.654 0-3 1.346-3 3s1.346 3 3 3 3-1.346 3-3v-8-3c0-.303-.138-.59-.374-.78-.237-.189-.549-.263-.843-.196z" fill="#fa8e8e"/><path d="m40 48v-1.382l5.773-2.886c-.662-.298-1.194-.828-1.496-1.488l-5.277 2.638-5.277-2.638c-.249.544-.656.997-1.162 1.308l5.439 3.066v1.382z" fill="#fff"/><g fill="#e18080"><path d="m59.433 5.424 2.864-.891-.594-1.91-.722.225.019.062-2.864.891 2.079 6.684c.491 1.58-.394 3.264-1.974 3.756-.295.092-.595.135-.889.135-.556 0-1.09-.164-1.554-.445.413 1.26 1.586 2.069 2.851 2.069.294 0 .594-.043.889-.135 1.58-.492 2.465-2.176 1.974-3.756z"/><path d="m15 5.247-7 1.556v1.999l7-1.555z"/><path d="m5 17c-1.302 0-2.402-.839-2.816-2-.112.314-.184.648-.184 1 0 1.654 1.346 3 3 3s3-1.346 3-3v-2c0 1.655-1.346 3-3 3z"/><path d="m14 15c-1.302 0-2.402-.839-2.816-2-.112.314-.184.648-.184 1 0 1.654 1.346 3 3 3s3-1.346 3-3v-2c0 1.655-1.346 3-3 3z"/></g><circle cx="15" cy="4" fill="#fff" r="1"/><circle cx="12.5" cy="3.5" fill="#fff" r=".5"/><circle cx="60" cy="12" fill="#fff" r="1"/><circle cx="57.5" cy="11.5" fill="#fff" r=".5"/><ellipse cx="34" cy="27.5" fill="#2b2210" rx="1" ry="1.5"/><ellipse cx="44" cy="27.5" fill="#2b2210" rx="1" ry="1.5"/><circle cx="34.5" cy="27.5" fill="#fff" r=".5"/><circle cx="44.5" cy="27.5" fill="#fff" r=".5"/><ellipse cx="39" cy="48" fill="#cdd0f7" rx="1" ry="2"/></svg>