<svg id="Layer_1_1_" enable-background="new 0 0 64 64" height="512" viewBox="0 0 64 64" width="512" xmlns="http://www.w3.org/2000/svg"><path d="m37 62h-28v-16l9-2h10l9 2z" fill="#46afda"/><path d="m23 40c-1.802 0-3.499-.442-5-1.21v7.21s3 2 5 2c3 0 5-2 5-2v-7.21c-1.501.768-3.198 1.21-5 1.21z" fill="#fad3ac"/><path d="m18 38.79v3c1.501.768 3.198 1.21 5 1.21s3.499-.442 5-1.21v-3c-1.501.768-3.198 1.21-5 1.21s-3.499-.442-5-1.21z" fill="#edc59b"/><path d="m3 52v10h6v-16c-3.314 0-6 2.686-6 6z" fill="#fad3ac"/><path d="m43 52v10h-6v-16c3.314 0 6 2.686 6 6z" fill="#fad3ac"/><path d="m35.5 28c1.114 0 2.047-.734 2.37-1.741.022-.359.05-.719.098-1.078-.158-1.228-1.196-2.181-2.468-2.181h-1.5v5z" fill="#edc59b"/><path d="m10.5 23c-1.381 0-2.5 1.119-2.5 2.5s1.119 2.5 2.5 2.5h1.5v-5z" fill="#edc59b"/><path d="m35.304 5.282c-.806-1.411-2.307-2.282-3.933-2.282-.894 0-1.768.265-2.513.761l-1.858 1.239c-1.956-1.304-4.255-2-6.606-2h-1.394c-3.148 0-6.111 1.482-8 4s-4.852 4-8 4h-1l1.713 2.569c1.371 2.058 3.888 3.031 6.287 2.431l3-1h7 15l.204-.341c1.727-2.877 1.765-6.463.1-9.377z" fill="#4d2817"/><path d="m12 23v5 1c0 6.075 4.925 11 11 11s11-4.925 11-11v-1-5-3h-22z" fill="#fad3ac"/><circle cx="56" cy="52" fill="#c9f364" r="5"/><path d="m56 55c-2.419 0-4.436-1.718-4.899-4-.066.323-.101.657-.101 1 0 2.761 2.239 5 5 5s5-2.239 5-5c0-.343-.035-.677-.101-1-.463 2.282-2.48 4-4.899 4z" fill="#add156"/><path d="m12 20h22v2h-22z" fill="#edc59b"/><ellipse cx="31.5" cy="6" fill="#61321d" rx="2.5" ry="1"/><ellipse cx="33.5" cy="8.5" fill="#61321d" rx="1.5" ry=".5"/><path d="m35 20h-24c-.552 0-1-.448-1-1v-3c0-.552.448-1 1-1h24c.552 0 1 .448 1 1v3c0 .552-.448 1-1 1z" fill="#1a326e"/><path d="m36.39 8.403c-.002.011-.004.023-.006.034-.32 1.889-2.011 3.241-3.926 3.284l-7.198.161c.471-.856.74-1.838.74-2.882h-2c0 1.166-.51 2.208-1.309 2.94l-2.691.06h-1.812c.513-.884.812-1.907.812-3h-2c0 1.213-.555 2.289-1.41 3.023-1.9.056-3.784.375-5.59.977-2.244.561-4.579-.267-5.995-2.059-.333.034-.667.059-1.005.059h-1l1.713 2.569c1.371 2.058 3.888 3.031 6.287 2.431l25-1 .204-.341c1.146-1.909 1.531-4.127 1.186-6.256z" fill="#3b1e12"/><g fill="#606060"><path d="m46.043 27.78 1.842.78.792-1.837-1.841-.779z"/><path d="m49.727 29.34 1.841.779.792-1.836-1.841-.78z"/><path d="m48.446 22.209-.818 1.898 1.841.78.813-1.886z"/><path d="m51.311 25.667 1.842.779.802-1.86-1.836-.792z"/><path d="m54.427 13.392c-6.487-2.796-13.211.333-16.352 7.611-1.425 3.303-1.552 6.911-.822 10.089l-.037.01 1.356 5.229c.916 3.531.625 7.32-.82 10.67l-4.357 10.1c-.219.507.015 1.096.522 1.314l2.755 1.188c.507.219 1.096-.015 1.314-.522l4.357-10.101-.006-.003.007.003.278-.644c1.289-2.99 3.435-5.532 6.166-7.305l4.632-3.006-.029-.044c2.999-1.79 5.422-4.462 6.722-7.474 3.14-7.278.802-14.316-5.686-17.115zm-14.838 34.401c1.329-3.082 1.772-6.494 1.326-9.807.692.662 1.441 1.199 2.238 1.543.938.405 2.015.604 3.17.604.096 0 .199-.018.296-.021-2.554 1.927-4.558 4.472-5.834 7.429l-.279.648m17.122-22.019-1.836-.792-.797 1.849 1.835.777-.779 1.842-1.848-.783-.792 1.837 1.835.777-.779 1.842-1.848-.782-.787 1.824-1.837-.792.782-1.812-1.841-.78-.776 1.799-1.837-.792.771-1.787-1.841-.78-.765 1.775-1.837-.792.76-1.763-3.611-1.529.779-1.842 3.622 1.534.792-1.837-3.611-1.529.779-1.842 3.624 1.534.824-1.91-3.673-1.584.792-1.837 3.673 1.584.792-1.836 1.837.792-.792 1.836 1.836.792.792-1.836 1.837.792-.792 1.837 1.836.792.792-1.836 1.837.792-.792 1.836 1.836.792z"/></g><path d="m54.887 61.937c-1.517-.171-2.981-.688-4.267-1.508-.503-.321-.613-1.013-.237-1.477.316-.391.876-.488 1.299-.216 1.042.672 2.21 1.085 3.445 1.217.5.053.874.482.874.985-.001.597-.522 1.066-1.114.999z" fill="#add156"/><path d="m47.062 52c-.597 0-1.066-.521-.999-1.113.171-1.517.688-2.981 1.508-4.267.321-.503 1.013-.613 1.477-.237.391.316.488.876.216 1.299-.672 1.042-1.085 2.21-1.217 3.445-.054.499-.483.873-.985.873z" fill="#add156"/><ellipse cx="18" cy="26.5" fill="#2b2210" rx="1" ry="1.5"/><ellipse cx="28" cy="26.5" fill="#2b2210" rx="1" ry="1.5"/><path d="m23 36c-2.068 0-3.75-1.682-3.75-3.75h1.5c0 1.241 1.009 2.25 2.25 2.25s2.25-1.009 2.25-2.25h1.5c0 2.068-1.682 3.75-3.75 3.75z" fill="#c47c66"/><circle cx="18.5" cy="26.5" fill="#fff" r=".5"/><circle cx="28.5" cy="26.5" fill="#fff" r=".5"/></svg>