<svg id="Layer_1_1_" enable-background="new 0 0 64 64" height="512" viewBox="0 0 64 64" width="512" xmlns="http://www.w3.org/2000/svg"><path d="m55 62h-2v-.672c0-1.793.891-3.457 2.382-4.451.794-.53 1.327-1.376 1.459-2.321s-.145-1.905-.762-2.634l-4.079-4.922 2.224-.359 3.381 3.988c.986 1.163 1.43 2.695 1.217 4.205s-1.062 2.86-2.331 3.707c-.933.623-1.491 1.665-1.491 2.787z" fill="#808080"/><path d="m30 40h-10s-16 3.686-16 7l1 14h40l1-14c0-3.314-16-7-16-7z" fill="#a31900"/><path d="m41.817 43.699c.108.357.183.724.183 1.104l-1 4.197-3 12h7l1-14c0-1.109-1.797-2.26-4.183-3.301z" fill="#821400"/><g fill="#fce0b9"><path d="m12.5 21c-1.381 0-2.5 1.119-2.5 2.5s1.119 2.5 2.5 2.5h1.5v-5z"/><path d="m30 42v-2-4.096l-.862.472c-.747.41-1.584.624-2.436.624h-3.405c-.851 0-1.689-.214-2.436-.624l-.861-.472v4.096 2c2.761 2.761 7.239 2.761 10 0z"/><path d="m37.5 26c1.381 0 2.5-1.119 2.5-2.5s-1.119-2.5-2.5-2.5h-1.5v5z"/><path d="m23.298 37h3.405c.851 0 1.689-.214 2.436-.624l.861-.472 3.841-2.105c1.368-1.14 2.159-2.829 2.159-4.609v-3.19-5-4.459c-.947.297-1.955.459-3 .459h-4c-2.162 0-4.158-.693-5.793-1.859l-9.207 5.859v5 3.19c0 1.781.791 3.469 2.159 4.609l3.841 2.105.862.472c.747.41 1.584.624 2.436.624zm4.702-7c0 1.657-1.343 3-3 3s-3-1.343-3-3z"/></g><path d="m25 33c1.657 0 3-1.343 3-3h-6c0 1.657 1.343 3 3 3z" fill="#e18080"/><path d="m40 4c-1.063 0-3.64.555-5.353 1.389-2.378-1.406-7.376-2.389-10.647-2.389-4.418 0-8 1.791-8 4-2.761 0-5 2.239-5 5s.239 9 3 9l9.207-5.859c1.635 1.166 3.631 1.859 5.793 1.859h4c1.045 0 2.053-.162 3-.459 4.057-1.274 7-5.063 7-9.541 0-1.657-1.343-3-3-3z" fill="#4d2817"/><path d="m54.686 24.347c-.914-3.756-4.7-6.061-8.456-5.147s-6.061 4.7-5.147 8.456c.477 1.959 1.738 3.517 3.365 4.436 1.493.843 3.294 1.148 5.091.711s3.256-1.536 4.195-2.97c1.024-1.564 1.429-3.527.952-5.486z" fill="#808080"/><path d="m16 9c0-2.209 3.582-4 8-4 3.271 0 8.269.983 10.647 2.389 1.713-.834 4.29-1.389 5.353-1.389 1.413 0 2.591.981 2.908 2.297.056-.425.092-.857.092-1.297 0-1.657-1.343-3-3-3-1.063 0-3.64.555-5.353 1.389-2.378-1.406-7.376-2.389-10.647-2.389-4.418 0-8 1.791-8 4-2.761 0-5 2.239-5 5 0 .47.008 1.045.033 1.669.174-2.604 2.319-4.669 4.967-4.669z" fill="#66351e"/><path d="m33 17h-4c-2.162 0-4.158-.693-5.793-1.859l-9.207 5.859v2l9.207-5.859c1.635 1.166 3.631 1.859 5.793 1.859h4c1.045 0 2.053-.162 3-.459v-2c-.947.297-1.955.459-3 .459z" fill="#fad3ac"/><path d="m27.76 43.507c.814-.345 1.577-.844 2.24-1.507v-2-4.096l-.862.472c-.747.41-1.584.624-2.436.624h-3.405c-.851 0-1.689-.214-2.436-.624l-.861-.472v2.429z" fill="#fad3ac"/><path d="m46.928 39c-.608 0-1.204-.165-1.725-.478l-3.194-1.917c-.593-.356-1.353-.262-1.842.227-.627.627-.58 1.657.101 2.225l3.346 2.789c.879.731 1.386 1.815 1.386 2.957l-1 4.197-3 12h7l6-19z" fill="#fce0b9"/><path d="m55.758 44.873-1.333-9.907-.691-5.133c-.939 1.434-2.398 2.533-4.195 2.97s-3.598.131-5.091-.711l5.721 15.995 5.831-1.418z" fill="#606060"/><path d="m54.874 35h-.748c-1.726 0-3.126 1.4-3.126 3.126v3.748c0 1.726 1.4 3.126 3.126 3.126h.748c1.726 0 3.126-1.4 3.126-3.126v-3.748c0-1.726-1.4-3.126-3.126-3.126z" fill="#fce0b9"/><path d="m54.686 24.347c-.914-3.756-4.7-6.061-8.456-5.147-1.85.45-3.346 1.599-4.28 3.096.703-.5 1.508-.882 2.397-1.098 3.756-.914 7.542 1.391 8.456 5.147.466 1.914.086 3.829-.886 5.374.724-.513 1.339-1.155 1.817-1.886 1.024-1.564 1.429-3.527.952-5.486z" fill="#9e9e9e"/><path d="m12 53h2v8h-2z" fill="#821400"/><path d="m36 53h2v8h-2z" fill="#821400"/><path d="m60 11v5.184c-.314-.112-.648-.184-1-.184-1.654 0-3 1.346-3 3s1.346 3 3 3 3-1.346 3-3v-8z" fill="#eaca65"/><path d="m56.783 2.023-4 .889c-.457.102-.783.508-.783.977v5.184c-.314-.112-.648-.184-1-.184-1.654 0-3 1.346-3 3s1.346 3 3 3 3-1.346 3-3v-7.199l3.217-.714z" fill="#eaca65"/><path d="m51 13.977c-1.298 0-2.395-.833-2.812-1.988-.055.151-.098.308-.131.468.266 1.383 1.483 2.432 2.943 2.432 1.654 0 3-1.346 3-3v-.912c0 1.654-1.346 3-3 3z" fill="#cfb259"/><path d="m59 21c-1.483 0-2.71-1.084-2.949-2.5-.028.163-.051.329-.051.5 0 1.654 1.346 3 3 3s3-1.346 3-3v-1c0 1.654-1.346 3-3 3z" fill="#cfb259"/><path d="m56.789 3.159-2.789.619v.912l2.982-.661z" fill="#cfb259"/><ellipse cx="20" cy="25.5" fill="#2b2210" rx="1" ry="1.5"/><ellipse cx="30" cy="25.5" fill="#2b2210" rx="1" ry="1.5"/><circle cx="20.5" cy="25.5" fill="#fff" r=".5"/><circle cx="30.5" cy="25.5" fill="#fff" r=".5"/></svg>